G04 #@! TF.GenerationSoftware,KiCad,Pcbnew,7.0.8*
G04 #@! TF.CreationDate,2024-04-01T22:34:59+01:00*
G04 #@! TF.ProjectId,right,72696768-742e-46b6-9963-61645f706362,v1.0.0*
G04 #@! TF.SameCoordinates,Original*
G04 #@! TF.FileFunction,Soldermask,Bot*
G04 #@! TF.FilePolarity,Negative*
%FSLAX46Y46*%
G04 Gerber Fmt 4.6, Leading zero omitted, Abs format (unit mm)*
G04 Created by KiCad (PCBNEW 7.0.8) date 2024-04-01 22:34:59*
%MOMM*%
%LPD*%
G01*
G04 APERTURE LIST*
%ADD10C,3.429000*%
%ADD11C,1.701800*%
%ADD12C,2.032000*%
%ADD13R,0.900000X1.200000*%
%ADD14R,1.200000X0.900000*%
G04 APERTURE END LIST*
D10*
X316000000Y-138250000D03*
D11*
X321500000Y-138250000D03*
X310500000Y-138250000D03*
D12*
X321000000Y-134450000D03*
X316000000Y-132350000D03*
D10*
X316000000Y-121250000D03*
D11*
X321500000Y-121250000D03*
X310500000Y-121250000D03*
D12*
X321000000Y-117450000D03*
X316000000Y-115350000D03*
D10*
X298000000Y-136125000D03*
D11*
X303500000Y-136125000D03*
X292500000Y-136125000D03*
D12*
X303000000Y-132325000D03*
X298000000Y-130225000D03*
D10*
X298000000Y-119125000D03*
D11*
X303500000Y-119125000D03*
X292500000Y-119125000D03*
D12*
X303000000Y-115325000D03*
X298000000Y-113225000D03*
D10*
X280000000Y-127625000D03*
D11*
X285500000Y-127625000D03*
X274500000Y-127625000D03*
D12*
X285000000Y-123825000D03*
X280000000Y-121725000D03*
D10*
X280000000Y-110625000D03*
D11*
X285500000Y-110625000D03*
X274500000Y-110625000D03*
D12*
X285000000Y-106825000D03*
X280000000Y-104725000D03*
D10*
X262000000Y-125500000D03*
D11*
X267500000Y-125500000D03*
X256500000Y-125500000D03*
D12*
X267000000Y-121700000D03*
X262000000Y-119600000D03*
D10*
X262000000Y-108500000D03*
D11*
X267500000Y-108500000D03*
X256500000Y-108500000D03*
D12*
X267000000Y-104700000D03*
X262000000Y-102600000D03*
D10*
X244000000Y-129750000D03*
D11*
X249500000Y-129750000D03*
X238500000Y-129750000D03*
D12*
X249000000Y-125950000D03*
X244000000Y-123850000D03*
D10*
X244000000Y-112750000D03*
D11*
X249500000Y-112750000D03*
X238500000Y-112750000D03*
D12*
X249000000Y-108950000D03*
X244000000Y-106850000D03*
D10*
X226000000Y-134000000D03*
D11*
X231500000Y-134000000D03*
X220500000Y-134000000D03*
D12*
X231000000Y-130200000D03*
X226000000Y-128100000D03*
D10*
X226000000Y-117000000D03*
D11*
X231500000Y-117000000D03*
X220500000Y-117000000D03*
D12*
X231000000Y-113200000D03*
X226000000Y-111100000D03*
D10*
X243500000Y-159500000D03*
D11*
X243500000Y-154000000D03*
X243500000Y-165000000D03*
D12*
X239700000Y-154500000D03*
X237600000Y-159500000D03*
D10*
X226500000Y-159500000D03*
D11*
X226500000Y-154000000D03*
X226500000Y-165000000D03*
D12*
X222700000Y-154500000D03*
X220600000Y-159500000D03*
D13*
X314350000Y-143250000D03*
X317650000Y-143250000D03*
X314350000Y-126250000D03*
X317650000Y-126250000D03*
X296350000Y-141125000D03*
X299650000Y-141125000D03*
X296350000Y-124125000D03*
X299650000Y-124125000D03*
X278350000Y-132625000D03*
X281650000Y-132625000D03*
X278350000Y-115625000D03*
X281650000Y-115625000D03*
X260350000Y-130500000D03*
X263650000Y-130500000D03*
X260350000Y-113500000D03*
X263650000Y-113500000D03*
X242350000Y-134750000D03*
X245650000Y-134750000D03*
X242350000Y-117750000D03*
X245650000Y-117750000D03*
X224350000Y-139000000D03*
X227650000Y-139000000D03*
X224350000Y-122000000D03*
X227650000Y-122000000D03*
D14*
X248500000Y-161150000D03*
X248500000Y-157850000D03*
X231500000Y-161150000D03*
X231500000Y-157850000D03*
M02*
