G04 #@! TF.GenerationSoftware,KiCad,Pcbnew,7.0.8*
G04 #@! TF.CreationDate,2024-04-01T22:34:59+01:00*
G04 #@! TF.ProjectId,right,72696768-742e-46b6-9963-61645f706362,v1.0.0*
G04 #@! TF.SameCoordinates,Original*
G04 #@! TF.FileFunction,Profile,NP*
%FSLAX46Y46*%
G04 Gerber Fmt 4.6, Leading zero omitted, Abs format (unit mm)*
G04 Created by KiCad (PCBNEW 7.0.8) date 2024-04-01 22:34:59*
%MOMM*%
%LPD*%
G01*
G04 APERTURE LIST*
G04 #@! TA.AperFunction,Profile*
%ADD10C,0.150000*%
G04 #@! TD*
G04 APERTURE END LIST*
D10*
X308000000Y-146750000D02*
X324000000Y-146750000D01*
X325000000Y-145750000D02*
X325000000Y-113750000D01*
X307000000Y-145625000D02*
X307000000Y-145750000D01*
X324000000Y-112750000D02*
X308000000Y-112750000D01*
X272000000Y-144625000D02*
X306000000Y-144625000D01*
X307000000Y-111750000D02*
X307000000Y-111625000D01*
X306000000Y-110625000D02*
X290000000Y-110625000D01*
X271000000Y-143625000D02*
X271000000Y-135000000D01*
X289000000Y-109625000D02*
X289000000Y-103125000D01*
X288000000Y-102125000D02*
X272000000Y-102125000D01*
X254000000Y-134000000D02*
X270000000Y-134000000D01*
X271000000Y-101125000D02*
X271000000Y-101000000D01*
X270000000Y-100000000D02*
X254000000Y-100000000D01*
X253000000Y-101000000D02*
X253000000Y-103250000D01*
X253000000Y-172000000D02*
X253000000Y-135000000D01*
X252000000Y-104250000D02*
X236000000Y-104250000D01*
X235000000Y-105250000D02*
X235000000Y-107500000D01*
X217000000Y-172000000D02*
X217000000Y-109500000D01*
X234000000Y-108500000D02*
X218000000Y-108500000D01*
X218000000Y-173000000D02*
X252000000Y-173000000D01*
X324000000Y-146750000D02*
G75*
G03*
X325000000Y-145750000I0J1000000D01*
G01*
X325000000Y-113750000D02*
G75*
G03*
X324000000Y-112750000I-1000000J0D01*
G01*
X307000000Y-111750000D02*
G75*
G03*
X308000000Y-112750000I1000000J0D01*
G01*
X307000000Y-111625000D02*
G75*
G03*
X306000000Y-110625000I-1000000J0D01*
G01*
X289000000Y-109625000D02*
G75*
G03*
X290000000Y-110625000I1000000J0D01*
G01*
X289000000Y-103125000D02*
G75*
G03*
X288000000Y-102125000I-1000000J0D01*
G01*
X271000000Y-101125000D02*
G75*
G03*
X272000000Y-102125000I1000000J0D01*
G01*
X271000000Y-101000000D02*
G75*
G03*
X270000000Y-100000000I-1000000J0D01*
G01*
X254000000Y-100000000D02*
G75*
G03*
X253000000Y-101000000I0J-1000000D01*
G01*
X252000000Y-104250000D02*
G75*
G03*
X253000000Y-103250000I0J1000000D01*
G01*
X236000000Y-104250000D02*
G75*
G03*
X235000000Y-105250000I0J-1000000D01*
G01*
X234000000Y-108500000D02*
G75*
G03*
X235000000Y-107500000I0J1000000D01*
G01*
X218000000Y-108500000D02*
G75*
G03*
X217000000Y-109500000I0J-1000000D01*
G01*
X217000000Y-172000000D02*
G75*
G03*
X218000000Y-173000000I1000000J0D01*
G01*
X252000000Y-173000000D02*
G75*
G03*
X253000000Y-172000000I0J1000000D01*
G01*
X254000000Y-134000000D02*
G75*
G03*
X253000000Y-135000000I0J-1000000D01*
G01*
X271000000Y-135000000D02*
G75*
G03*
X270000000Y-134000000I-1000000J0D01*
G01*
X271000000Y-143625000D02*
G75*
G03*
X272000000Y-144625000I1000000J0D01*
G01*
X307000000Y-145625000D02*
G75*
G03*
X306000000Y-144625000I-1000000J0D01*
G01*
X307000000Y-145750000D02*
G75*
G03*
X308000000Y-146750000I1000000J0D01*
G01*
M02*
