M48
; DRILL file {KiCad 7.0.8} date Mon 01 Apr 2024 22:35:24 BST
; FORMAT={-:-/ absolute / metric / decimal}
; #@! TF.CreationDate,2024-04-01T22:35:24+01:00
; #@! TF.GenerationSoftware,Kicad,Pcbnew,7.0.8
; #@! TF.FileFunction,NonPlated,1,2,NPTH
FMAT,2
METRIC
; #@! TA.AperFunction,NonPlated,NPTH,ComponentDrill
T1C1.702
; #@! TA.AperFunction,NonPlated,NPTH,ComponentDrill
T2C3.429
%
G90
G05
T1
X220.5Y-117.0
X220.5Y-134.0
X226.5Y-154.0
X226.5Y-165.0
X231.5Y-117.0
X231.5Y-134.0
X238.5Y-112.75
X238.5Y-129.75
X243.5Y-154.0
X243.5Y-165.0
X249.5Y-112.75
X249.5Y-129.75
X256.5Y-108.5
X256.5Y-125.5
X267.5Y-108.5
X267.5Y-125.5
X274.5Y-110.625
X274.5Y-127.625
X285.5Y-110.625
X285.5Y-127.625
X292.5Y-119.125
X292.5Y-136.125
X303.5Y-119.125
X303.5Y-136.125
X310.5Y-121.25
X310.5Y-138.25
X321.5Y-121.25
X321.5Y-138.25
T2
X226.0Y-117.0
X226.0Y-134.0
X226.5Y-159.5
X243.5Y-159.5
X244.0Y-112.75
X244.0Y-129.75
X262.0Y-108.5
X262.0Y-125.5
X280.0Y-110.625
X280.0Y-127.625
X298.0Y-119.125
X298.0Y-136.125
X316.0Y-121.25
X316.0Y-138.25
T0
M30
