%TF.GenerationSoftware,KiCad,Pcbnew,7.0.8*%
%TF.CreationDate,2024-04-01T22:35:28+01:00*%
%TF.ProjectId,right,72696768-742e-46b6-9963-61645f706362,v1.0.0*%
%TF.SameCoordinates,Original*%
%TF.FileFunction,Drillmap*%
%TF.FilePolarity,Positive*%
%FSLAX45Y45*%
G04 Gerber Fmt 4.5, Leading zero omitted, Abs format (unit mm)*
G04 Created by KiCad (PCBNEW 7.0.8) date 2024-04-01 22:35:28*
%MOMM*%
%LPD*%
G01*
G04 APERTURE LIST*
%ADD10C,0.150000*%
%ADD11C,0.200000*%
%ADD12C,0.030000*%
%ADD13C,0.040000*%
%ADD14C,0.127000*%
G04 APERTURE END LIST*
D10*
X30800000Y-14675000D02*
X32400000Y-14675000D01*
X32500000Y-14575000D02*
X32500000Y-11375000D01*
X30700000Y-14562500D02*
X30700000Y-14575000D01*
X32400000Y-11275000D02*
X30800000Y-11275000D01*
X27200000Y-14462500D02*
X30600000Y-14462500D01*
X30700000Y-11175000D02*
X30700000Y-11162500D01*
X30600000Y-11062500D02*
X29000000Y-11062500D01*
X27100000Y-14362500D02*
X27100000Y-13500000D01*
X28900000Y-10962500D02*
X28900000Y-10312500D01*
X28800000Y-10212500D02*
X27200000Y-10212500D01*
X25400000Y-13400000D02*
X27000000Y-13400000D01*
X27100000Y-10112500D02*
X27100000Y-10100000D01*
X27000000Y-10000000D02*
X25400000Y-10000000D01*
X25300000Y-10100000D02*
X25300000Y-10325000D01*
X25300000Y-17200000D02*
X25300000Y-13500000D01*
X25200000Y-10425000D02*
X23600000Y-10425000D01*
X23500000Y-10525000D02*
X23500000Y-10750000D01*
X21700000Y-17200000D02*
X21700000Y-10950000D01*
X23400000Y-10850000D02*
X21800000Y-10850000D01*
X21800000Y-17300000D02*
X25200000Y-17300000D01*
X32400000Y-14675000D02*
G75*
G03*
X32500000Y-14575000I0J100000D01*
G01*
X32500000Y-11375000D02*
G75*
G03*
X32400000Y-11275000I-100000J0D01*
G01*
X30700000Y-11175000D02*
G75*
G03*
X30800000Y-11275000I100000J0D01*
G01*
X30700000Y-11162500D02*
G75*
G03*
X30600000Y-11062500I-100000J0D01*
G01*
X28900000Y-10962500D02*
G75*
G03*
X29000000Y-11062500I100000J0D01*
G01*
X28900000Y-10312500D02*
G75*
G03*
X28800000Y-10212500I-100000J0D01*
G01*
X27100000Y-10112500D02*
G75*
G03*
X27200000Y-10212500I100000J0D01*
G01*
X27100000Y-10100000D02*
G75*
G03*
X27000000Y-10000000I-100000J0D01*
G01*
X25400000Y-10000000D02*
G75*
G03*
X25300000Y-10100000I0J-100000D01*
G01*
X25200000Y-10425000D02*
G75*
G03*
X25300000Y-10325000I0J100000D01*
G01*
X23600000Y-10425000D02*
G75*
G03*
X23500000Y-10525000I0J-100000D01*
G01*
X23400000Y-10850000D02*
G75*
G03*
X23500000Y-10750000I0J100000D01*
G01*
X21800000Y-10850000D02*
G75*
G03*
X21700000Y-10950000I0J-100000D01*
G01*
X21700000Y-17200000D02*
G75*
G03*
X21800000Y-17300000I100000J0D01*
G01*
X25200000Y-17300000D02*
G75*
G03*
X25300000Y-17200000I0J100000D01*
G01*
X25400000Y-13400000D02*
G75*
G03*
X25300000Y-13500000I0J-100000D01*
G01*
X27100000Y-13500000D02*
G75*
G03*
X27000000Y-13400000I-100000J0D01*
G01*
X27100000Y-14362500D02*
G75*
G03*
X27200000Y-14462500I100000J0D01*
G01*
X30700000Y-14562500D02*
G75*
G03*
X30600000Y-14462500I-100000J0D01*
G01*
X30700000Y-14575000D02*
G75*
G03*
X30800000Y-14675000I100000J0D01*
G01*
D11*
D12*
X27785000Y-14247500D02*
X27815000Y-14277500D01*
X27815000Y-14247500D02*
X27785000Y-14277500D01*
X27985000Y-14247500D02*
X28015000Y-14277500D01*
X28015000Y-14247500D02*
X27985000Y-14277500D01*
X28185000Y-14247500D02*
X28215000Y-14277500D01*
X28215000Y-14247500D02*
X28185000Y-14277500D01*
D13*
X27670000Y-13700000D02*
G75*
G03*
X27670000Y-13700000I-20000J0D01*
G01*
X28690000Y-13710000D02*
G75*
G03*
X28690000Y-13710000I-20000J0D01*
G01*
D14*
X22060000Y-15886500D02*
X22060000Y-16013500D01*
X21996500Y-15950000D02*
X22123500Y-15950000D01*
X22270000Y-15386500D02*
X22270000Y-15513500D01*
X22206500Y-15450000D02*
X22333500Y-15450000D01*
X22600000Y-11046500D02*
X22600000Y-11173500D01*
X22536500Y-11110000D02*
X22663500Y-11110000D01*
X22600000Y-12746500D02*
X22600000Y-12873500D01*
X22536500Y-12810000D02*
X22663500Y-12810000D01*
X23100000Y-11256500D02*
X23100000Y-11383500D01*
X23036500Y-11320000D02*
X23163500Y-11320000D01*
X23100000Y-12956500D02*
X23100000Y-13083500D01*
X23036500Y-13020000D02*
X23163500Y-13020000D01*
X23760000Y-15886500D02*
X23760000Y-16013500D01*
X23696500Y-15950000D02*
X23823500Y-15950000D01*
X23970000Y-15386500D02*
X23970000Y-15513500D01*
X23906500Y-15450000D02*
X24033500Y-15450000D01*
X24400000Y-10621500D02*
X24400000Y-10748500D01*
X24336500Y-10685000D02*
X24463500Y-10685000D01*
X24400000Y-12321500D02*
X24400000Y-12448500D01*
X24336500Y-12385000D02*
X24463500Y-12385000D01*
X24900000Y-10831500D02*
X24900000Y-10958500D01*
X24836500Y-10895000D02*
X24963500Y-10895000D01*
X24900000Y-12531500D02*
X24900000Y-12658500D01*
X24836500Y-12595000D02*
X24963500Y-12595000D01*
X26200000Y-10196500D02*
X26200000Y-10323500D01*
X26136500Y-10260000D02*
X26263500Y-10260000D01*
X26200000Y-11896500D02*
X26200000Y-12023500D01*
X26136500Y-11960000D02*
X26263500Y-11960000D01*
X26700000Y-10406500D02*
X26700000Y-10533500D01*
X26636500Y-10470000D02*
X26763500Y-10470000D01*
X26700000Y-12106500D02*
X26700000Y-12233500D01*
X26636500Y-12170000D02*
X26763500Y-12170000D01*
X28000000Y-10409000D02*
X28000000Y-10536000D01*
X27936500Y-10472500D02*
X28063500Y-10472500D01*
X28000000Y-12109000D02*
X28000000Y-12236000D01*
X27936500Y-12172500D02*
X28063500Y-12172500D01*
X28500000Y-10619000D02*
X28500000Y-10746000D01*
X28436500Y-10682500D02*
X28563500Y-10682500D01*
X28500000Y-12319000D02*
X28500000Y-12446000D01*
X28436500Y-12382500D02*
X28563500Y-12382500D01*
X29800000Y-11259000D02*
X29800000Y-11386000D01*
X29736500Y-11322500D02*
X29863500Y-11322500D01*
X29800000Y-12959000D02*
X29800000Y-13086000D01*
X29736500Y-13022500D02*
X29863500Y-13022500D01*
X30300000Y-11469000D02*
X30300000Y-11596000D01*
X30236500Y-11532500D02*
X30363500Y-11532500D01*
X30300000Y-13169000D02*
X30300000Y-13296000D01*
X30236500Y-13232500D02*
X30363500Y-13232500D01*
X31600000Y-11471500D02*
X31600000Y-11598500D01*
X31536500Y-11535000D02*
X31663500Y-11535000D01*
X31600000Y-13171500D02*
X31600000Y-13298500D01*
X31536500Y-13235000D02*
X31663500Y-13235000D01*
X32100000Y-11681500D02*
X32100000Y-11808500D01*
X32036500Y-11745000D02*
X32163500Y-11745000D01*
X32100000Y-13381500D02*
X32100000Y-13508500D01*
X32036500Y-13445000D02*
X32163500Y-13445000D01*
D11*
X21953277Y-17618984D02*
X21953277Y-17418984D01*
X21953277Y-17418984D02*
X22000896Y-17418984D01*
X22000896Y-17418984D02*
X22029467Y-17428508D01*
X22029467Y-17428508D02*
X22048515Y-17447555D01*
X22048515Y-17447555D02*
X22058039Y-17466603D01*
X22058039Y-17466603D02*
X22067563Y-17504698D01*
X22067563Y-17504698D02*
X22067563Y-17533270D01*
X22067563Y-17533270D02*
X22058039Y-17571365D01*
X22058039Y-17571365D02*
X22048515Y-17590412D01*
X22048515Y-17590412D02*
X22029467Y-17609460D01*
X22029467Y-17609460D02*
X22000896Y-17618984D01*
X22000896Y-17618984D02*
X21953277Y-17618984D01*
X22153277Y-17618984D02*
X22153277Y-17485650D01*
X22153277Y-17523746D02*
X22162801Y-17504698D01*
X22162801Y-17504698D02*
X22172324Y-17495174D01*
X22172324Y-17495174D02*
X22191372Y-17485650D01*
X22191372Y-17485650D02*
X22210420Y-17485650D01*
X22277086Y-17618984D02*
X22277086Y-17485650D01*
X22277086Y-17418984D02*
X22267563Y-17428508D01*
X22267563Y-17428508D02*
X22277086Y-17438031D01*
X22277086Y-17438031D02*
X22286610Y-17428508D01*
X22286610Y-17428508D02*
X22277086Y-17418984D01*
X22277086Y-17418984D02*
X22277086Y-17438031D01*
X22400896Y-17618984D02*
X22381848Y-17609460D01*
X22381848Y-17609460D02*
X22372324Y-17590412D01*
X22372324Y-17590412D02*
X22372324Y-17418984D01*
X22505658Y-17618984D02*
X22486610Y-17609460D01*
X22486610Y-17609460D02*
X22477086Y-17590412D01*
X22477086Y-17590412D02*
X22477086Y-17418984D01*
X22734229Y-17618984D02*
X22734229Y-17418984D01*
X22734229Y-17418984D02*
X22800896Y-17561841D01*
X22800896Y-17561841D02*
X22867562Y-17418984D01*
X22867562Y-17418984D02*
X22867562Y-17618984D01*
X23048515Y-17618984D02*
X23048515Y-17514222D01*
X23048515Y-17514222D02*
X23038991Y-17495174D01*
X23038991Y-17495174D02*
X23019943Y-17485650D01*
X23019943Y-17485650D02*
X22981848Y-17485650D01*
X22981848Y-17485650D02*
X22962801Y-17495174D01*
X23048515Y-17609460D02*
X23029467Y-17618984D01*
X23029467Y-17618984D02*
X22981848Y-17618984D01*
X22981848Y-17618984D02*
X22962801Y-17609460D01*
X22962801Y-17609460D02*
X22953277Y-17590412D01*
X22953277Y-17590412D02*
X22953277Y-17571365D01*
X22953277Y-17571365D02*
X22962801Y-17552317D01*
X22962801Y-17552317D02*
X22981848Y-17542793D01*
X22981848Y-17542793D02*
X23029467Y-17542793D01*
X23029467Y-17542793D02*
X23048515Y-17533270D01*
X23143753Y-17485650D02*
X23143753Y-17685650D01*
X23143753Y-17495174D02*
X23162801Y-17485650D01*
X23162801Y-17485650D02*
X23200896Y-17485650D01*
X23200896Y-17485650D02*
X23219943Y-17495174D01*
X23219943Y-17495174D02*
X23229467Y-17504698D01*
X23229467Y-17504698D02*
X23238991Y-17523746D01*
X23238991Y-17523746D02*
X23238991Y-17580889D01*
X23238991Y-17580889D02*
X23229467Y-17599936D01*
X23229467Y-17599936D02*
X23219943Y-17609460D01*
X23219943Y-17609460D02*
X23200896Y-17618984D01*
X23200896Y-17618984D02*
X23162801Y-17618984D01*
X23162801Y-17618984D02*
X23143753Y-17609460D01*
X23324705Y-17599936D02*
X23334229Y-17609460D01*
X23334229Y-17609460D02*
X23324705Y-17618984D01*
X23324705Y-17618984D02*
X23315182Y-17609460D01*
X23315182Y-17609460D02*
X23324705Y-17599936D01*
X23324705Y-17599936D02*
X23324705Y-17618984D01*
X23324705Y-17495174D02*
X23334229Y-17504698D01*
X23334229Y-17504698D02*
X23324705Y-17514222D01*
X23324705Y-17514222D02*
X23315182Y-17504698D01*
X23315182Y-17504698D02*
X23324705Y-17495174D01*
X23324705Y-17495174D02*
X23324705Y-17514222D01*
D12*
X21662500Y-17932500D02*
X21692500Y-17962500D01*
X21692500Y-17932500D02*
X21662500Y-17962500D01*
D11*
X21991372Y-17838984D02*
X22010420Y-17838984D01*
X22010420Y-17838984D02*
X22029467Y-17848508D01*
X22029467Y-17848508D02*
X22038991Y-17858031D01*
X22038991Y-17858031D02*
X22048515Y-17877079D01*
X22048515Y-17877079D02*
X22058039Y-17915174D01*
X22058039Y-17915174D02*
X22058039Y-17962793D01*
X22058039Y-17962793D02*
X22048515Y-18000889D01*
X22048515Y-18000889D02*
X22038991Y-18019936D01*
X22038991Y-18019936D02*
X22029467Y-18029460D01*
X22029467Y-18029460D02*
X22010420Y-18038984D01*
X22010420Y-18038984D02*
X21991372Y-18038984D01*
X21991372Y-18038984D02*
X21972324Y-18029460D01*
X21972324Y-18029460D02*
X21962801Y-18019936D01*
X21962801Y-18019936D02*
X21953277Y-18000889D01*
X21953277Y-18000889D02*
X21943753Y-17962793D01*
X21943753Y-17962793D02*
X21943753Y-17915174D01*
X21943753Y-17915174D02*
X21953277Y-17877079D01*
X21953277Y-17877079D02*
X21962801Y-17858031D01*
X21962801Y-17858031D02*
X21972324Y-17848508D01*
X21972324Y-17848508D02*
X21991372Y-17838984D01*
X22143753Y-18019936D02*
X22153277Y-18029460D01*
X22153277Y-18029460D02*
X22143753Y-18038984D01*
X22143753Y-18038984D02*
X22134229Y-18029460D01*
X22134229Y-18029460D02*
X22143753Y-18019936D01*
X22143753Y-18019936D02*
X22143753Y-18038984D01*
X22219944Y-17838984D02*
X22343753Y-17838984D01*
X22343753Y-17838984D02*
X22277086Y-17915174D01*
X22277086Y-17915174D02*
X22305658Y-17915174D01*
X22305658Y-17915174D02*
X22324705Y-17924698D01*
X22324705Y-17924698D02*
X22334229Y-17934222D01*
X22334229Y-17934222D02*
X22343753Y-17953270D01*
X22343753Y-17953270D02*
X22343753Y-18000889D01*
X22343753Y-18000889D02*
X22334229Y-18019936D01*
X22334229Y-18019936D02*
X22324705Y-18029460D01*
X22324705Y-18029460D02*
X22305658Y-18038984D01*
X22305658Y-18038984D02*
X22248515Y-18038984D01*
X22248515Y-18038984D02*
X22229467Y-18029460D01*
X22229467Y-18029460D02*
X22219944Y-18019936D01*
X22467562Y-17838984D02*
X22486610Y-17838984D01*
X22486610Y-17838984D02*
X22505658Y-17848508D01*
X22505658Y-17848508D02*
X22515182Y-17858031D01*
X22515182Y-17858031D02*
X22524705Y-17877079D01*
X22524705Y-17877079D02*
X22534229Y-17915174D01*
X22534229Y-17915174D02*
X22534229Y-17962793D01*
X22534229Y-17962793D02*
X22524705Y-18000889D01*
X22524705Y-18000889D02*
X22515182Y-18019936D01*
X22515182Y-18019936D02*
X22505658Y-18029460D01*
X22505658Y-18029460D02*
X22486610Y-18038984D01*
X22486610Y-18038984D02*
X22467562Y-18038984D01*
X22467562Y-18038984D02*
X22448515Y-18029460D01*
X22448515Y-18029460D02*
X22438991Y-18019936D01*
X22438991Y-18019936D02*
X22429467Y-18000889D01*
X22429467Y-18000889D02*
X22419943Y-17962793D01*
X22419943Y-17962793D02*
X22419943Y-17915174D01*
X22419943Y-17915174D02*
X22429467Y-17877079D01*
X22429467Y-17877079D02*
X22438991Y-17858031D01*
X22438991Y-17858031D02*
X22448515Y-17848508D01*
X22448515Y-17848508D02*
X22467562Y-17838984D01*
X22658039Y-17838984D02*
X22677086Y-17838984D01*
X22677086Y-17838984D02*
X22696134Y-17848508D01*
X22696134Y-17848508D02*
X22705658Y-17858031D01*
X22705658Y-17858031D02*
X22715182Y-17877079D01*
X22715182Y-17877079D02*
X22724705Y-17915174D01*
X22724705Y-17915174D02*
X22724705Y-17962793D01*
X22724705Y-17962793D02*
X22715182Y-18000889D01*
X22715182Y-18000889D02*
X22705658Y-18019936D01*
X22705658Y-18019936D02*
X22696134Y-18029460D01*
X22696134Y-18029460D02*
X22677086Y-18038984D01*
X22677086Y-18038984D02*
X22658039Y-18038984D01*
X22658039Y-18038984D02*
X22638991Y-18029460D01*
X22638991Y-18029460D02*
X22629467Y-18019936D01*
X22629467Y-18019936D02*
X22619943Y-18000889D01*
X22619943Y-18000889D02*
X22610420Y-17962793D01*
X22610420Y-17962793D02*
X22610420Y-17915174D01*
X22610420Y-17915174D02*
X22619943Y-17877079D01*
X22619943Y-17877079D02*
X22629467Y-17858031D01*
X22629467Y-17858031D02*
X22638991Y-17848508D01*
X22638991Y-17848508D02*
X22658039Y-17838984D01*
X22810420Y-18038984D02*
X22810420Y-17905650D01*
X22810420Y-17924698D02*
X22819943Y-17915174D01*
X22819943Y-17915174D02*
X22838991Y-17905650D01*
X22838991Y-17905650D02*
X22867563Y-17905650D01*
X22867563Y-17905650D02*
X22886610Y-17915174D01*
X22886610Y-17915174D02*
X22896134Y-17934222D01*
X22896134Y-17934222D02*
X22896134Y-18038984D01*
X22896134Y-17934222D02*
X22905658Y-17915174D01*
X22905658Y-17915174D02*
X22924705Y-17905650D01*
X22924705Y-17905650D02*
X22953277Y-17905650D01*
X22953277Y-17905650D02*
X22972324Y-17915174D01*
X22972324Y-17915174D02*
X22981848Y-17934222D01*
X22981848Y-17934222D02*
X22981848Y-18038984D01*
X23077086Y-18038984D02*
X23077086Y-17905650D01*
X23077086Y-17924698D02*
X23086610Y-17915174D01*
X23086610Y-17915174D02*
X23105658Y-17905650D01*
X23105658Y-17905650D02*
X23134229Y-17905650D01*
X23134229Y-17905650D02*
X23153277Y-17915174D01*
X23153277Y-17915174D02*
X23162801Y-17934222D01*
X23162801Y-17934222D02*
X23162801Y-18038984D01*
X23162801Y-17934222D02*
X23172324Y-17915174D01*
X23172324Y-17915174D02*
X23191372Y-17905650D01*
X23191372Y-17905650D02*
X23219943Y-17905650D01*
X23219943Y-17905650D02*
X23238991Y-17915174D01*
X23238991Y-17915174D02*
X23248515Y-17934222D01*
X23248515Y-17934222D02*
X23248515Y-18038984D01*
X23638991Y-17829460D02*
X23467563Y-18086603D01*
X23896134Y-17838984D02*
X23915182Y-17838984D01*
X23915182Y-17838984D02*
X23934229Y-17848508D01*
X23934229Y-17848508D02*
X23943753Y-17858031D01*
X23943753Y-17858031D02*
X23953277Y-17877079D01*
X23953277Y-17877079D02*
X23962801Y-17915174D01*
X23962801Y-17915174D02*
X23962801Y-17962793D01*
X23962801Y-17962793D02*
X23953277Y-18000889D01*
X23953277Y-18000889D02*
X23943753Y-18019936D01*
X23943753Y-18019936D02*
X23934229Y-18029460D01*
X23934229Y-18029460D02*
X23915182Y-18038984D01*
X23915182Y-18038984D02*
X23896134Y-18038984D01*
X23896134Y-18038984D02*
X23877086Y-18029460D01*
X23877086Y-18029460D02*
X23867563Y-18019936D01*
X23867563Y-18019936D02*
X23858039Y-18000889D01*
X23858039Y-18000889D02*
X23848515Y-17962793D01*
X23848515Y-17962793D02*
X23848515Y-17915174D01*
X23848515Y-17915174D02*
X23858039Y-17877079D01*
X23858039Y-17877079D02*
X23867563Y-17858031D01*
X23867563Y-17858031D02*
X23877086Y-17848508D01*
X23877086Y-17848508D02*
X23896134Y-17838984D01*
X24048515Y-18019936D02*
X24058039Y-18029460D01*
X24058039Y-18029460D02*
X24048515Y-18038984D01*
X24048515Y-18038984D02*
X24038991Y-18029460D01*
X24038991Y-18029460D02*
X24048515Y-18019936D01*
X24048515Y-18019936D02*
X24048515Y-18038984D01*
X24181848Y-17838984D02*
X24200896Y-17838984D01*
X24200896Y-17838984D02*
X24219944Y-17848508D01*
X24219944Y-17848508D02*
X24229467Y-17858031D01*
X24229467Y-17858031D02*
X24238991Y-17877079D01*
X24238991Y-17877079D02*
X24248515Y-17915174D01*
X24248515Y-17915174D02*
X24248515Y-17962793D01*
X24248515Y-17962793D02*
X24238991Y-18000889D01*
X24238991Y-18000889D02*
X24229467Y-18019936D01*
X24229467Y-18019936D02*
X24219944Y-18029460D01*
X24219944Y-18029460D02*
X24200896Y-18038984D01*
X24200896Y-18038984D02*
X24181848Y-18038984D01*
X24181848Y-18038984D02*
X24162801Y-18029460D01*
X24162801Y-18029460D02*
X24153277Y-18019936D01*
X24153277Y-18019936D02*
X24143753Y-18000889D01*
X24143753Y-18000889D02*
X24134229Y-17962793D01*
X24134229Y-17962793D02*
X24134229Y-17915174D01*
X24134229Y-17915174D02*
X24143753Y-17877079D01*
X24143753Y-17877079D02*
X24153277Y-17858031D01*
X24153277Y-17858031D02*
X24162801Y-17848508D01*
X24162801Y-17848508D02*
X24181848Y-17838984D01*
X24438991Y-18038984D02*
X24324706Y-18038984D01*
X24381848Y-18038984D02*
X24381848Y-17838984D01*
X24381848Y-17838984D02*
X24362801Y-17867555D01*
X24362801Y-17867555D02*
X24343753Y-17886603D01*
X24343753Y-17886603D02*
X24324706Y-17896127D01*
X24629467Y-18038984D02*
X24515182Y-18038984D01*
X24572325Y-18038984D02*
X24572325Y-17838984D01*
X24572325Y-17838984D02*
X24553277Y-17867555D01*
X24553277Y-17867555D02*
X24534229Y-17886603D01*
X24534229Y-17886603D02*
X24515182Y-17896127D01*
X24743753Y-17924698D02*
X24724706Y-17915174D01*
X24724706Y-17915174D02*
X24715182Y-17905650D01*
X24715182Y-17905650D02*
X24705658Y-17886603D01*
X24705658Y-17886603D02*
X24705658Y-17877079D01*
X24705658Y-17877079D02*
X24715182Y-17858031D01*
X24715182Y-17858031D02*
X24724706Y-17848508D01*
X24724706Y-17848508D02*
X24743753Y-17838984D01*
X24743753Y-17838984D02*
X24781848Y-17838984D01*
X24781848Y-17838984D02*
X24800896Y-17848508D01*
X24800896Y-17848508D02*
X24810420Y-17858031D01*
X24810420Y-17858031D02*
X24819944Y-17877079D01*
X24819944Y-17877079D02*
X24819944Y-17886603D01*
X24819944Y-17886603D02*
X24810420Y-17905650D01*
X24810420Y-17905650D02*
X24800896Y-17915174D01*
X24800896Y-17915174D02*
X24781848Y-17924698D01*
X24781848Y-17924698D02*
X24743753Y-17924698D01*
X24743753Y-17924698D02*
X24724706Y-17934222D01*
X24724706Y-17934222D02*
X24715182Y-17943746D01*
X24715182Y-17943746D02*
X24705658Y-17962793D01*
X24705658Y-17962793D02*
X24705658Y-18000889D01*
X24705658Y-18000889D02*
X24715182Y-18019936D01*
X24715182Y-18019936D02*
X24724706Y-18029460D01*
X24724706Y-18029460D02*
X24743753Y-18038984D01*
X24743753Y-18038984D02*
X24781848Y-18038984D01*
X24781848Y-18038984D02*
X24800896Y-18029460D01*
X24800896Y-18029460D02*
X24810420Y-18019936D01*
X24810420Y-18019936D02*
X24819944Y-18000889D01*
X24819944Y-18000889D02*
X24819944Y-17962793D01*
X24819944Y-17962793D02*
X24810420Y-17943746D01*
X24810420Y-17943746D02*
X24800896Y-17934222D01*
X24800896Y-17934222D02*
X24781848Y-17924698D01*
X24896134Y-17838984D02*
X24896134Y-17877079D01*
X24972325Y-17838984D02*
X24972325Y-17877079D01*
X25267563Y-18115174D02*
X25258039Y-18105650D01*
X25258039Y-18105650D02*
X25238991Y-18077079D01*
X25238991Y-18077079D02*
X25229468Y-18058031D01*
X25229468Y-18058031D02*
X25219944Y-18029460D01*
X25219944Y-18029460D02*
X25210420Y-17981841D01*
X25210420Y-17981841D02*
X25210420Y-17943746D01*
X25210420Y-17943746D02*
X25219944Y-17896127D01*
X25219944Y-17896127D02*
X25229468Y-17867555D01*
X25229468Y-17867555D02*
X25238991Y-17848508D01*
X25238991Y-17848508D02*
X25258039Y-17819936D01*
X25258039Y-17819936D02*
X25267563Y-17810412D01*
X25324706Y-17838984D02*
X25448515Y-17838984D01*
X25448515Y-17838984D02*
X25381848Y-17915174D01*
X25381848Y-17915174D02*
X25410420Y-17915174D01*
X25410420Y-17915174D02*
X25429468Y-17924698D01*
X25429468Y-17924698D02*
X25438991Y-17934222D01*
X25438991Y-17934222D02*
X25448515Y-17953270D01*
X25448515Y-17953270D02*
X25448515Y-18000889D01*
X25448515Y-18000889D02*
X25438991Y-18019936D01*
X25438991Y-18019936D02*
X25429468Y-18029460D01*
X25429468Y-18029460D02*
X25410420Y-18038984D01*
X25410420Y-18038984D02*
X25353277Y-18038984D01*
X25353277Y-18038984D02*
X25334229Y-18029460D01*
X25334229Y-18029460D02*
X25324706Y-18019936D01*
X25686610Y-18038984D02*
X25686610Y-17838984D01*
X25772325Y-18038984D02*
X25772325Y-17934222D01*
X25772325Y-17934222D02*
X25762801Y-17915174D01*
X25762801Y-17915174D02*
X25743753Y-17905650D01*
X25743753Y-17905650D02*
X25715182Y-17905650D01*
X25715182Y-17905650D02*
X25696134Y-17915174D01*
X25696134Y-17915174D02*
X25686610Y-17924698D01*
X25896134Y-18038984D02*
X25877087Y-18029460D01*
X25877087Y-18029460D02*
X25867563Y-18019936D01*
X25867563Y-18019936D02*
X25858039Y-18000889D01*
X25858039Y-18000889D02*
X25858039Y-17943746D01*
X25858039Y-17943746D02*
X25867563Y-17924698D01*
X25867563Y-17924698D02*
X25877087Y-17915174D01*
X25877087Y-17915174D02*
X25896134Y-17905650D01*
X25896134Y-17905650D02*
X25924706Y-17905650D01*
X25924706Y-17905650D02*
X25943753Y-17915174D01*
X25943753Y-17915174D02*
X25953277Y-17924698D01*
X25953277Y-17924698D02*
X25962801Y-17943746D01*
X25962801Y-17943746D02*
X25962801Y-18000889D01*
X25962801Y-18000889D02*
X25953277Y-18019936D01*
X25953277Y-18019936D02*
X25943753Y-18029460D01*
X25943753Y-18029460D02*
X25924706Y-18038984D01*
X25924706Y-18038984D02*
X25896134Y-18038984D01*
X26077087Y-18038984D02*
X26058039Y-18029460D01*
X26058039Y-18029460D02*
X26048515Y-18010412D01*
X26048515Y-18010412D02*
X26048515Y-17838984D01*
X26229468Y-18029460D02*
X26210420Y-18038984D01*
X26210420Y-18038984D02*
X26172325Y-18038984D01*
X26172325Y-18038984D02*
X26153277Y-18029460D01*
X26153277Y-18029460D02*
X26143753Y-18010412D01*
X26143753Y-18010412D02*
X26143753Y-17934222D01*
X26143753Y-17934222D02*
X26153277Y-17915174D01*
X26153277Y-17915174D02*
X26172325Y-17905650D01*
X26172325Y-17905650D02*
X26210420Y-17905650D01*
X26210420Y-17905650D02*
X26229468Y-17915174D01*
X26229468Y-17915174D02*
X26238991Y-17934222D01*
X26238991Y-17934222D02*
X26238991Y-17953270D01*
X26238991Y-17953270D02*
X26143753Y-17972317D01*
X26315182Y-18029460D02*
X26334230Y-18038984D01*
X26334230Y-18038984D02*
X26372325Y-18038984D01*
X26372325Y-18038984D02*
X26391372Y-18029460D01*
X26391372Y-18029460D02*
X26400896Y-18010412D01*
X26400896Y-18010412D02*
X26400896Y-18000889D01*
X26400896Y-18000889D02*
X26391372Y-17981841D01*
X26391372Y-17981841D02*
X26372325Y-17972317D01*
X26372325Y-17972317D02*
X26343753Y-17972317D01*
X26343753Y-17972317D02*
X26324706Y-17962793D01*
X26324706Y-17962793D02*
X26315182Y-17943746D01*
X26315182Y-17943746D02*
X26315182Y-17934222D01*
X26315182Y-17934222D02*
X26324706Y-17915174D01*
X26324706Y-17915174D02*
X26343753Y-17905650D01*
X26343753Y-17905650D02*
X26372325Y-17905650D01*
X26372325Y-17905650D02*
X26391372Y-17915174D01*
X26467563Y-18115174D02*
X26477087Y-18105650D01*
X26477087Y-18105650D02*
X26496134Y-18077079D01*
X26496134Y-18077079D02*
X26505658Y-18058031D01*
X26505658Y-18058031D02*
X26515182Y-18029460D01*
X26515182Y-18029460D02*
X26524706Y-17981841D01*
X26524706Y-17981841D02*
X26524706Y-17943746D01*
X26524706Y-17943746D02*
X26515182Y-17896127D01*
X26515182Y-17896127D02*
X26505658Y-17867555D01*
X26505658Y-17867555D02*
X26496134Y-17848508D01*
X26496134Y-17848508D02*
X26477087Y-17819936D01*
X26477087Y-17819936D02*
X26467563Y-17810412D01*
D13*
X21692500Y-18211500D02*
G75*
G03*
X21692500Y-18211500I-20000J0D01*
G01*
D11*
X21991372Y-18102984D02*
X22010420Y-18102984D01*
X22010420Y-18102984D02*
X22029467Y-18112508D01*
X22029467Y-18112508D02*
X22038991Y-18122031D01*
X22038991Y-18122031D02*
X22048515Y-18141079D01*
X22048515Y-18141079D02*
X22058039Y-18179174D01*
X22058039Y-18179174D02*
X22058039Y-18226793D01*
X22058039Y-18226793D02*
X22048515Y-18264889D01*
X22048515Y-18264889D02*
X22038991Y-18283936D01*
X22038991Y-18283936D02*
X22029467Y-18293460D01*
X22029467Y-18293460D02*
X22010420Y-18302984D01*
X22010420Y-18302984D02*
X21991372Y-18302984D01*
X21991372Y-18302984D02*
X21972324Y-18293460D01*
X21972324Y-18293460D02*
X21962801Y-18283936D01*
X21962801Y-18283936D02*
X21953277Y-18264889D01*
X21953277Y-18264889D02*
X21943753Y-18226793D01*
X21943753Y-18226793D02*
X21943753Y-18179174D01*
X21943753Y-18179174D02*
X21953277Y-18141079D01*
X21953277Y-18141079D02*
X21962801Y-18122031D01*
X21962801Y-18122031D02*
X21972324Y-18112508D01*
X21972324Y-18112508D02*
X21991372Y-18102984D01*
X22143753Y-18283936D02*
X22153277Y-18293460D01*
X22153277Y-18293460D02*
X22143753Y-18302984D01*
X22143753Y-18302984D02*
X22134229Y-18293460D01*
X22134229Y-18293460D02*
X22143753Y-18283936D01*
X22143753Y-18283936D02*
X22143753Y-18302984D01*
X22324705Y-18169650D02*
X22324705Y-18302984D01*
X22277086Y-18093460D02*
X22229467Y-18236317D01*
X22229467Y-18236317D02*
X22353277Y-18236317D01*
X22467562Y-18102984D02*
X22486610Y-18102984D01*
X22486610Y-18102984D02*
X22505658Y-18112508D01*
X22505658Y-18112508D02*
X22515182Y-18122031D01*
X22515182Y-18122031D02*
X22524705Y-18141079D01*
X22524705Y-18141079D02*
X22534229Y-18179174D01*
X22534229Y-18179174D02*
X22534229Y-18226793D01*
X22534229Y-18226793D02*
X22524705Y-18264889D01*
X22524705Y-18264889D02*
X22515182Y-18283936D01*
X22515182Y-18283936D02*
X22505658Y-18293460D01*
X22505658Y-18293460D02*
X22486610Y-18302984D01*
X22486610Y-18302984D02*
X22467562Y-18302984D01*
X22467562Y-18302984D02*
X22448515Y-18293460D01*
X22448515Y-18293460D02*
X22438991Y-18283936D01*
X22438991Y-18283936D02*
X22429467Y-18264889D01*
X22429467Y-18264889D02*
X22419943Y-18226793D01*
X22419943Y-18226793D02*
X22419943Y-18179174D01*
X22419943Y-18179174D02*
X22429467Y-18141079D01*
X22429467Y-18141079D02*
X22438991Y-18122031D01*
X22438991Y-18122031D02*
X22448515Y-18112508D01*
X22448515Y-18112508D02*
X22467562Y-18102984D01*
X22658039Y-18102984D02*
X22677086Y-18102984D01*
X22677086Y-18102984D02*
X22696134Y-18112508D01*
X22696134Y-18112508D02*
X22705658Y-18122031D01*
X22705658Y-18122031D02*
X22715182Y-18141079D01*
X22715182Y-18141079D02*
X22724705Y-18179174D01*
X22724705Y-18179174D02*
X22724705Y-18226793D01*
X22724705Y-18226793D02*
X22715182Y-18264889D01*
X22715182Y-18264889D02*
X22705658Y-18283936D01*
X22705658Y-18283936D02*
X22696134Y-18293460D01*
X22696134Y-18293460D02*
X22677086Y-18302984D01*
X22677086Y-18302984D02*
X22658039Y-18302984D01*
X22658039Y-18302984D02*
X22638991Y-18293460D01*
X22638991Y-18293460D02*
X22629467Y-18283936D01*
X22629467Y-18283936D02*
X22619943Y-18264889D01*
X22619943Y-18264889D02*
X22610420Y-18226793D01*
X22610420Y-18226793D02*
X22610420Y-18179174D01*
X22610420Y-18179174D02*
X22619943Y-18141079D01*
X22619943Y-18141079D02*
X22629467Y-18122031D01*
X22629467Y-18122031D02*
X22638991Y-18112508D01*
X22638991Y-18112508D02*
X22658039Y-18102984D01*
X22810420Y-18302984D02*
X22810420Y-18169650D01*
X22810420Y-18188698D02*
X22819943Y-18179174D01*
X22819943Y-18179174D02*
X22838991Y-18169650D01*
X22838991Y-18169650D02*
X22867563Y-18169650D01*
X22867563Y-18169650D02*
X22886610Y-18179174D01*
X22886610Y-18179174D02*
X22896134Y-18198222D01*
X22896134Y-18198222D02*
X22896134Y-18302984D01*
X22896134Y-18198222D02*
X22905658Y-18179174D01*
X22905658Y-18179174D02*
X22924705Y-18169650D01*
X22924705Y-18169650D02*
X22953277Y-18169650D01*
X22953277Y-18169650D02*
X22972324Y-18179174D01*
X22972324Y-18179174D02*
X22981848Y-18198222D01*
X22981848Y-18198222D02*
X22981848Y-18302984D01*
X23077086Y-18302984D02*
X23077086Y-18169650D01*
X23077086Y-18188698D02*
X23086610Y-18179174D01*
X23086610Y-18179174D02*
X23105658Y-18169650D01*
X23105658Y-18169650D02*
X23134229Y-18169650D01*
X23134229Y-18169650D02*
X23153277Y-18179174D01*
X23153277Y-18179174D02*
X23162801Y-18198222D01*
X23162801Y-18198222D02*
X23162801Y-18302984D01*
X23162801Y-18198222D02*
X23172324Y-18179174D01*
X23172324Y-18179174D02*
X23191372Y-18169650D01*
X23191372Y-18169650D02*
X23219943Y-18169650D01*
X23219943Y-18169650D02*
X23238991Y-18179174D01*
X23238991Y-18179174D02*
X23248515Y-18198222D01*
X23248515Y-18198222D02*
X23248515Y-18302984D01*
X23638991Y-18093460D02*
X23467563Y-18350603D01*
X23896134Y-18102984D02*
X23915182Y-18102984D01*
X23915182Y-18102984D02*
X23934229Y-18112508D01*
X23934229Y-18112508D02*
X23943753Y-18122031D01*
X23943753Y-18122031D02*
X23953277Y-18141079D01*
X23953277Y-18141079D02*
X23962801Y-18179174D01*
X23962801Y-18179174D02*
X23962801Y-18226793D01*
X23962801Y-18226793D02*
X23953277Y-18264889D01*
X23953277Y-18264889D02*
X23943753Y-18283936D01*
X23943753Y-18283936D02*
X23934229Y-18293460D01*
X23934229Y-18293460D02*
X23915182Y-18302984D01*
X23915182Y-18302984D02*
X23896134Y-18302984D01*
X23896134Y-18302984D02*
X23877086Y-18293460D01*
X23877086Y-18293460D02*
X23867563Y-18283936D01*
X23867563Y-18283936D02*
X23858039Y-18264889D01*
X23858039Y-18264889D02*
X23848515Y-18226793D01*
X23848515Y-18226793D02*
X23848515Y-18179174D01*
X23848515Y-18179174D02*
X23858039Y-18141079D01*
X23858039Y-18141079D02*
X23867563Y-18122031D01*
X23867563Y-18122031D02*
X23877086Y-18112508D01*
X23877086Y-18112508D02*
X23896134Y-18102984D01*
X24048515Y-18283936D02*
X24058039Y-18293460D01*
X24058039Y-18293460D02*
X24048515Y-18302984D01*
X24048515Y-18302984D02*
X24038991Y-18293460D01*
X24038991Y-18293460D02*
X24048515Y-18283936D01*
X24048515Y-18283936D02*
X24048515Y-18302984D01*
X24181848Y-18102984D02*
X24200896Y-18102984D01*
X24200896Y-18102984D02*
X24219944Y-18112508D01*
X24219944Y-18112508D02*
X24229467Y-18122031D01*
X24229467Y-18122031D02*
X24238991Y-18141079D01*
X24238991Y-18141079D02*
X24248515Y-18179174D01*
X24248515Y-18179174D02*
X24248515Y-18226793D01*
X24248515Y-18226793D02*
X24238991Y-18264889D01*
X24238991Y-18264889D02*
X24229467Y-18283936D01*
X24229467Y-18283936D02*
X24219944Y-18293460D01*
X24219944Y-18293460D02*
X24200896Y-18302984D01*
X24200896Y-18302984D02*
X24181848Y-18302984D01*
X24181848Y-18302984D02*
X24162801Y-18293460D01*
X24162801Y-18293460D02*
X24153277Y-18283936D01*
X24153277Y-18283936D02*
X24143753Y-18264889D01*
X24143753Y-18264889D02*
X24134229Y-18226793D01*
X24134229Y-18226793D02*
X24134229Y-18179174D01*
X24134229Y-18179174D02*
X24143753Y-18141079D01*
X24143753Y-18141079D02*
X24153277Y-18122031D01*
X24153277Y-18122031D02*
X24162801Y-18112508D01*
X24162801Y-18112508D02*
X24181848Y-18102984D01*
X24438991Y-18302984D02*
X24324706Y-18302984D01*
X24381848Y-18302984D02*
X24381848Y-18102984D01*
X24381848Y-18102984D02*
X24362801Y-18131555D01*
X24362801Y-18131555D02*
X24343753Y-18150603D01*
X24343753Y-18150603D02*
X24324706Y-18160127D01*
X24619944Y-18102984D02*
X24524706Y-18102984D01*
X24524706Y-18102984D02*
X24515182Y-18198222D01*
X24515182Y-18198222D02*
X24524706Y-18188698D01*
X24524706Y-18188698D02*
X24543753Y-18179174D01*
X24543753Y-18179174D02*
X24591372Y-18179174D01*
X24591372Y-18179174D02*
X24610420Y-18188698D01*
X24610420Y-18188698D02*
X24619944Y-18198222D01*
X24619944Y-18198222D02*
X24629467Y-18217270D01*
X24629467Y-18217270D02*
X24629467Y-18264889D01*
X24629467Y-18264889D02*
X24619944Y-18283936D01*
X24619944Y-18283936D02*
X24610420Y-18293460D01*
X24610420Y-18293460D02*
X24591372Y-18302984D01*
X24591372Y-18302984D02*
X24543753Y-18302984D01*
X24543753Y-18302984D02*
X24524706Y-18293460D01*
X24524706Y-18293460D02*
X24515182Y-18283936D01*
X24696134Y-18102984D02*
X24829467Y-18102984D01*
X24829467Y-18102984D02*
X24743753Y-18302984D01*
X24896134Y-18102984D02*
X24896134Y-18141079D01*
X24972325Y-18102984D02*
X24972325Y-18141079D01*
X25267563Y-18379174D02*
X25258039Y-18369650D01*
X25258039Y-18369650D02*
X25238991Y-18341079D01*
X25238991Y-18341079D02*
X25229468Y-18322031D01*
X25229468Y-18322031D02*
X25219944Y-18293460D01*
X25219944Y-18293460D02*
X25210420Y-18245841D01*
X25210420Y-18245841D02*
X25210420Y-18207746D01*
X25210420Y-18207746D02*
X25219944Y-18160127D01*
X25219944Y-18160127D02*
X25229468Y-18131555D01*
X25229468Y-18131555D02*
X25238991Y-18112508D01*
X25238991Y-18112508D02*
X25258039Y-18083936D01*
X25258039Y-18083936D02*
X25267563Y-18074412D01*
X25334229Y-18122031D02*
X25343753Y-18112508D01*
X25343753Y-18112508D02*
X25362801Y-18102984D01*
X25362801Y-18102984D02*
X25410420Y-18102984D01*
X25410420Y-18102984D02*
X25429468Y-18112508D01*
X25429468Y-18112508D02*
X25438991Y-18122031D01*
X25438991Y-18122031D02*
X25448515Y-18141079D01*
X25448515Y-18141079D02*
X25448515Y-18160127D01*
X25448515Y-18160127D02*
X25438991Y-18188698D01*
X25438991Y-18188698D02*
X25324706Y-18302984D01*
X25324706Y-18302984D02*
X25448515Y-18302984D01*
X25686610Y-18302984D02*
X25686610Y-18102984D01*
X25772325Y-18302984D02*
X25772325Y-18198222D01*
X25772325Y-18198222D02*
X25762801Y-18179174D01*
X25762801Y-18179174D02*
X25743753Y-18169650D01*
X25743753Y-18169650D02*
X25715182Y-18169650D01*
X25715182Y-18169650D02*
X25696134Y-18179174D01*
X25696134Y-18179174D02*
X25686610Y-18188698D01*
X25896134Y-18302984D02*
X25877087Y-18293460D01*
X25877087Y-18293460D02*
X25867563Y-18283936D01*
X25867563Y-18283936D02*
X25858039Y-18264889D01*
X25858039Y-18264889D02*
X25858039Y-18207746D01*
X25858039Y-18207746D02*
X25867563Y-18188698D01*
X25867563Y-18188698D02*
X25877087Y-18179174D01*
X25877087Y-18179174D02*
X25896134Y-18169650D01*
X25896134Y-18169650D02*
X25924706Y-18169650D01*
X25924706Y-18169650D02*
X25943753Y-18179174D01*
X25943753Y-18179174D02*
X25953277Y-18188698D01*
X25953277Y-18188698D02*
X25962801Y-18207746D01*
X25962801Y-18207746D02*
X25962801Y-18264889D01*
X25962801Y-18264889D02*
X25953277Y-18283936D01*
X25953277Y-18283936D02*
X25943753Y-18293460D01*
X25943753Y-18293460D02*
X25924706Y-18302984D01*
X25924706Y-18302984D02*
X25896134Y-18302984D01*
X26077087Y-18302984D02*
X26058039Y-18293460D01*
X26058039Y-18293460D02*
X26048515Y-18274412D01*
X26048515Y-18274412D02*
X26048515Y-18102984D01*
X26229468Y-18293460D02*
X26210420Y-18302984D01*
X26210420Y-18302984D02*
X26172325Y-18302984D01*
X26172325Y-18302984D02*
X26153277Y-18293460D01*
X26153277Y-18293460D02*
X26143753Y-18274412D01*
X26143753Y-18274412D02*
X26143753Y-18198222D01*
X26143753Y-18198222D02*
X26153277Y-18179174D01*
X26153277Y-18179174D02*
X26172325Y-18169650D01*
X26172325Y-18169650D02*
X26210420Y-18169650D01*
X26210420Y-18169650D02*
X26229468Y-18179174D01*
X26229468Y-18179174D02*
X26238991Y-18198222D01*
X26238991Y-18198222D02*
X26238991Y-18217270D01*
X26238991Y-18217270D02*
X26143753Y-18236317D01*
X26315182Y-18293460D02*
X26334230Y-18302984D01*
X26334230Y-18302984D02*
X26372325Y-18302984D01*
X26372325Y-18302984D02*
X26391372Y-18293460D01*
X26391372Y-18293460D02*
X26400896Y-18274412D01*
X26400896Y-18274412D02*
X26400896Y-18264889D01*
X26400896Y-18264889D02*
X26391372Y-18245841D01*
X26391372Y-18245841D02*
X26372325Y-18236317D01*
X26372325Y-18236317D02*
X26343753Y-18236317D01*
X26343753Y-18236317D02*
X26324706Y-18226793D01*
X26324706Y-18226793D02*
X26315182Y-18207746D01*
X26315182Y-18207746D02*
X26315182Y-18198222D01*
X26315182Y-18198222D02*
X26324706Y-18179174D01*
X26324706Y-18179174D02*
X26343753Y-18169650D01*
X26343753Y-18169650D02*
X26372325Y-18169650D01*
X26372325Y-18169650D02*
X26391372Y-18179174D01*
X26467563Y-18379174D02*
X26477087Y-18369650D01*
X26477087Y-18369650D02*
X26496134Y-18341079D01*
X26496134Y-18341079D02*
X26505658Y-18322031D01*
X26505658Y-18322031D02*
X26515182Y-18293460D01*
X26515182Y-18293460D02*
X26524706Y-18245841D01*
X26524706Y-18245841D02*
X26524706Y-18207746D01*
X26524706Y-18207746D02*
X26515182Y-18160127D01*
X26515182Y-18160127D02*
X26505658Y-18131555D01*
X26505658Y-18131555D02*
X26496134Y-18112508D01*
X26496134Y-18112508D02*
X26477087Y-18083936D01*
X26477087Y-18083936D02*
X26467563Y-18074412D01*
D14*
X21629000Y-18412000D02*
X21629000Y-18539000D01*
X21565500Y-18475500D02*
X21692500Y-18475500D01*
D11*
X22058039Y-18566984D02*
X21943753Y-18566984D01*
X22000896Y-18566984D02*
X22000896Y-18366984D01*
X22000896Y-18366984D02*
X21981848Y-18395555D01*
X21981848Y-18395555D02*
X21962801Y-18414603D01*
X21962801Y-18414603D02*
X21943753Y-18424127D01*
X22143753Y-18547936D02*
X22153277Y-18557460D01*
X22153277Y-18557460D02*
X22143753Y-18566984D01*
X22143753Y-18566984D02*
X22134229Y-18557460D01*
X22134229Y-18557460D02*
X22143753Y-18547936D01*
X22143753Y-18547936D02*
X22143753Y-18566984D01*
X22229467Y-18386031D02*
X22238991Y-18376508D01*
X22238991Y-18376508D02*
X22258039Y-18366984D01*
X22258039Y-18366984D02*
X22305658Y-18366984D01*
X22305658Y-18366984D02*
X22324705Y-18376508D01*
X22324705Y-18376508D02*
X22334229Y-18386031D01*
X22334229Y-18386031D02*
X22343753Y-18405079D01*
X22343753Y-18405079D02*
X22343753Y-18424127D01*
X22343753Y-18424127D02*
X22334229Y-18452698D01*
X22334229Y-18452698D02*
X22219944Y-18566984D01*
X22219944Y-18566984D02*
X22343753Y-18566984D01*
X22410420Y-18366984D02*
X22543753Y-18366984D01*
X22543753Y-18366984D02*
X22458039Y-18566984D01*
X22658039Y-18366984D02*
X22677086Y-18366984D01*
X22677086Y-18366984D02*
X22696134Y-18376508D01*
X22696134Y-18376508D02*
X22705658Y-18386031D01*
X22705658Y-18386031D02*
X22715182Y-18405079D01*
X22715182Y-18405079D02*
X22724705Y-18443174D01*
X22724705Y-18443174D02*
X22724705Y-18490793D01*
X22724705Y-18490793D02*
X22715182Y-18528889D01*
X22715182Y-18528889D02*
X22705658Y-18547936D01*
X22705658Y-18547936D02*
X22696134Y-18557460D01*
X22696134Y-18557460D02*
X22677086Y-18566984D01*
X22677086Y-18566984D02*
X22658039Y-18566984D01*
X22658039Y-18566984D02*
X22638991Y-18557460D01*
X22638991Y-18557460D02*
X22629467Y-18547936D01*
X22629467Y-18547936D02*
X22619943Y-18528889D01*
X22619943Y-18528889D02*
X22610420Y-18490793D01*
X22610420Y-18490793D02*
X22610420Y-18443174D01*
X22610420Y-18443174D02*
X22619943Y-18405079D01*
X22619943Y-18405079D02*
X22629467Y-18386031D01*
X22629467Y-18386031D02*
X22638991Y-18376508D01*
X22638991Y-18376508D02*
X22658039Y-18366984D01*
X22810420Y-18566984D02*
X22810420Y-18433650D01*
X22810420Y-18452698D02*
X22819943Y-18443174D01*
X22819943Y-18443174D02*
X22838991Y-18433650D01*
X22838991Y-18433650D02*
X22867563Y-18433650D01*
X22867563Y-18433650D02*
X22886610Y-18443174D01*
X22886610Y-18443174D02*
X22896134Y-18462222D01*
X22896134Y-18462222D02*
X22896134Y-18566984D01*
X22896134Y-18462222D02*
X22905658Y-18443174D01*
X22905658Y-18443174D02*
X22924705Y-18433650D01*
X22924705Y-18433650D02*
X22953277Y-18433650D01*
X22953277Y-18433650D02*
X22972324Y-18443174D01*
X22972324Y-18443174D02*
X22981848Y-18462222D01*
X22981848Y-18462222D02*
X22981848Y-18566984D01*
X23077086Y-18566984D02*
X23077086Y-18433650D01*
X23077086Y-18452698D02*
X23086610Y-18443174D01*
X23086610Y-18443174D02*
X23105658Y-18433650D01*
X23105658Y-18433650D02*
X23134229Y-18433650D01*
X23134229Y-18433650D02*
X23153277Y-18443174D01*
X23153277Y-18443174D02*
X23162801Y-18462222D01*
X23162801Y-18462222D02*
X23162801Y-18566984D01*
X23162801Y-18462222D02*
X23172324Y-18443174D01*
X23172324Y-18443174D02*
X23191372Y-18433650D01*
X23191372Y-18433650D02*
X23219943Y-18433650D01*
X23219943Y-18433650D02*
X23238991Y-18443174D01*
X23238991Y-18443174D02*
X23248515Y-18462222D01*
X23248515Y-18462222D02*
X23248515Y-18566984D01*
X23638991Y-18357460D02*
X23467563Y-18614603D01*
X23896134Y-18366984D02*
X23915182Y-18366984D01*
X23915182Y-18366984D02*
X23934229Y-18376508D01*
X23934229Y-18376508D02*
X23943753Y-18386031D01*
X23943753Y-18386031D02*
X23953277Y-18405079D01*
X23953277Y-18405079D02*
X23962801Y-18443174D01*
X23962801Y-18443174D02*
X23962801Y-18490793D01*
X23962801Y-18490793D02*
X23953277Y-18528889D01*
X23953277Y-18528889D02*
X23943753Y-18547936D01*
X23943753Y-18547936D02*
X23934229Y-18557460D01*
X23934229Y-18557460D02*
X23915182Y-18566984D01*
X23915182Y-18566984D02*
X23896134Y-18566984D01*
X23896134Y-18566984D02*
X23877086Y-18557460D01*
X23877086Y-18557460D02*
X23867563Y-18547936D01*
X23867563Y-18547936D02*
X23858039Y-18528889D01*
X23858039Y-18528889D02*
X23848515Y-18490793D01*
X23848515Y-18490793D02*
X23848515Y-18443174D01*
X23848515Y-18443174D02*
X23858039Y-18405079D01*
X23858039Y-18405079D02*
X23867563Y-18386031D01*
X23867563Y-18386031D02*
X23877086Y-18376508D01*
X23877086Y-18376508D02*
X23896134Y-18366984D01*
X24048515Y-18547936D02*
X24058039Y-18557460D01*
X24058039Y-18557460D02*
X24048515Y-18566984D01*
X24048515Y-18566984D02*
X24038991Y-18557460D01*
X24038991Y-18557460D02*
X24048515Y-18547936D01*
X24048515Y-18547936D02*
X24048515Y-18566984D01*
X24181848Y-18366984D02*
X24200896Y-18366984D01*
X24200896Y-18366984D02*
X24219944Y-18376508D01*
X24219944Y-18376508D02*
X24229467Y-18386031D01*
X24229467Y-18386031D02*
X24238991Y-18405079D01*
X24238991Y-18405079D02*
X24248515Y-18443174D01*
X24248515Y-18443174D02*
X24248515Y-18490793D01*
X24248515Y-18490793D02*
X24238991Y-18528889D01*
X24238991Y-18528889D02*
X24229467Y-18547936D01*
X24229467Y-18547936D02*
X24219944Y-18557460D01*
X24219944Y-18557460D02*
X24200896Y-18566984D01*
X24200896Y-18566984D02*
X24181848Y-18566984D01*
X24181848Y-18566984D02*
X24162801Y-18557460D01*
X24162801Y-18557460D02*
X24153277Y-18547936D01*
X24153277Y-18547936D02*
X24143753Y-18528889D01*
X24143753Y-18528889D02*
X24134229Y-18490793D01*
X24134229Y-18490793D02*
X24134229Y-18443174D01*
X24134229Y-18443174D02*
X24143753Y-18405079D01*
X24143753Y-18405079D02*
X24153277Y-18386031D01*
X24153277Y-18386031D02*
X24162801Y-18376508D01*
X24162801Y-18376508D02*
X24181848Y-18366984D01*
X24429467Y-18366984D02*
X24334229Y-18366984D01*
X24334229Y-18366984D02*
X24324706Y-18462222D01*
X24324706Y-18462222D02*
X24334229Y-18452698D01*
X24334229Y-18452698D02*
X24353277Y-18443174D01*
X24353277Y-18443174D02*
X24400896Y-18443174D01*
X24400896Y-18443174D02*
X24419944Y-18452698D01*
X24419944Y-18452698D02*
X24429467Y-18462222D01*
X24429467Y-18462222D02*
X24438991Y-18481270D01*
X24438991Y-18481270D02*
X24438991Y-18528889D01*
X24438991Y-18528889D02*
X24429467Y-18547936D01*
X24429467Y-18547936D02*
X24419944Y-18557460D01*
X24419944Y-18557460D02*
X24400896Y-18566984D01*
X24400896Y-18566984D02*
X24353277Y-18566984D01*
X24353277Y-18566984D02*
X24334229Y-18557460D01*
X24334229Y-18557460D02*
X24324706Y-18547936D01*
X24562801Y-18366984D02*
X24581848Y-18366984D01*
X24581848Y-18366984D02*
X24600896Y-18376508D01*
X24600896Y-18376508D02*
X24610420Y-18386031D01*
X24610420Y-18386031D02*
X24619944Y-18405079D01*
X24619944Y-18405079D02*
X24629467Y-18443174D01*
X24629467Y-18443174D02*
X24629467Y-18490793D01*
X24629467Y-18490793D02*
X24619944Y-18528889D01*
X24619944Y-18528889D02*
X24610420Y-18547936D01*
X24610420Y-18547936D02*
X24600896Y-18557460D01*
X24600896Y-18557460D02*
X24581848Y-18566984D01*
X24581848Y-18566984D02*
X24562801Y-18566984D01*
X24562801Y-18566984D02*
X24543753Y-18557460D01*
X24543753Y-18557460D02*
X24534229Y-18547936D01*
X24534229Y-18547936D02*
X24524706Y-18528889D01*
X24524706Y-18528889D02*
X24515182Y-18490793D01*
X24515182Y-18490793D02*
X24515182Y-18443174D01*
X24515182Y-18443174D02*
X24524706Y-18405079D01*
X24524706Y-18405079D02*
X24534229Y-18386031D01*
X24534229Y-18386031D02*
X24543753Y-18376508D01*
X24543753Y-18376508D02*
X24562801Y-18366984D01*
X24753277Y-18366984D02*
X24772325Y-18366984D01*
X24772325Y-18366984D02*
X24791372Y-18376508D01*
X24791372Y-18376508D02*
X24800896Y-18386031D01*
X24800896Y-18386031D02*
X24810420Y-18405079D01*
X24810420Y-18405079D02*
X24819944Y-18443174D01*
X24819944Y-18443174D02*
X24819944Y-18490793D01*
X24819944Y-18490793D02*
X24810420Y-18528889D01*
X24810420Y-18528889D02*
X24800896Y-18547936D01*
X24800896Y-18547936D02*
X24791372Y-18557460D01*
X24791372Y-18557460D02*
X24772325Y-18566984D01*
X24772325Y-18566984D02*
X24753277Y-18566984D01*
X24753277Y-18566984D02*
X24734229Y-18557460D01*
X24734229Y-18557460D02*
X24724706Y-18547936D01*
X24724706Y-18547936D02*
X24715182Y-18528889D01*
X24715182Y-18528889D02*
X24705658Y-18490793D01*
X24705658Y-18490793D02*
X24705658Y-18443174D01*
X24705658Y-18443174D02*
X24715182Y-18405079D01*
X24715182Y-18405079D02*
X24724706Y-18386031D01*
X24724706Y-18386031D02*
X24734229Y-18376508D01*
X24734229Y-18376508D02*
X24753277Y-18366984D01*
X24896134Y-18366984D02*
X24896134Y-18405079D01*
X24972325Y-18366984D02*
X24972325Y-18405079D01*
X25267563Y-18643174D02*
X25258039Y-18633650D01*
X25258039Y-18633650D02*
X25238991Y-18605079D01*
X25238991Y-18605079D02*
X25229468Y-18586031D01*
X25229468Y-18586031D02*
X25219944Y-18557460D01*
X25219944Y-18557460D02*
X25210420Y-18509841D01*
X25210420Y-18509841D02*
X25210420Y-18471746D01*
X25210420Y-18471746D02*
X25219944Y-18424127D01*
X25219944Y-18424127D02*
X25229468Y-18395555D01*
X25229468Y-18395555D02*
X25238991Y-18376508D01*
X25238991Y-18376508D02*
X25258039Y-18347936D01*
X25258039Y-18347936D02*
X25267563Y-18338412D01*
X25334229Y-18386031D02*
X25343753Y-18376508D01*
X25343753Y-18376508D02*
X25362801Y-18366984D01*
X25362801Y-18366984D02*
X25410420Y-18366984D01*
X25410420Y-18366984D02*
X25429468Y-18376508D01*
X25429468Y-18376508D02*
X25438991Y-18386031D01*
X25438991Y-18386031D02*
X25448515Y-18405079D01*
X25448515Y-18405079D02*
X25448515Y-18424127D01*
X25448515Y-18424127D02*
X25438991Y-18452698D01*
X25438991Y-18452698D02*
X25324706Y-18566984D01*
X25324706Y-18566984D02*
X25448515Y-18566984D01*
X25562801Y-18452698D02*
X25543753Y-18443174D01*
X25543753Y-18443174D02*
X25534229Y-18433650D01*
X25534229Y-18433650D02*
X25524706Y-18414603D01*
X25524706Y-18414603D02*
X25524706Y-18405079D01*
X25524706Y-18405079D02*
X25534229Y-18386031D01*
X25534229Y-18386031D02*
X25543753Y-18376508D01*
X25543753Y-18376508D02*
X25562801Y-18366984D01*
X25562801Y-18366984D02*
X25600896Y-18366984D01*
X25600896Y-18366984D02*
X25619944Y-18376508D01*
X25619944Y-18376508D02*
X25629468Y-18386031D01*
X25629468Y-18386031D02*
X25638991Y-18405079D01*
X25638991Y-18405079D02*
X25638991Y-18414603D01*
X25638991Y-18414603D02*
X25629468Y-18433650D01*
X25629468Y-18433650D02*
X25619944Y-18443174D01*
X25619944Y-18443174D02*
X25600896Y-18452698D01*
X25600896Y-18452698D02*
X25562801Y-18452698D01*
X25562801Y-18452698D02*
X25543753Y-18462222D01*
X25543753Y-18462222D02*
X25534229Y-18471746D01*
X25534229Y-18471746D02*
X25524706Y-18490793D01*
X25524706Y-18490793D02*
X25524706Y-18528889D01*
X25524706Y-18528889D02*
X25534229Y-18547936D01*
X25534229Y-18547936D02*
X25543753Y-18557460D01*
X25543753Y-18557460D02*
X25562801Y-18566984D01*
X25562801Y-18566984D02*
X25600896Y-18566984D01*
X25600896Y-18566984D02*
X25619944Y-18557460D01*
X25619944Y-18557460D02*
X25629468Y-18547936D01*
X25629468Y-18547936D02*
X25638991Y-18528889D01*
X25638991Y-18528889D02*
X25638991Y-18490793D01*
X25638991Y-18490793D02*
X25629468Y-18471746D01*
X25629468Y-18471746D02*
X25619944Y-18462222D01*
X25619944Y-18462222D02*
X25600896Y-18452698D01*
X25877087Y-18566984D02*
X25877087Y-18366984D01*
X25962801Y-18566984D02*
X25962801Y-18462222D01*
X25962801Y-18462222D02*
X25953277Y-18443174D01*
X25953277Y-18443174D02*
X25934230Y-18433650D01*
X25934230Y-18433650D02*
X25905658Y-18433650D01*
X25905658Y-18433650D02*
X25886610Y-18443174D01*
X25886610Y-18443174D02*
X25877087Y-18452698D01*
X26086610Y-18566984D02*
X26067563Y-18557460D01*
X26067563Y-18557460D02*
X26058039Y-18547936D01*
X26058039Y-18547936D02*
X26048515Y-18528889D01*
X26048515Y-18528889D02*
X26048515Y-18471746D01*
X26048515Y-18471746D02*
X26058039Y-18452698D01*
X26058039Y-18452698D02*
X26067563Y-18443174D01*
X26067563Y-18443174D02*
X26086610Y-18433650D01*
X26086610Y-18433650D02*
X26115182Y-18433650D01*
X26115182Y-18433650D02*
X26134230Y-18443174D01*
X26134230Y-18443174D02*
X26143753Y-18452698D01*
X26143753Y-18452698D02*
X26153277Y-18471746D01*
X26153277Y-18471746D02*
X26153277Y-18528889D01*
X26153277Y-18528889D02*
X26143753Y-18547936D01*
X26143753Y-18547936D02*
X26134230Y-18557460D01*
X26134230Y-18557460D02*
X26115182Y-18566984D01*
X26115182Y-18566984D02*
X26086610Y-18566984D01*
X26267563Y-18566984D02*
X26248515Y-18557460D01*
X26248515Y-18557460D02*
X26238991Y-18538412D01*
X26238991Y-18538412D02*
X26238991Y-18366984D01*
X26419944Y-18557460D02*
X26400896Y-18566984D01*
X26400896Y-18566984D02*
X26362801Y-18566984D01*
X26362801Y-18566984D02*
X26343753Y-18557460D01*
X26343753Y-18557460D02*
X26334230Y-18538412D01*
X26334230Y-18538412D02*
X26334230Y-18462222D01*
X26334230Y-18462222D02*
X26343753Y-18443174D01*
X26343753Y-18443174D02*
X26362801Y-18433650D01*
X26362801Y-18433650D02*
X26400896Y-18433650D01*
X26400896Y-18433650D02*
X26419944Y-18443174D01*
X26419944Y-18443174D02*
X26429468Y-18462222D01*
X26429468Y-18462222D02*
X26429468Y-18481270D01*
X26429468Y-18481270D02*
X26334230Y-18500317D01*
X26505658Y-18557460D02*
X26524706Y-18566984D01*
X26524706Y-18566984D02*
X26562801Y-18566984D01*
X26562801Y-18566984D02*
X26581849Y-18557460D01*
X26581849Y-18557460D02*
X26591372Y-18538412D01*
X26591372Y-18538412D02*
X26591372Y-18528889D01*
X26591372Y-18528889D02*
X26581849Y-18509841D01*
X26581849Y-18509841D02*
X26562801Y-18500317D01*
X26562801Y-18500317D02*
X26534230Y-18500317D01*
X26534230Y-18500317D02*
X26515182Y-18490793D01*
X26515182Y-18490793D02*
X26505658Y-18471746D01*
X26505658Y-18471746D02*
X26505658Y-18462222D01*
X26505658Y-18462222D02*
X26515182Y-18443174D01*
X26515182Y-18443174D02*
X26534230Y-18433650D01*
X26534230Y-18433650D02*
X26562801Y-18433650D01*
X26562801Y-18433650D02*
X26581849Y-18443174D01*
X26658039Y-18643174D02*
X26667563Y-18633650D01*
X26667563Y-18633650D02*
X26686611Y-18605079D01*
X26686611Y-18605079D02*
X26696134Y-18586031D01*
X26696134Y-18586031D02*
X26705658Y-18557460D01*
X26705658Y-18557460D02*
X26715182Y-18509841D01*
X26715182Y-18509841D02*
X26715182Y-18471746D01*
X26715182Y-18471746D02*
X26705658Y-18424127D01*
X26705658Y-18424127D02*
X26696134Y-18395555D01*
X26696134Y-18395555D02*
X26686611Y-18376508D01*
X26686611Y-18376508D02*
X26667563Y-18347936D01*
X26667563Y-18347936D02*
X26658039Y-18338412D01*
M02*
