M48
; DRILL file {KiCad 7.0.8} date Mon 01 Apr 2024 22:35:24 BST
; FORMAT={-:-/ absolute / metric / decimal}
; #@! TF.CreationDate,2024-04-01T22:35:24+01:00
; #@! TF.GenerationSoftware,Kicad,Pcbnew,7.0.8
; #@! TF.FileFunction,Plated,1,2,PTH
FMAT,2
METRIC
; #@! TA.AperFunction,Plated,PTH,ComponentDrill
T1C0.300
; #@! TA.AperFunction,Plated,PTH,ViaDrill
T2C0.400
; #@! TA.AperFunction,Plated,PTH,ComponentDrill
T3C1.270
%
G90
G05
T1
X278.0Y-142.625
X280.0Y-142.625
X282.0Y-142.625
T2
X276.5Y-137.0
X286.7Y-137.1
T3
X220.6Y-159.5
X222.7Y-154.5
X226.0Y-111.1
X226.0Y-128.1
X231.0Y-113.2
X231.0Y-130.2
X237.6Y-159.5
X239.7Y-154.5
X244.0Y-106.85
X244.0Y-123.85
X249.0Y-108.95
X249.0Y-125.95
X262.0Y-102.6
X262.0Y-119.6
X267.0Y-104.7
X267.0Y-121.7
X280.0Y-104.725
X280.0Y-121.725
X285.0Y-106.825
X285.0Y-123.825
X298.0Y-113.225
X298.0Y-130.225
X303.0Y-115.325
X303.0Y-132.325
X316.0Y-115.35
X316.0Y-132.35
X321.0Y-117.45
X321.0Y-134.45
T0
M30
