<svg width="112mm" height="77mm" viewBox="0 0 112 77" xmlns="http://www.w3.org/2000/svg"><g id="svgGroup" stroke-linecap="round" fill-rule="evenodd" font-size="9pt" stroke="#000" stroke-width="0.25mm" fill="none" style="stroke:#000;stroke-width:0.25mm;fill:none"><path d="M 91 50.75 L 111 50.75 A 1 1 0 0 0 112 49.75 L 112 13.75 A 1 1 0 0 0 111 12.75 L 95 12.75 A 1 1 0 0 1 94 11.75 L 94 11.625 A 1 1 0 0 0 93 10.625 L 77 10.625 A 1 1 0 0 1 76 9.625 L 76 3.125 A 1 1 0 0 0 75 2.125 L 59 2.125 A 1 1 0 0 1 58 1.125 L 58 1 A 1 1 0 0 0 57 0 L 37 0 A 1 1 0 0 0 36 1 L 36 3.25 A 1 1 0 0 1 35 4.25 L 19 4.25 A 1 1 0 0 0 18 5.25 L 18 7.5 A 1 1 0 0 1 17 8.5 L 1 8.5 A 1 1 0 0 0 0 9.5 L 0 76 A 1 1 0 0 0 1 77 L 39 77 A 1 1 0 0 0 40 76 L 40 39 A 1 1 0 0 1 41 38 L 53 38 A 1 1 0 0 1 54 39 L 54 39.125 A 1 1 0 0 0 55 40.125 L 71 40.125 A 1 1 0 0 1 72 41.125 L 72 47.625 A 1 1 0 0 0 73 48.625 L 89 48.625 A 1 1 0 0 1 90 49.625 L 90 49.75 A 1 1 0 0 0 91 50.75 Z M 94 47.25 L 108 47.25 L 108 33.25 L 94 33.25 L 94 47.25 Z M 94 30.25 L 108 30.25 L 108 16.25 L 94 16.25 L 94 30.25 Z M 76 45.125 L 90 45.125 L 90 31.125 L 76 31.125 L 76 45.125 Z M 76 28.125 L 90 28.125 L 90 14.125 L 76 14.125 L 76 28.125 Z M 58 36.625 L 72 36.625 L 72 22.625 L 58 22.625 L 58 36.625 Z M 58 19.625 L 72 19.625 L 72 5.625 L 58 5.625 L 58 19.625 Z M 40 34.5 L 54 34.5 L 54 20.5 L 40 20.5 L 40 34.5 Z M 40 17.5 L 54 17.5 L 54 3.5 L 40 3.5 L 40 17.5 Z M 22 38.75 L 36 38.75 L 36 24.75 L 22 24.75 L 22 38.75 Z M 22 21.75 L 36 21.75 L 36 7.75 L 22 7.75 L 22 21.75 Z M 4 43 L 18 43 L 18 29 L 4 29 L 4 43 Z M 4 26 L 18 26 L 18 12 L 4 12 L 4 26 Z M 35.5 68.5 L 35.5 54.5 L 21.5 54.5 L 21.5 68.5 L 35.5 68.5 Z M 18.5 68.5 L 18.5 54.5 L 4.5 54.5 L 4.5 68.5 L 18.5 68.5 Z" vector-effect="non-scaling-stroke"/></g></svg>