<svg width="90mm" height="73mm" viewBox="0 0 90 73" xmlns="http://www.w3.org/2000/svg"><g id="svgGroup" stroke-linecap="round" fill-rule="evenodd" font-size="9pt" stroke="#000" stroke-width="0.25mm" fill="none" style="stroke:#000;stroke-width:0.25mm;fill:none"><path d="M 1 44.625 L 35 44.625 A 1 1 0 0 0 36 43.625 L 36 35 A 1 1 0 0 1 37 34 L 53 34 A 1 1 0 0 1 54 35 L 54 72 A 1 1 0 0 0 55 73 L 89 73 A 1 1 0 0 0 90 72 L 90 9.5 A 1 1 0 0 0 89 8.5 L 73 8.5 A 1 1 0 0 1 72 7.5 L 72 5.25 A 1 1 0 0 0 71 4.25 L 55 4.25 A 1 1 0 0 1 54 3.25 L 54 1 A 1 1 0 0 0 53 0 L 37 0 A 1 1 0 0 0 36 1 L 36 1.125 A 1 1 0 0 1 35 2.125 L 19 2.125 A 1 1 0 0 0 18 3.125 L 18 9.625 A 1 1 0 0 1 17 10.625 L 1 10.625 A 1 1 0 0 0 0 11.625 L 0 43.625 A 1 1 0 0 0 1 44.625 Z" vector-effect="non-scaling-stroke"/></g></svg>