<svg width="108mm" height="73mm" viewBox="0 0 108 73" xmlns="http://www.w3.org/2000/svg"><g id="svgGroup" stroke-linecap="round" fill-rule="evenodd" font-size="9pt" stroke="#000" stroke-width="0.25mm" fill="none" style="stroke:#000;stroke-width:0.25mm;fill:none"><path d="M 91 46.75 L 107 46.75 A 1 1 0 0 0 108 45.75 L 108 13.75 A 1 1 0 0 0 107 12.75 L 91 12.75 A 1 1 0 0 1 90 11.75 L 90 11.625 A 1 1 0 0 0 89 10.625 L 73 10.625 A 1 1 0 0 1 72 9.625 L 72 3.125 A 1 1 0 0 0 71 2.125 L 55 2.125 A 1 1 0 0 1 54 1.125 L 54 1 A 1 1 0 0 0 53 0 L 37 0 A 1 1 0 0 0 36 1 L 36 3.25 A 1 1 0 0 1 35 4.25 L 19 4.25 A 1 1 0 0 0 18 5.25 L 18 7.5 A 1 1 0 0 1 17 8.5 L 1 8.5 A 1 1 0 0 0 0 9.5 L 0 72 A 1 1 0 0 0 1 73 L 35 73 A 1 1 0 0 0 36 72 L 36 35 A 1 1 0 0 1 37 34 L 53 34 A 1 1 0 0 1 54 35 L 54 43.625 A 1 1 0 0 0 55 44.625 L 89 44.625 A 1 1 0 0 1 90 45.625 L 90 45.75 A 1 1 0 0 0 91 46.75 Z" vector-effect="non-scaling-stroke"/></g></svg>