<?xml version="1.0" encoding="UTF-8" standalone="no"?>
<!-- Created with Inkscape (http://www.inkscape.org/) -->

<svg
   width="210mm"
   height="297mm"
   viewBox="0 0 210 297"
   version="1.1"
   id="svg1"
   inkscape:version="1.3.2 (091e20ef0f, 2023-11-25, custom)"
   sodipodi:docname="the26.svg"
   xmlns:inkscape="http://www.inkscape.org/namespaces/inkscape"
   xmlns:sodipodi="http://sodipodi.sourceforge.net/DTD/sodipodi-0.dtd"
   xmlns="http://www.w3.org/2000/svg"
   xmlns:svg="http://www.w3.org/2000/svg">
  <sodipodi:namedview
     id="namedview1"
     pagecolor="#ffffff"
     bordercolor="#666666"
     borderopacity="1.0"
     inkscape:showpageshadow="2"
     inkscape:pageopacity="0.0"
     inkscape:pagecheckerboard="0"
     inkscape:deskcolor="#d1d1d1"
     inkscape:document-units="mm"
     inkscape:zoom="1.4142136"
     inkscape:cx="415.07167"
     inkscape:cy="297.69195"
     inkscape:window-width="1920"
     inkscape:window-height="1055"
     inkscape:window-x="0"
     inkscape:window-y="0"
     inkscape:window-maximized="1"
     inkscape:current-layer="layer1"
     showgrid="false" />
  <defs
     id="defs1">
    <inkscape:path-effect
       effect="clone_original"
       css_properties=""
       attributes=""
       linkeditem="#text5"
       is_visible="true"
       method="bsplinespiro"
       allow_transforms="false"
       id="path-effect1"
       lpeversion="1" />
  </defs>
  <g
     inkscape:label="Layer 1"
     inkscape:groupmode="layer"
     id="layer1">
    <g
       id="g1"
       transform="translate(16.612443,-41.650894)"
       inkscape:export-filename="logo.svg"
       inkscape:export-xdpi="96"
       inkscape:export-ydpi="96">
      <path
         style="font-size:5.64444px;line-height:1.25;font-family:'SF Comic Script';-inkscape-font-specification:'SF Comic Script, Normal';stroke-width:0.427786"
         d="m 55.244208,80.814854 -0.423332,1.595289 -2.388478,0.213893 0.784276,0.227262 q -0.512451,1.590834 -0.868941,2.945492 -0.294104,1.091748 -0.583751,2.152303 l -1.323467,-0.0401 q 0.258454,-1.301186 0.601576,-2.584549 0.37877,-1.4215 0.864485,-2.807351 l -1.497254,0.129234 0.387682,-1.443782 z m 4.277868,0.120308 q -0.512452,1.515079 -0.860029,2.829633 -0.33421,1.252168 -0.601576,2.562266 l -1.109573,0.02228 0.494631,-1.840377 -1.399221,-0.04456 q -0.169334,0.485716 -0.289648,0.958065 -0.147051,0.53919 -0.276279,1.131853 l -1.109573,0.01782 q 0.17379,-0.784276 0.374316,-1.52399 0.516908,-1.916129 1.154132,-3.876821 l 1.118484,-0.02228 -0.579293,2.165671 1.220975,0.04456 0.129233,-0.49463 q 0.02675,-0.06684 0.173787,-0.628312 l 0.44115,-1.27889 z m 4.166463,0.0089 -0.280732,1.047188 q -0.539187,0.02228 -1.096201,0.07131 -0.463438,0.04456 -0.833295,0.08912 -0.07575,0.222805 -0.147051,0.463436 -0.08021,0.303015 -0.142589,0.623857 0.401053,-0.06238 0.837752,-0.09803 0.441152,-0.04012 0.833292,-0.06684 l -0.294102,1.114028 q -0.427789,0 -0.824382,0.03119 -0.40105,0.04012 -0.851118,0.115862 -0.106953,0.280737 -0.17379,0.548103 -0.07575,0.26291 -0.11586,0.548101 0.450068,-0.06238 0.949153,-0.106953 0.503537,-0.04903 0.953606,-0.08468 l -0.303015,1.118486 q -0.784276,0.03119 -1.497253,0.08912 -0.721891,0.0624 -1.523993,0.138141 0.258455,-1.131851 0.570383,-2.30381 0.289648,-1.07838 0.565926,-2.085462 l -0.414419,0.03119 0.276279,-1.033818 q 1.269993,-0.05347 2.290442,-0.142604 0.592669,-0.05347 1.22097,-0.106954 z"
         id="text1"
         aria-label="The" />
      <path
         d="m 69.09402,87.575463 -0.731925,2.777276 q -2.055385,0.250656 -4.501783,0.461209 -2.39628,0.220576 -5.394134,0.471234 3.940322,-4.892818 6.176179,-7.489622 0.74195,-0.842206 2.175692,-2.546671 0.671765,-0.842206 0.792087,-1.283361 0.22057,-0.812128 -0.280746,-1.223205 -0.461201,-0.401051 -1.233224,-0.340893 -0.812136,0.07019 -1.544044,0.621629 -0.721901,0.541418 -1.12294,1.383624 l -2.937699,0.260683 q 0.772022,-2.125569 2.586781,-3.579378 1.824777,-1.453807 3.830022,-1.644307 1.985214,-0.170447 3.108154,0.9926 1.1831,1.233231 0.651696,3.238485 -0.270707,1.002626 -0.942468,1.995226 -0.411064,0.621629 -1.453809,1.85486 -2.446398,2.887563 -3.569339,4.391504 0.681787,-0.01003 1.844823,-0.120309 1.303412,-0.120308 2.546677,-0.220578 z"
         id="text4"
         style="font-size:12.7px;line-height:1.25;font-family:'SF Comic Script';-inkscape-font-specification:'SF Comic Script, Normal';stroke-width:0.427786"
         aria-label="2" />
      <path
         d="m 108.85038,41.218979 q -0.35967,1.364258 -1.5875,2.406055 -1.22784,1.041796 -2.54869,1.159619 -1.30224,0.10542 -2.05258,-0.663526 -0.75035,-0.818554 -0.40308,-2.151806 0.16123,-0.551905 4.39043,-6.653858 l 1.97197,-0.173632 -2.36264,3.385839 q 1.46347,-0.124023 2.18281,0.520899 0.80615,0.719336 0.40928,2.17041 z m -1.94717,0.285254 q 0.14883,-0.539502 -0.16743,-0.892969 -0.31626,-0.353467 -0.85577,-0.303857 -0.5395,0.04341 -1.079,0.471289 -0.5395,0.427881 -0.68833,0.992187 -0.14883,0.570508 0.19224,0.905371 0.31626,0.328662 0.87436,0.279053 0.55191,-0.04341 1.0666,-0.465088 0.5209,-0.427881 0.65733,-0.985986 z"
         id="text5"
         style="font-size:12.7px;line-height:1.25;font-family:'SF Comic Script';-inkscape-font-specification:'SF Comic Script, Normal';stroke-width:0.264583"
         aria-label="6"
         transform="matrix(1.616834,0,0,1.616834,-98.795362,23.848068)" />
      <path
         d="m 108.85038,41.218979 q -0.35967,1.364258 -1.5875,2.406055 -1.22784,1.041796 -2.54869,1.159619 -1.30224,0.10542 -2.05258,-0.663526 -0.75035,-0.818554 -0.40308,-2.151806 0.16123,-0.551905 4.39043,-6.653858 l 1.97197,-0.173632 -2.36264,3.385839 q 1.46347,-0.124023 2.18281,0.520899 0.80615,0.719336 0.40928,2.17041 z m -1.94717,0.285254 q 0.14883,-0.539502 -0.16743,-0.892969 -0.31626,-0.353467 -0.85577,-0.303857 -0.5395,0.04341 -1.079,0.471289 -0.5395,0.427881 -0.68833,0.992187 -0.14883,0.570508 0.19224,0.905371 0.31626,0.328662 0.87436,0.279053 0.55191,-0.04341 1.0666,-0.465088 0.5209,-0.427881 0.65733,-0.985986 z"
         id="path1"
         inkscape:path-effect="#path-effect1"
         inkscape:original-d="m 108.85038,41.218979 q -0.35967,1.364258 -1.5875,2.406055 -1.22784,1.041796 -2.54869,1.159619 -1.30224,0.10542 -2.05258,-0.663526 -0.75035,-0.818554 -0.40308,-2.151806 0.16123,-0.551905 4.39043,-6.653858 l 1.97197,-0.173632 -2.36264,3.385839 q 1.46347,-0.124023 2.18281,0.520899 0.80615,0.719336 0.40928,2.17041 z m -1.94717,0.285254 q 0.14883,-0.539502 -0.16743,-0.892969 -0.31626,-0.353467 -0.85577,-0.303857 -0.5395,0.04341 -1.079,0.471289 -0.5395,0.427881 -0.68833,0.992187 -0.14883,0.570508 0.19224,0.905371 0.31626,0.328662 0.87436,0.279053 0.55191,-0.04341 1.0666,-0.465088 0.5209,-0.427881 0.65733,-0.985986 z"
         transform="matrix(1.616834,0,0,1.616834,-98.795362,23.848068)" />
    </g>
  </g>
</svg>
