<?xml version="1.0" encoding="UTF-8" standalone="no"?>
<!-- Created with Inkscape (http://www.inkscape.org/) -->

<svg
   width="210mm"
   height="297mm"
   viewBox="0 0 210 297"
   version="1.1"
   id="svg1"
   inkscape:version="1.3.2 (091e20ef0f, 2023-11-25, custom)"
   sodipodi:docname="the26.svg"
   xmlns:inkscape="http://www.inkscape.org/namespaces/inkscape"
   xmlns:sodipodi="http://sodipodi.sourceforge.net/DTD/sodipodi-0.dtd"
   xmlns="http://www.w3.org/2000/svg"
   xmlns:svg="http://www.w3.org/2000/svg">
  <sodipodi:namedview
     id="namedview1"
     pagecolor="#ffffff"
     bordercolor="#666666"
     borderopacity="1.0"
     inkscape:showpageshadow="2"
     inkscape:pageopacity="0.0"
     inkscape:pagecheckerboard="0"
     inkscape:deskcolor="#d1d1d1"
     inkscape:document-units="mm"
     inkscape:zoom="1.4142136"
     inkscape:cx="393.15137"
     inkscape:cy="254.55844"
     inkscape:window-width="1920"
     inkscape:window-height="1055"
     inkscape:window-x="0"
     inkscape:window-y="0"
     inkscape:window-maximized="1"
     inkscape:current-layer="layer1"
     showgrid="false" />
  <defs
     id="defs1">
    <inkscape:path-effect
       effect="clone_original"
       css_properties=""
       attributes=""
       linkeditem="#text5"
       is_visible="true"
       method="bsplinespiro"
       allow_transforms="false"
       id="path-effect1"
       lpeversion="1" />
  </defs>
  <g
     inkscape:label="Layer 1"
     inkscape:groupmode="layer"
     id="layer1">
    <path
       style="font-size:5.64444px;line-height:1.25;font-family:'SF Comic Script';-inkscape-font-specification:'SF Comic Script, Normal';stroke-width:1.56082"
       d="m 68.04989,39.887078 -1.54457,5.820575 -8.7146,0.780408 2.86151,0.829189 q -1.86973,5.804317 -3.170421,10.746922 -1.073067,3.983352 -2.129876,7.852896 l -4.828798,-0.146299 q 0.942996,-4.747508 2.194908,-9.429983 1.381978,-5.186484 3.154163,-10.242902 l -5.462884,0.471521 1.4145,-5.26778 z m 15.60823,0.438958 q -1.86973,5.527916 -3.1379,10.324199 -1.2194,4.568662 -2.19491,9.348686 l -4.04839,0.08129 1.80471,-6.714797 -5.1052,-0.162581 q -0.61783,1.772185 -1.05681,3.495595 -0.53653,1.967289 -1.00803,4.129681 l -4.04839,0.06501 q 0.63409,-2.86151 1.36573,-5.560433 1.88599,-6.99119 4.21097,-14.144968 l 4.0809,-0.08129 -2.11361,7.90167 4.45485,0.162582 0.47152,-1.804707 q 0.0976,-0.243873 0.63408,-2.292458 l 1.60958,-4.666158 z m 15.20176,0.03245 -1.02428,3.82077 q -1.96728,0.08129 -3.9996,0.260154 -1.6909,0.162582 -3.04036,0.325163 -0.27637,0.812925 -0.53653,1.690888 -0.29266,1.105584 -0.52025,2.276206 1.46328,-0.227591 3.05662,-0.357668 1.60959,-0.146359 3.04035,-0.243872 l -1.07306,4.064642 q -1.56083,0 -3.00784,0.113795 -1.46327,0.146359 -3.10539,0.422736 -0.39023,1.024292 -0.63409,1.999805 -0.27637,0.959254 -0.42273,1.999804 1.64212,-0.22759 3.46308,-0.39023 1.83721,-0.178864 3.47933,-0.308941 l -1.10558,4.080907 q -2.86151,0.113795 -5.46288,0.325163 -2.63389,0.227649 -5.56044,0.504026 0.943,-4.129675 2.0811,-8.405685 1.05681,-3.934577 2.06484,-7.609018 l -1.51205,0.113795 1.00803,-3.771989 q 4.6337,-0.195086 8.35691,-0.520308 2.16241,-0.195086 4.45483,-0.390231 z"
       id="text1"
       aria-label="The" />
    <path
       d="m 118.58232,64.553838 -2.6705,10.133172 q -7.49928,0.914544 -16.42521,1.682765 -8.74307,0.804796 -19.68104,1.719346 14.37666,-17.851938 22.53441,-27.326637 2.70708,-3.072872 7.93823,-9.291783 2.451,-3.072877 2.89001,-4.682475 0.80477,-2.963129 -1.02433,-4.462984 -1.68274,-1.463275 -4.49954,-1.243784 -2.96316,0.256084 -5.6336,2.268076 -2.63393,1.975418 -4.09716,5.04829 l -10.71849,0.95113 q 2.8168,-7.755352 9.43813,-13.059719 6.65788,-5.304362 13.97422,-5.999421 7.24325,-0.621891 11.34041,3.621602 4.31666,4.499565 2.37778,11.815937 -0.9877,3.658182 -3.43869,7.279784 -1.49981,2.268076 -5.30437,6.767641 -8.92593,10.535567 -13.02309,16.022844 2.48757,-0.03657 6.73102,-0.438958 4.75563,-0.438958 9.29181,-0.804802 z"
       id="text4"
       style="font-size:12.7px;line-height:1.25;font-family:'SF Comic Script';-inkscape-font-specification:'SF Comic Script, Normal';stroke-width:1.56082"
       aria-label="2" />
    <path
       d="m 108.85038,41.218979 q -0.35967,1.364258 -1.5875,2.406055 -1.22784,1.041796 -2.54869,1.159619 -1.30224,0.10542 -2.05258,-0.663526 -0.75035,-0.818554 -0.40308,-2.151806 0.16123,-0.551905 4.39043,-6.653858 l 1.97197,-0.173632 -2.36264,3.385839 q 1.46347,-0.124023 2.18281,0.520899 0.80615,0.719336 0.40928,2.17041 z m -1.94717,0.285254 q 0.14883,-0.539502 -0.16743,-0.892969 -0.31626,-0.353467 -0.85577,-0.303857 -0.5395,0.04341 -1.079,0.471289 -0.5395,0.427881 -0.68833,0.992187 -0.14883,0.570508 0.19224,0.905371 0.31626,0.328662 0.87436,0.279053 0.55191,-0.04341 1.0666,-0.465088 0.5209,-0.427881 0.65733,-0.985986 z"
       id="text5"
       style="font-size:12.7px;line-height:1.25;font-family:'SF Comic Script';-inkscape-font-specification:'SF Comic Script, Normal';stroke-width:0.264583"
       aria-label="6"
       transform="matrix(5.8991814,0,0,5.8991814,-493.97895,-167.96196)" />
    <path
       d="m 108.85038,41.218979 q -0.35967,1.364258 -1.5875,2.406055 -1.22784,1.041796 -2.54869,1.159619 -1.30224,0.10542 -2.05258,-0.663526 -0.75035,-0.818554 -0.40308,-2.151806 0.16123,-0.551905 4.39043,-6.653858 l 1.97197,-0.173632 -2.36264,3.385839 q 1.46347,-0.124023 2.18281,0.520899 0.80615,0.719336 0.40928,2.17041 z m -1.94717,0.285254 q 0.14883,-0.539502 -0.16743,-0.892969 -0.31626,-0.353467 -0.85577,-0.303857 -0.5395,0.04341 -1.079,0.471289 -0.5395,0.427881 -0.68833,0.992187 -0.14883,0.570508 0.19224,0.905371 0.31626,0.328662 0.87436,0.279053 0.55191,-0.04341 1.0666,-0.465088 0.5209,-0.427881 0.65733,-0.985986 z"
       id="path1"
       inkscape:path-effect="#path-effect1"
       inkscape:original-d="m 108.85038,41.218979 q -0.35967,1.364258 -1.5875,2.406055 -1.22784,1.041796 -2.54869,1.159619 -1.30224,0.10542 -2.05258,-0.663526 -0.75035,-0.818554 -0.40308,-2.151806 0.16123,-0.551905 4.39043,-6.653858 l 1.97197,-0.173632 -2.36264,3.385839 q 1.46347,-0.124023 2.18281,0.520899 0.80615,0.719336 0.40928,2.17041 z m -1.94717,0.285254 q 0.14883,-0.539502 -0.16743,-0.892969 -0.31626,-0.353467 -0.85577,-0.303857 -0.5395,0.04341 -1.079,0.471289 -0.5395,0.427881 -0.68833,0.992187 -0.14883,0.570508 0.19224,0.905371 0.31626,0.328662 0.87436,0.279053 0.55191,-0.04341 1.0666,-0.465088 0.5209,-0.427881 0.65733,-0.985986 z"
       transform="matrix(5.8991814,0,0,5.8991814,-493.97895,-167.96196)" />
  </g>
</svg>
