M48
; DRILL file {KiCad 7.0.8} date Mon 01 Apr 2024 22:38:51 BST
; FORMAT={-:-/ absolute / metric / decimal}
; #@! TF.CreationDate,2024-04-01T22:38:51+01:00
; #@! TF.GenerationSoftware,Kicad,Pcbnew,7.0.8
; #@! TF.FileFunction,Plated,1,2,PTH
FMAT,2
METRIC
; #@! TA.AperFunction,Plated,PTH,ComponentDrill
T1C0.300
; #@! TA.AperFunction,Plated,PTH,ViaDrill
T2C0.400
; #@! TA.AperFunction,Plated,PTH,ComponentDrill
T3C1.270
%
G90
G05
T1
X125.0Y-142.625
X127.0Y-142.625
X129.0Y-142.625
T2
X120.0Y-130.5
X124.0Y-137.75
T3
X109.0Y-113.225
X109.0Y-130.225
X114.0Y-115.325
X114.0Y-132.325
X127.0Y-104.725
X127.0Y-121.725
X132.0Y-106.825
X132.0Y-123.825
X145.0Y-102.6
X145.0Y-119.6
X150.0Y-104.7
X150.0Y-121.7
X163.0Y-106.85
X163.0Y-123.85
X167.3Y-164.5
X168.0Y-108.95
X168.0Y-125.95
X169.4Y-159.5
X181.0Y-111.1
X181.0Y-128.1
X184.3Y-164.5
X186.0Y-113.2
X186.0Y-130.2
X186.4Y-159.5
T0
M30
