%TF.GenerationSoftware,KiCad,Pcbnew,7.0.8*%
%TF.CreationDate,2024-04-01T22:38:57+01:00*%
%TF.ProjectId,left,6c656674-2e6b-4696-9361-645f70636258,v1.0.0*%
%TF.SameCoordinates,Original*%
%TF.FileFunction,Drillmap*%
%TF.FilePolarity,Positive*%
%FSLAX45Y45*%
G04 Gerber Fmt 4.5, Leading zero omitted, Abs format (unit mm)*
G04 Created by KiCad (PCBNEW 7.0.8) date 2024-04-01 22:38:57*
%MOMM*%
%LPD*%
G01*
G04 APERTURE LIST*
%ADD10C,0.150000*%
%ADD11C,0.200000*%
%ADD12C,0.170180*%
%ADD13C,0.342900*%
G04 APERTURE END LIST*
D10*
X10100000Y-14462500D02*
X13500000Y-14462500D01*
X10000000Y-14362500D02*
X10000000Y-11162500D01*
X11700000Y-11062500D02*
X10100000Y-11062500D01*
X13600000Y-14362500D02*
X13600000Y-13500000D01*
X13500000Y-10212500D02*
X11900000Y-10212500D01*
X11800000Y-10312500D02*
X11800000Y-10962500D01*
X13700000Y-13400000D02*
X15300000Y-13400000D01*
X15400000Y-10325000D02*
X15400000Y-10100000D01*
X15300000Y-10000000D02*
X13700000Y-10000000D01*
X13600000Y-10100000D02*
X13600000Y-10112500D01*
X15400000Y-17200000D02*
X15400000Y-13500000D01*
X17200000Y-10750000D02*
X17200000Y-10525000D01*
X17100000Y-10425000D02*
X15500000Y-10425000D01*
X19000000Y-17200000D02*
X19000000Y-10950000D01*
X18900000Y-10850000D02*
X17300000Y-10850000D01*
X15500000Y-17300000D02*
X18900000Y-17300000D01*
X13500000Y-14462500D02*
G75*
G03*
X13600000Y-14362500I0J100000D01*
G01*
X13700000Y-13400000D02*
G75*
G03*
X13600000Y-13500000I0J-100000D01*
G01*
X15400000Y-13500000D02*
G75*
G03*
X15300000Y-13400000I-100000J0D01*
G01*
X15400000Y-17200000D02*
G75*
G03*
X15500000Y-17300000I100000J0D01*
G01*
X18900000Y-17300000D02*
G75*
G03*
X19000000Y-17200000I0J100000D01*
G01*
X19000000Y-10950000D02*
G75*
G03*
X18900000Y-10850000I-100000J0D01*
G01*
X17200000Y-10750000D02*
G75*
G03*
X17300000Y-10850000I100000J0D01*
G01*
X17200000Y-10525000D02*
G75*
G03*
X17100000Y-10425000I-100000J0D01*
G01*
X15400000Y-10325000D02*
G75*
G03*
X15500000Y-10425000I100000J0D01*
G01*
X15400000Y-10100000D02*
G75*
G03*
X15300000Y-10000000I-100000J0D01*
G01*
X13700000Y-10000000D02*
G75*
G03*
X13600000Y-10100000I0J-100000D01*
G01*
X13500000Y-10212500D02*
G75*
G03*
X13600000Y-10112500I0J100000D01*
G01*
X11900000Y-10212500D02*
G75*
G03*
X11800000Y-10312500I0J-100000D01*
G01*
X11700000Y-11062500D02*
G75*
G03*
X11800000Y-10962500I0J100000D01*
G01*
X10100000Y-11062500D02*
G75*
G03*
X10000000Y-11162500I0J-100000D01*
G01*
X10000000Y-14362500D02*
G75*
G03*
X10100000Y-14462500I100000J0D01*
G01*
D11*
D12*
X10264910Y-11827410D02*
X10435090Y-11997590D01*
X10435090Y-11827410D02*
X10264910Y-11997590D01*
X10264910Y-13527410D02*
X10435090Y-13697590D01*
X10435090Y-13527410D02*
X10264910Y-13697590D01*
X11364910Y-11827410D02*
X11535090Y-11997590D01*
X11535090Y-11827410D02*
X11364910Y-11997590D01*
X11364910Y-13527410D02*
X11535090Y-13697590D01*
X11535090Y-13527410D02*
X11364910Y-13697590D01*
X12064910Y-10977410D02*
X12235090Y-11147590D01*
X12235090Y-10977410D02*
X12064910Y-11147590D01*
X12064910Y-12677410D02*
X12235090Y-12847590D01*
X12235090Y-12677410D02*
X12064910Y-12847590D01*
X13164910Y-10977410D02*
X13335090Y-11147590D01*
X13335090Y-10977410D02*
X13164910Y-11147590D01*
X13164910Y-12677410D02*
X13335090Y-12847590D01*
X13335090Y-12677410D02*
X13164910Y-12847590D01*
X13864910Y-10764910D02*
X14035090Y-10935090D01*
X14035090Y-10764910D02*
X13864910Y-10935090D01*
X13864910Y-12464910D02*
X14035090Y-12635090D01*
X14035090Y-12464910D02*
X13864910Y-12635090D01*
X14964910Y-10764910D02*
X15135090Y-10935090D01*
X15135090Y-10764910D02*
X14964910Y-10935090D01*
X14964910Y-12464910D02*
X15135090Y-12635090D01*
X15135090Y-12464910D02*
X14964910Y-12635090D01*
X15664910Y-11189910D02*
X15835090Y-11360090D01*
X15835090Y-11189910D02*
X15664910Y-11360090D01*
X15664910Y-12889910D02*
X15835090Y-13060090D01*
X15835090Y-12889910D02*
X15664910Y-13060090D01*
X16264910Y-15314910D02*
X16435090Y-15485090D01*
X16435090Y-15314910D02*
X16264910Y-15485090D01*
X16264910Y-16414910D02*
X16435090Y-16585090D01*
X16435090Y-16414910D02*
X16264910Y-16585090D01*
X16764910Y-11189910D02*
X16935090Y-11360090D01*
X16935090Y-11189910D02*
X16764910Y-11360090D01*
X16764910Y-12889910D02*
X16935090Y-13060090D01*
X16935090Y-12889910D02*
X16764910Y-13060090D01*
X17464910Y-11614910D02*
X17635090Y-11785090D01*
X17635090Y-11614910D02*
X17464910Y-11785090D01*
X17464910Y-13314910D02*
X17635090Y-13485090D01*
X17635090Y-13314910D02*
X17464910Y-13485090D01*
X17964910Y-15314910D02*
X18135090Y-15485090D01*
X18135090Y-15314910D02*
X17964910Y-15485090D01*
X17964910Y-16414910D02*
X18135090Y-16585090D01*
X18135090Y-16414910D02*
X17964910Y-16585090D01*
X18564910Y-11614910D02*
X18735090Y-11785090D01*
X18735090Y-11614910D02*
X18564910Y-11785090D01*
X18564910Y-13314910D02*
X18735090Y-13485090D01*
X18735090Y-13314910D02*
X18564910Y-13485090D01*
D13*
X11071450Y-11912500D02*
G75*
G03*
X11071450Y-11912500I-171450J0D01*
G01*
X11071450Y-13612500D02*
G75*
G03*
X11071450Y-13612500I-171450J0D01*
G01*
X12871450Y-11062500D02*
G75*
G03*
X12871450Y-11062500I-171450J0D01*
G01*
X12871450Y-12762500D02*
G75*
G03*
X12871450Y-12762500I-171450J0D01*
G01*
X14671450Y-10850000D02*
G75*
G03*
X14671450Y-10850000I-171450J0D01*
G01*
X14671450Y-12550000D02*
G75*
G03*
X14671450Y-12550000I-171450J0D01*
G01*
X16471450Y-11275000D02*
G75*
G03*
X16471450Y-11275000I-171450J0D01*
G01*
X16471450Y-12975000D02*
G75*
G03*
X16471450Y-12975000I-171450J0D01*
G01*
X16521450Y-15950000D02*
G75*
G03*
X16521450Y-15950000I-171450J0D01*
G01*
X18221450Y-15950000D02*
G75*
G03*
X18221450Y-15950000I-171450J0D01*
G01*
X18271450Y-11700000D02*
G75*
G03*
X18271450Y-11700000I-171450J0D01*
G01*
X18271450Y-13400000D02*
G75*
G03*
X18271450Y-13400000I-171450J0D01*
G01*
D11*
X10253277Y-17618984D02*
X10253277Y-17418984D01*
X10253277Y-17418984D02*
X10300896Y-17418984D01*
X10300896Y-17418984D02*
X10329467Y-17428508D01*
X10329467Y-17428508D02*
X10348515Y-17447555D01*
X10348515Y-17447555D02*
X10358039Y-17466603D01*
X10358039Y-17466603D02*
X10367563Y-17504698D01*
X10367563Y-17504698D02*
X10367563Y-17533270D01*
X10367563Y-17533270D02*
X10358039Y-17571365D01*
X10358039Y-17571365D02*
X10348515Y-17590412D01*
X10348515Y-17590412D02*
X10329467Y-17609460D01*
X10329467Y-17609460D02*
X10300896Y-17618984D01*
X10300896Y-17618984D02*
X10253277Y-17618984D01*
X10453277Y-17618984D02*
X10453277Y-17485650D01*
X10453277Y-17523746D02*
X10462801Y-17504698D01*
X10462801Y-17504698D02*
X10472324Y-17495174D01*
X10472324Y-17495174D02*
X10491372Y-17485650D01*
X10491372Y-17485650D02*
X10510420Y-17485650D01*
X10577086Y-17618984D02*
X10577086Y-17485650D01*
X10577086Y-17418984D02*
X10567563Y-17428508D01*
X10567563Y-17428508D02*
X10577086Y-17438031D01*
X10577086Y-17438031D02*
X10586610Y-17428508D01*
X10586610Y-17428508D02*
X10577086Y-17418984D01*
X10577086Y-17418984D02*
X10577086Y-17438031D01*
X10700896Y-17618984D02*
X10681848Y-17609460D01*
X10681848Y-17609460D02*
X10672324Y-17590412D01*
X10672324Y-17590412D02*
X10672324Y-17418984D01*
X10805658Y-17618984D02*
X10786610Y-17609460D01*
X10786610Y-17609460D02*
X10777086Y-17590412D01*
X10777086Y-17590412D02*
X10777086Y-17418984D01*
X11034229Y-17618984D02*
X11034229Y-17418984D01*
X11034229Y-17418984D02*
X11100896Y-17561841D01*
X11100896Y-17561841D02*
X11167563Y-17418984D01*
X11167563Y-17418984D02*
X11167563Y-17618984D01*
X11348515Y-17618984D02*
X11348515Y-17514222D01*
X11348515Y-17514222D02*
X11338991Y-17495174D01*
X11338991Y-17495174D02*
X11319943Y-17485650D01*
X11319943Y-17485650D02*
X11281848Y-17485650D01*
X11281848Y-17485650D02*
X11262801Y-17495174D01*
X11348515Y-17609460D02*
X11329467Y-17618984D01*
X11329467Y-17618984D02*
X11281848Y-17618984D01*
X11281848Y-17618984D02*
X11262801Y-17609460D01*
X11262801Y-17609460D02*
X11253277Y-17590412D01*
X11253277Y-17590412D02*
X11253277Y-17571365D01*
X11253277Y-17571365D02*
X11262801Y-17552317D01*
X11262801Y-17552317D02*
X11281848Y-17542793D01*
X11281848Y-17542793D02*
X11329467Y-17542793D01*
X11329467Y-17542793D02*
X11348515Y-17533270D01*
X11443753Y-17485650D02*
X11443753Y-17685650D01*
X11443753Y-17495174D02*
X11462801Y-17485650D01*
X11462801Y-17485650D02*
X11500896Y-17485650D01*
X11500896Y-17485650D02*
X11519943Y-17495174D01*
X11519943Y-17495174D02*
X11529467Y-17504698D01*
X11529467Y-17504698D02*
X11538991Y-17523746D01*
X11538991Y-17523746D02*
X11538991Y-17580889D01*
X11538991Y-17580889D02*
X11529467Y-17599936D01*
X11529467Y-17599936D02*
X11519943Y-17609460D01*
X11519943Y-17609460D02*
X11500896Y-17618984D01*
X11500896Y-17618984D02*
X11462801Y-17618984D01*
X11462801Y-17618984D02*
X11443753Y-17609460D01*
X11624705Y-17599936D02*
X11634229Y-17609460D01*
X11634229Y-17609460D02*
X11624705Y-17618984D01*
X11624705Y-17618984D02*
X11615182Y-17609460D01*
X11615182Y-17609460D02*
X11624705Y-17599936D01*
X11624705Y-17599936D02*
X11624705Y-17618984D01*
X11624705Y-17495174D02*
X11634229Y-17504698D01*
X11634229Y-17504698D02*
X11624705Y-17514222D01*
X11624705Y-17514222D02*
X11615182Y-17504698D01*
X11615182Y-17504698D02*
X11624705Y-17495174D01*
X11624705Y-17495174D02*
X11624705Y-17514222D01*
D12*
X9822320Y-17862410D02*
X9992500Y-18032590D01*
X9992500Y-17862410D02*
X9822320Y-18032590D01*
D11*
X10358039Y-18038984D02*
X10243753Y-18038984D01*
X10300896Y-18038984D02*
X10300896Y-17838984D01*
X10300896Y-17838984D02*
X10281848Y-17867555D01*
X10281848Y-17867555D02*
X10262801Y-17886603D01*
X10262801Y-17886603D02*
X10243753Y-17896127D01*
X10443753Y-18019936D02*
X10453277Y-18029460D01*
X10453277Y-18029460D02*
X10443753Y-18038984D01*
X10443753Y-18038984D02*
X10434229Y-18029460D01*
X10434229Y-18029460D02*
X10443753Y-18019936D01*
X10443753Y-18019936D02*
X10443753Y-18038984D01*
X10519944Y-17838984D02*
X10653277Y-17838984D01*
X10653277Y-17838984D02*
X10567563Y-18038984D01*
X10767563Y-17838984D02*
X10786610Y-17838984D01*
X10786610Y-17838984D02*
X10805658Y-17848508D01*
X10805658Y-17848508D02*
X10815182Y-17858031D01*
X10815182Y-17858031D02*
X10824705Y-17877079D01*
X10824705Y-17877079D02*
X10834229Y-17915174D01*
X10834229Y-17915174D02*
X10834229Y-17962793D01*
X10834229Y-17962793D02*
X10824705Y-18000889D01*
X10824705Y-18000889D02*
X10815182Y-18019936D01*
X10815182Y-18019936D02*
X10805658Y-18029460D01*
X10805658Y-18029460D02*
X10786610Y-18038984D01*
X10786610Y-18038984D02*
X10767563Y-18038984D01*
X10767563Y-18038984D02*
X10748515Y-18029460D01*
X10748515Y-18029460D02*
X10738991Y-18019936D01*
X10738991Y-18019936D02*
X10729467Y-18000889D01*
X10729467Y-18000889D02*
X10719944Y-17962793D01*
X10719944Y-17962793D02*
X10719944Y-17915174D01*
X10719944Y-17915174D02*
X10729467Y-17877079D01*
X10729467Y-17877079D02*
X10738991Y-17858031D01*
X10738991Y-17858031D02*
X10748515Y-17848508D01*
X10748515Y-17848508D02*
X10767563Y-17838984D01*
X10910420Y-17858031D02*
X10919944Y-17848508D01*
X10919944Y-17848508D02*
X10938991Y-17838984D01*
X10938991Y-17838984D02*
X10986610Y-17838984D01*
X10986610Y-17838984D02*
X11005658Y-17848508D01*
X11005658Y-17848508D02*
X11015182Y-17858031D01*
X11015182Y-17858031D02*
X11024705Y-17877079D01*
X11024705Y-17877079D02*
X11024705Y-17896127D01*
X11024705Y-17896127D02*
X11015182Y-17924698D01*
X11015182Y-17924698D02*
X10900896Y-18038984D01*
X10900896Y-18038984D02*
X11024705Y-18038984D01*
X11110420Y-18038984D02*
X11110420Y-17905650D01*
X11110420Y-17924698D02*
X11119944Y-17915174D01*
X11119944Y-17915174D02*
X11138991Y-17905650D01*
X11138991Y-17905650D02*
X11167563Y-17905650D01*
X11167563Y-17905650D02*
X11186610Y-17915174D01*
X11186610Y-17915174D02*
X11196134Y-17934222D01*
X11196134Y-17934222D02*
X11196134Y-18038984D01*
X11196134Y-17934222D02*
X11205658Y-17915174D01*
X11205658Y-17915174D02*
X11224705Y-17905650D01*
X11224705Y-17905650D02*
X11253277Y-17905650D01*
X11253277Y-17905650D02*
X11272324Y-17915174D01*
X11272324Y-17915174D02*
X11281848Y-17934222D01*
X11281848Y-17934222D02*
X11281848Y-18038984D01*
X11377086Y-18038984D02*
X11377086Y-17905650D01*
X11377086Y-17924698D02*
X11386610Y-17915174D01*
X11386610Y-17915174D02*
X11405658Y-17905650D01*
X11405658Y-17905650D02*
X11434229Y-17905650D01*
X11434229Y-17905650D02*
X11453277Y-17915174D01*
X11453277Y-17915174D02*
X11462801Y-17934222D01*
X11462801Y-17934222D02*
X11462801Y-18038984D01*
X11462801Y-17934222D02*
X11472324Y-17915174D01*
X11472324Y-17915174D02*
X11491372Y-17905650D01*
X11491372Y-17905650D02*
X11519943Y-17905650D01*
X11519943Y-17905650D02*
X11538991Y-17915174D01*
X11538991Y-17915174D02*
X11548515Y-17934222D01*
X11548515Y-17934222D02*
X11548515Y-18038984D01*
X11938991Y-17829460D02*
X11767563Y-18086603D01*
X12196134Y-17838984D02*
X12215182Y-17838984D01*
X12215182Y-17838984D02*
X12234229Y-17848508D01*
X12234229Y-17848508D02*
X12243753Y-17858031D01*
X12243753Y-17858031D02*
X12253277Y-17877079D01*
X12253277Y-17877079D02*
X12262801Y-17915174D01*
X12262801Y-17915174D02*
X12262801Y-17962793D01*
X12262801Y-17962793D02*
X12253277Y-18000889D01*
X12253277Y-18000889D02*
X12243753Y-18019936D01*
X12243753Y-18019936D02*
X12234229Y-18029460D01*
X12234229Y-18029460D02*
X12215182Y-18038984D01*
X12215182Y-18038984D02*
X12196134Y-18038984D01*
X12196134Y-18038984D02*
X12177086Y-18029460D01*
X12177086Y-18029460D02*
X12167563Y-18019936D01*
X12167563Y-18019936D02*
X12158039Y-18000889D01*
X12158039Y-18000889D02*
X12148515Y-17962793D01*
X12148515Y-17962793D02*
X12148515Y-17915174D01*
X12148515Y-17915174D02*
X12158039Y-17877079D01*
X12158039Y-17877079D02*
X12167563Y-17858031D01*
X12167563Y-17858031D02*
X12177086Y-17848508D01*
X12177086Y-17848508D02*
X12196134Y-17838984D01*
X12348515Y-18019936D02*
X12358039Y-18029460D01*
X12358039Y-18029460D02*
X12348515Y-18038984D01*
X12348515Y-18038984D02*
X12338991Y-18029460D01*
X12338991Y-18029460D02*
X12348515Y-18019936D01*
X12348515Y-18019936D02*
X12348515Y-18038984D01*
X12481848Y-17838984D02*
X12500896Y-17838984D01*
X12500896Y-17838984D02*
X12519944Y-17848508D01*
X12519944Y-17848508D02*
X12529467Y-17858031D01*
X12529467Y-17858031D02*
X12538991Y-17877079D01*
X12538991Y-17877079D02*
X12548515Y-17915174D01*
X12548515Y-17915174D02*
X12548515Y-17962793D01*
X12548515Y-17962793D02*
X12538991Y-18000889D01*
X12538991Y-18000889D02*
X12529467Y-18019936D01*
X12529467Y-18019936D02*
X12519944Y-18029460D01*
X12519944Y-18029460D02*
X12500896Y-18038984D01*
X12500896Y-18038984D02*
X12481848Y-18038984D01*
X12481848Y-18038984D02*
X12462801Y-18029460D01*
X12462801Y-18029460D02*
X12453277Y-18019936D01*
X12453277Y-18019936D02*
X12443753Y-18000889D01*
X12443753Y-18000889D02*
X12434229Y-17962793D01*
X12434229Y-17962793D02*
X12434229Y-17915174D01*
X12434229Y-17915174D02*
X12443753Y-17877079D01*
X12443753Y-17877079D02*
X12453277Y-17858031D01*
X12453277Y-17858031D02*
X12462801Y-17848508D01*
X12462801Y-17848508D02*
X12481848Y-17838984D01*
X12719944Y-17838984D02*
X12681848Y-17838984D01*
X12681848Y-17838984D02*
X12662801Y-17848508D01*
X12662801Y-17848508D02*
X12653277Y-17858031D01*
X12653277Y-17858031D02*
X12634229Y-17886603D01*
X12634229Y-17886603D02*
X12624706Y-17924698D01*
X12624706Y-17924698D02*
X12624706Y-18000889D01*
X12624706Y-18000889D02*
X12634229Y-18019936D01*
X12634229Y-18019936D02*
X12643753Y-18029460D01*
X12643753Y-18029460D02*
X12662801Y-18038984D01*
X12662801Y-18038984D02*
X12700896Y-18038984D01*
X12700896Y-18038984D02*
X12719944Y-18029460D01*
X12719944Y-18029460D02*
X12729467Y-18019936D01*
X12729467Y-18019936D02*
X12738991Y-18000889D01*
X12738991Y-18000889D02*
X12738991Y-17953270D01*
X12738991Y-17953270D02*
X12729467Y-17934222D01*
X12729467Y-17934222D02*
X12719944Y-17924698D01*
X12719944Y-17924698D02*
X12700896Y-17915174D01*
X12700896Y-17915174D02*
X12662801Y-17915174D01*
X12662801Y-17915174D02*
X12643753Y-17924698D01*
X12643753Y-17924698D02*
X12634229Y-17934222D01*
X12634229Y-17934222D02*
X12624706Y-17953270D01*
X12805658Y-17838984D02*
X12938991Y-17838984D01*
X12938991Y-17838984D02*
X12853277Y-18038984D01*
X13053277Y-17838984D02*
X13072325Y-17838984D01*
X13072325Y-17838984D02*
X13091372Y-17848508D01*
X13091372Y-17848508D02*
X13100896Y-17858031D01*
X13100896Y-17858031D02*
X13110420Y-17877079D01*
X13110420Y-17877079D02*
X13119944Y-17915174D01*
X13119944Y-17915174D02*
X13119944Y-17962793D01*
X13119944Y-17962793D02*
X13110420Y-18000889D01*
X13110420Y-18000889D02*
X13100896Y-18019936D01*
X13100896Y-18019936D02*
X13091372Y-18029460D01*
X13091372Y-18029460D02*
X13072325Y-18038984D01*
X13072325Y-18038984D02*
X13053277Y-18038984D01*
X13053277Y-18038984D02*
X13034229Y-18029460D01*
X13034229Y-18029460D02*
X13024706Y-18019936D01*
X13024706Y-18019936D02*
X13015182Y-18000889D01*
X13015182Y-18000889D02*
X13005658Y-17962793D01*
X13005658Y-17962793D02*
X13005658Y-17915174D01*
X13005658Y-17915174D02*
X13015182Y-17877079D01*
X13015182Y-17877079D02*
X13024706Y-17858031D01*
X13024706Y-17858031D02*
X13034229Y-17848508D01*
X13034229Y-17848508D02*
X13053277Y-17838984D01*
X13196134Y-17838984D02*
X13196134Y-17877079D01*
X13272325Y-17838984D02*
X13272325Y-17877079D01*
X13567563Y-18115174D02*
X13558039Y-18105650D01*
X13558039Y-18105650D02*
X13538991Y-18077079D01*
X13538991Y-18077079D02*
X13529468Y-18058031D01*
X13529468Y-18058031D02*
X13519944Y-18029460D01*
X13519944Y-18029460D02*
X13510420Y-17981841D01*
X13510420Y-17981841D02*
X13510420Y-17943746D01*
X13510420Y-17943746D02*
X13519944Y-17896127D01*
X13519944Y-17896127D02*
X13529468Y-17867555D01*
X13529468Y-17867555D02*
X13538991Y-17848508D01*
X13538991Y-17848508D02*
X13558039Y-17819936D01*
X13558039Y-17819936D02*
X13567563Y-17810412D01*
X13634229Y-17858031D02*
X13643753Y-17848508D01*
X13643753Y-17848508D02*
X13662801Y-17838984D01*
X13662801Y-17838984D02*
X13710420Y-17838984D01*
X13710420Y-17838984D02*
X13729468Y-17848508D01*
X13729468Y-17848508D02*
X13738991Y-17858031D01*
X13738991Y-17858031D02*
X13748515Y-17877079D01*
X13748515Y-17877079D02*
X13748515Y-17896127D01*
X13748515Y-17896127D02*
X13738991Y-17924698D01*
X13738991Y-17924698D02*
X13624706Y-18038984D01*
X13624706Y-18038984D02*
X13748515Y-18038984D01*
X13919944Y-17905650D02*
X13919944Y-18038984D01*
X13872325Y-17829460D02*
X13824706Y-17972317D01*
X13824706Y-17972317D02*
X13948515Y-17972317D01*
X14177087Y-18038984D02*
X14177087Y-17838984D01*
X14262801Y-18038984D02*
X14262801Y-17934222D01*
X14262801Y-17934222D02*
X14253277Y-17915174D01*
X14253277Y-17915174D02*
X14234230Y-17905650D01*
X14234230Y-17905650D02*
X14205658Y-17905650D01*
X14205658Y-17905650D02*
X14186610Y-17915174D01*
X14186610Y-17915174D02*
X14177087Y-17924698D01*
X14386610Y-18038984D02*
X14367563Y-18029460D01*
X14367563Y-18029460D02*
X14358039Y-18019936D01*
X14358039Y-18019936D02*
X14348515Y-18000889D01*
X14348515Y-18000889D02*
X14348515Y-17943746D01*
X14348515Y-17943746D02*
X14358039Y-17924698D01*
X14358039Y-17924698D02*
X14367563Y-17915174D01*
X14367563Y-17915174D02*
X14386610Y-17905650D01*
X14386610Y-17905650D02*
X14415182Y-17905650D01*
X14415182Y-17905650D02*
X14434230Y-17915174D01*
X14434230Y-17915174D02*
X14443753Y-17924698D01*
X14443753Y-17924698D02*
X14453277Y-17943746D01*
X14453277Y-17943746D02*
X14453277Y-18000889D01*
X14453277Y-18000889D02*
X14443753Y-18019936D01*
X14443753Y-18019936D02*
X14434230Y-18029460D01*
X14434230Y-18029460D02*
X14415182Y-18038984D01*
X14415182Y-18038984D02*
X14386610Y-18038984D01*
X14567563Y-18038984D02*
X14548515Y-18029460D01*
X14548515Y-18029460D02*
X14538991Y-18010412D01*
X14538991Y-18010412D02*
X14538991Y-17838984D01*
X14719944Y-18029460D02*
X14700896Y-18038984D01*
X14700896Y-18038984D02*
X14662801Y-18038984D01*
X14662801Y-18038984D02*
X14643753Y-18029460D01*
X14643753Y-18029460D02*
X14634230Y-18010412D01*
X14634230Y-18010412D02*
X14634230Y-17934222D01*
X14634230Y-17934222D02*
X14643753Y-17915174D01*
X14643753Y-17915174D02*
X14662801Y-17905650D01*
X14662801Y-17905650D02*
X14700896Y-17905650D01*
X14700896Y-17905650D02*
X14719944Y-17915174D01*
X14719944Y-17915174D02*
X14729468Y-17934222D01*
X14729468Y-17934222D02*
X14729468Y-17953270D01*
X14729468Y-17953270D02*
X14634230Y-17972317D01*
X14805658Y-18029460D02*
X14824706Y-18038984D01*
X14824706Y-18038984D02*
X14862801Y-18038984D01*
X14862801Y-18038984D02*
X14881849Y-18029460D01*
X14881849Y-18029460D02*
X14891372Y-18010412D01*
X14891372Y-18010412D02*
X14891372Y-18000889D01*
X14891372Y-18000889D02*
X14881849Y-17981841D01*
X14881849Y-17981841D02*
X14862801Y-17972317D01*
X14862801Y-17972317D02*
X14834230Y-17972317D01*
X14834230Y-17972317D02*
X14815182Y-17962793D01*
X14815182Y-17962793D02*
X14805658Y-17943746D01*
X14805658Y-17943746D02*
X14805658Y-17934222D01*
X14805658Y-17934222D02*
X14815182Y-17915174D01*
X14815182Y-17915174D02*
X14834230Y-17905650D01*
X14834230Y-17905650D02*
X14862801Y-17905650D01*
X14862801Y-17905650D02*
X14881849Y-17915174D01*
X14958039Y-18115174D02*
X14967563Y-18105650D01*
X14967563Y-18105650D02*
X14986611Y-18077079D01*
X14986611Y-18077079D02*
X14996134Y-18058031D01*
X14996134Y-18058031D02*
X15005658Y-18029460D01*
X15005658Y-18029460D02*
X15015182Y-17981841D01*
X15015182Y-17981841D02*
X15015182Y-17943746D01*
X15015182Y-17943746D02*
X15005658Y-17896127D01*
X15005658Y-17896127D02*
X14996134Y-17867555D01*
X14996134Y-17867555D02*
X14986611Y-17848508D01*
X14986611Y-17848508D02*
X14967563Y-17819936D01*
X14967563Y-17819936D02*
X14958039Y-17810412D01*
X15319944Y-18115174D02*
X15310420Y-18105650D01*
X15310420Y-18105650D02*
X15291372Y-18077079D01*
X15291372Y-18077079D02*
X15281849Y-18058031D01*
X15281849Y-18058031D02*
X15272325Y-18029460D01*
X15272325Y-18029460D02*
X15262801Y-17981841D01*
X15262801Y-17981841D02*
X15262801Y-17943746D01*
X15262801Y-17943746D02*
X15272325Y-17896127D01*
X15272325Y-17896127D02*
X15281849Y-17867555D01*
X15281849Y-17867555D02*
X15291372Y-17848508D01*
X15291372Y-17848508D02*
X15310420Y-17819936D01*
X15310420Y-17819936D02*
X15319944Y-17810412D01*
X15396134Y-17905650D02*
X15396134Y-18038984D01*
X15396134Y-17924698D02*
X15405658Y-17915174D01*
X15405658Y-17915174D02*
X15424706Y-17905650D01*
X15424706Y-17905650D02*
X15453277Y-17905650D01*
X15453277Y-17905650D02*
X15472325Y-17915174D01*
X15472325Y-17915174D02*
X15481849Y-17934222D01*
X15481849Y-17934222D02*
X15481849Y-18038984D01*
X15605658Y-18038984D02*
X15586611Y-18029460D01*
X15586611Y-18029460D02*
X15577087Y-18019936D01*
X15577087Y-18019936D02*
X15567563Y-18000889D01*
X15567563Y-18000889D02*
X15567563Y-17943746D01*
X15567563Y-17943746D02*
X15577087Y-17924698D01*
X15577087Y-17924698D02*
X15586611Y-17915174D01*
X15586611Y-17915174D02*
X15605658Y-17905650D01*
X15605658Y-17905650D02*
X15634230Y-17905650D01*
X15634230Y-17905650D02*
X15653277Y-17915174D01*
X15653277Y-17915174D02*
X15662801Y-17924698D01*
X15662801Y-17924698D02*
X15672325Y-17943746D01*
X15672325Y-17943746D02*
X15672325Y-18000889D01*
X15672325Y-18000889D02*
X15662801Y-18019936D01*
X15662801Y-18019936D02*
X15653277Y-18029460D01*
X15653277Y-18029460D02*
X15634230Y-18038984D01*
X15634230Y-18038984D02*
X15605658Y-18038984D01*
X15729468Y-17905650D02*
X15805658Y-17905650D01*
X15758039Y-17838984D02*
X15758039Y-18010412D01*
X15758039Y-18010412D02*
X15767563Y-18029460D01*
X15767563Y-18029460D02*
X15786611Y-18038984D01*
X15786611Y-18038984D02*
X15805658Y-18038984D01*
X16024706Y-17905650D02*
X16024706Y-18105650D01*
X16024706Y-17915174D02*
X16043753Y-17905650D01*
X16043753Y-17905650D02*
X16081849Y-17905650D01*
X16081849Y-17905650D02*
X16100896Y-17915174D01*
X16100896Y-17915174D02*
X16110420Y-17924698D01*
X16110420Y-17924698D02*
X16119944Y-17943746D01*
X16119944Y-17943746D02*
X16119944Y-18000889D01*
X16119944Y-18000889D02*
X16110420Y-18019936D01*
X16110420Y-18019936D02*
X16100896Y-18029460D01*
X16100896Y-18029460D02*
X16081849Y-18038984D01*
X16081849Y-18038984D02*
X16043753Y-18038984D01*
X16043753Y-18038984D02*
X16024706Y-18029460D01*
X16234230Y-18038984D02*
X16215182Y-18029460D01*
X16215182Y-18029460D02*
X16205658Y-18010412D01*
X16205658Y-18010412D02*
X16205658Y-17838984D01*
X16396134Y-18038984D02*
X16396134Y-17934222D01*
X16396134Y-17934222D02*
X16386611Y-17915174D01*
X16386611Y-17915174D02*
X16367563Y-17905650D01*
X16367563Y-17905650D02*
X16329468Y-17905650D01*
X16329468Y-17905650D02*
X16310420Y-17915174D01*
X16396134Y-18029460D02*
X16377087Y-18038984D01*
X16377087Y-18038984D02*
X16329468Y-18038984D01*
X16329468Y-18038984D02*
X16310420Y-18029460D01*
X16310420Y-18029460D02*
X16300896Y-18010412D01*
X16300896Y-18010412D02*
X16300896Y-17991365D01*
X16300896Y-17991365D02*
X16310420Y-17972317D01*
X16310420Y-17972317D02*
X16329468Y-17962793D01*
X16329468Y-17962793D02*
X16377087Y-17962793D01*
X16377087Y-17962793D02*
X16396134Y-17953270D01*
X16462801Y-17905650D02*
X16538992Y-17905650D01*
X16491373Y-17838984D02*
X16491373Y-18010412D01*
X16491373Y-18010412D02*
X16500896Y-18029460D01*
X16500896Y-18029460D02*
X16519944Y-18038984D01*
X16519944Y-18038984D02*
X16538992Y-18038984D01*
X16681849Y-18029460D02*
X16662801Y-18038984D01*
X16662801Y-18038984D02*
X16624706Y-18038984D01*
X16624706Y-18038984D02*
X16605658Y-18029460D01*
X16605658Y-18029460D02*
X16596134Y-18010412D01*
X16596134Y-18010412D02*
X16596134Y-17934222D01*
X16596134Y-17934222D02*
X16605658Y-17915174D01*
X16605658Y-17915174D02*
X16624706Y-17905650D01*
X16624706Y-17905650D02*
X16662801Y-17905650D01*
X16662801Y-17905650D02*
X16681849Y-17915174D01*
X16681849Y-17915174D02*
X16691373Y-17934222D01*
X16691373Y-17934222D02*
X16691373Y-17953270D01*
X16691373Y-17953270D02*
X16596134Y-17972317D01*
X16862801Y-18038984D02*
X16862801Y-17838984D01*
X16862801Y-18029460D02*
X16843754Y-18038984D01*
X16843754Y-18038984D02*
X16805658Y-18038984D01*
X16805658Y-18038984D02*
X16786611Y-18029460D01*
X16786611Y-18029460D02*
X16777087Y-18019936D01*
X16777087Y-18019936D02*
X16767563Y-18000889D01*
X16767563Y-18000889D02*
X16767563Y-17943746D01*
X16767563Y-17943746D02*
X16777087Y-17924698D01*
X16777087Y-17924698D02*
X16786611Y-17915174D01*
X16786611Y-17915174D02*
X16805658Y-17905650D01*
X16805658Y-17905650D02*
X16843754Y-17905650D01*
X16843754Y-17905650D02*
X16862801Y-17915174D01*
X16938992Y-18115174D02*
X16948516Y-18105650D01*
X16948516Y-18105650D02*
X16967563Y-18077079D01*
X16967563Y-18077079D02*
X16977087Y-18058031D01*
X16977087Y-18058031D02*
X16986611Y-18029460D01*
X16986611Y-18029460D02*
X16996135Y-17981841D01*
X16996135Y-17981841D02*
X16996135Y-17943746D01*
X16996135Y-17943746D02*
X16986611Y-17896127D01*
X16986611Y-17896127D02*
X16977087Y-17867555D01*
X16977087Y-17867555D02*
X16967563Y-17848508D01*
X16967563Y-17848508D02*
X16948516Y-17819936D01*
X16948516Y-17819936D02*
X16938992Y-17810412D01*
X9992500Y-18237680D02*
G75*
G03*
X9992500Y-18237680I-100000J0D01*
G01*
X10234229Y-18129164D02*
X10358039Y-18129164D01*
X10358039Y-18129164D02*
X10291372Y-18205354D01*
X10291372Y-18205354D02*
X10319944Y-18205354D01*
X10319944Y-18205354D02*
X10338991Y-18214878D01*
X10338991Y-18214878D02*
X10348515Y-18224402D01*
X10348515Y-18224402D02*
X10358039Y-18243450D01*
X10358039Y-18243450D02*
X10358039Y-18291069D01*
X10358039Y-18291069D02*
X10348515Y-18310116D01*
X10348515Y-18310116D02*
X10338991Y-18319640D01*
X10338991Y-18319640D02*
X10319944Y-18329164D01*
X10319944Y-18329164D02*
X10262801Y-18329164D01*
X10262801Y-18329164D02*
X10243753Y-18319640D01*
X10243753Y-18319640D02*
X10234229Y-18310116D01*
X10443753Y-18310116D02*
X10453277Y-18319640D01*
X10453277Y-18319640D02*
X10443753Y-18329164D01*
X10443753Y-18329164D02*
X10434229Y-18319640D01*
X10434229Y-18319640D02*
X10443753Y-18310116D01*
X10443753Y-18310116D02*
X10443753Y-18329164D01*
X10624705Y-18195830D02*
X10624705Y-18329164D01*
X10577086Y-18119640D02*
X10529467Y-18262497D01*
X10529467Y-18262497D02*
X10653277Y-18262497D01*
X10719944Y-18148211D02*
X10729467Y-18138688D01*
X10729467Y-18138688D02*
X10748515Y-18129164D01*
X10748515Y-18129164D02*
X10796134Y-18129164D01*
X10796134Y-18129164D02*
X10815182Y-18138688D01*
X10815182Y-18138688D02*
X10824705Y-18148211D01*
X10824705Y-18148211D02*
X10834229Y-18167259D01*
X10834229Y-18167259D02*
X10834229Y-18186307D01*
X10834229Y-18186307D02*
X10824705Y-18214878D01*
X10824705Y-18214878D02*
X10710420Y-18329164D01*
X10710420Y-18329164D02*
X10834229Y-18329164D01*
X10929467Y-18329164D02*
X10967563Y-18329164D01*
X10967563Y-18329164D02*
X10986610Y-18319640D01*
X10986610Y-18319640D02*
X10996134Y-18310116D01*
X10996134Y-18310116D02*
X11015182Y-18281545D01*
X11015182Y-18281545D02*
X11024705Y-18243450D01*
X11024705Y-18243450D02*
X11024705Y-18167259D01*
X11024705Y-18167259D02*
X11015182Y-18148211D01*
X11015182Y-18148211D02*
X11005658Y-18138688D01*
X11005658Y-18138688D02*
X10986610Y-18129164D01*
X10986610Y-18129164D02*
X10948515Y-18129164D01*
X10948515Y-18129164D02*
X10929467Y-18138688D01*
X10929467Y-18138688D02*
X10919944Y-18148211D01*
X10919944Y-18148211D02*
X10910420Y-18167259D01*
X10910420Y-18167259D02*
X10910420Y-18214878D01*
X10910420Y-18214878D02*
X10919944Y-18233926D01*
X10919944Y-18233926D02*
X10929467Y-18243450D01*
X10929467Y-18243450D02*
X10948515Y-18252973D01*
X10948515Y-18252973D02*
X10986610Y-18252973D01*
X10986610Y-18252973D02*
X11005658Y-18243450D01*
X11005658Y-18243450D02*
X11015182Y-18233926D01*
X11015182Y-18233926D02*
X11024705Y-18214878D01*
X11110420Y-18329164D02*
X11110420Y-18195830D01*
X11110420Y-18214878D02*
X11119944Y-18205354D01*
X11119944Y-18205354D02*
X11138991Y-18195830D01*
X11138991Y-18195830D02*
X11167563Y-18195830D01*
X11167563Y-18195830D02*
X11186610Y-18205354D01*
X11186610Y-18205354D02*
X11196134Y-18224402D01*
X11196134Y-18224402D02*
X11196134Y-18329164D01*
X11196134Y-18224402D02*
X11205658Y-18205354D01*
X11205658Y-18205354D02*
X11224705Y-18195830D01*
X11224705Y-18195830D02*
X11253277Y-18195830D01*
X11253277Y-18195830D02*
X11272324Y-18205354D01*
X11272324Y-18205354D02*
X11281848Y-18224402D01*
X11281848Y-18224402D02*
X11281848Y-18329164D01*
X11377086Y-18329164D02*
X11377086Y-18195830D01*
X11377086Y-18214878D02*
X11386610Y-18205354D01*
X11386610Y-18205354D02*
X11405658Y-18195830D01*
X11405658Y-18195830D02*
X11434229Y-18195830D01*
X11434229Y-18195830D02*
X11453277Y-18205354D01*
X11453277Y-18205354D02*
X11462801Y-18224402D01*
X11462801Y-18224402D02*
X11462801Y-18329164D01*
X11462801Y-18224402D02*
X11472324Y-18205354D01*
X11472324Y-18205354D02*
X11491372Y-18195830D01*
X11491372Y-18195830D02*
X11519943Y-18195830D01*
X11519943Y-18195830D02*
X11538991Y-18205354D01*
X11538991Y-18205354D02*
X11548515Y-18224402D01*
X11548515Y-18224402D02*
X11548515Y-18329164D01*
X11938991Y-18119640D02*
X11767563Y-18376783D01*
X12196134Y-18129164D02*
X12215182Y-18129164D01*
X12215182Y-18129164D02*
X12234229Y-18138688D01*
X12234229Y-18138688D02*
X12243753Y-18148211D01*
X12243753Y-18148211D02*
X12253277Y-18167259D01*
X12253277Y-18167259D02*
X12262801Y-18205354D01*
X12262801Y-18205354D02*
X12262801Y-18252973D01*
X12262801Y-18252973D02*
X12253277Y-18291069D01*
X12253277Y-18291069D02*
X12243753Y-18310116D01*
X12243753Y-18310116D02*
X12234229Y-18319640D01*
X12234229Y-18319640D02*
X12215182Y-18329164D01*
X12215182Y-18329164D02*
X12196134Y-18329164D01*
X12196134Y-18329164D02*
X12177086Y-18319640D01*
X12177086Y-18319640D02*
X12167563Y-18310116D01*
X12167563Y-18310116D02*
X12158039Y-18291069D01*
X12158039Y-18291069D02*
X12148515Y-18252973D01*
X12148515Y-18252973D02*
X12148515Y-18205354D01*
X12148515Y-18205354D02*
X12158039Y-18167259D01*
X12158039Y-18167259D02*
X12167563Y-18148211D01*
X12167563Y-18148211D02*
X12177086Y-18138688D01*
X12177086Y-18138688D02*
X12196134Y-18129164D01*
X12348515Y-18310116D02*
X12358039Y-18319640D01*
X12358039Y-18319640D02*
X12348515Y-18329164D01*
X12348515Y-18329164D02*
X12338991Y-18319640D01*
X12338991Y-18319640D02*
X12348515Y-18310116D01*
X12348515Y-18310116D02*
X12348515Y-18329164D01*
X12548515Y-18329164D02*
X12434229Y-18329164D01*
X12491372Y-18329164D02*
X12491372Y-18129164D01*
X12491372Y-18129164D02*
X12472325Y-18157735D01*
X12472325Y-18157735D02*
X12453277Y-18176783D01*
X12453277Y-18176783D02*
X12434229Y-18186307D01*
X12615182Y-18129164D02*
X12738991Y-18129164D01*
X12738991Y-18129164D02*
X12672325Y-18205354D01*
X12672325Y-18205354D02*
X12700896Y-18205354D01*
X12700896Y-18205354D02*
X12719944Y-18214878D01*
X12719944Y-18214878D02*
X12729467Y-18224402D01*
X12729467Y-18224402D02*
X12738991Y-18243450D01*
X12738991Y-18243450D02*
X12738991Y-18291069D01*
X12738991Y-18291069D02*
X12729467Y-18310116D01*
X12729467Y-18310116D02*
X12719944Y-18319640D01*
X12719944Y-18319640D02*
X12700896Y-18329164D01*
X12700896Y-18329164D02*
X12643753Y-18329164D01*
X12643753Y-18329164D02*
X12624706Y-18319640D01*
X12624706Y-18319640D02*
X12615182Y-18310116D01*
X12919944Y-18129164D02*
X12824706Y-18129164D01*
X12824706Y-18129164D02*
X12815182Y-18224402D01*
X12815182Y-18224402D02*
X12824706Y-18214878D01*
X12824706Y-18214878D02*
X12843753Y-18205354D01*
X12843753Y-18205354D02*
X12891372Y-18205354D01*
X12891372Y-18205354D02*
X12910420Y-18214878D01*
X12910420Y-18214878D02*
X12919944Y-18224402D01*
X12919944Y-18224402D02*
X12929467Y-18243450D01*
X12929467Y-18243450D02*
X12929467Y-18291069D01*
X12929467Y-18291069D02*
X12919944Y-18310116D01*
X12919944Y-18310116D02*
X12910420Y-18319640D01*
X12910420Y-18319640D02*
X12891372Y-18329164D01*
X12891372Y-18329164D02*
X12843753Y-18329164D01*
X12843753Y-18329164D02*
X12824706Y-18319640D01*
X12824706Y-18319640D02*
X12815182Y-18310116D01*
X13053277Y-18129164D02*
X13072325Y-18129164D01*
X13072325Y-18129164D02*
X13091372Y-18138688D01*
X13091372Y-18138688D02*
X13100896Y-18148211D01*
X13100896Y-18148211D02*
X13110420Y-18167259D01*
X13110420Y-18167259D02*
X13119944Y-18205354D01*
X13119944Y-18205354D02*
X13119944Y-18252973D01*
X13119944Y-18252973D02*
X13110420Y-18291069D01*
X13110420Y-18291069D02*
X13100896Y-18310116D01*
X13100896Y-18310116D02*
X13091372Y-18319640D01*
X13091372Y-18319640D02*
X13072325Y-18329164D01*
X13072325Y-18329164D02*
X13053277Y-18329164D01*
X13053277Y-18329164D02*
X13034229Y-18319640D01*
X13034229Y-18319640D02*
X13024706Y-18310116D01*
X13024706Y-18310116D02*
X13015182Y-18291069D01*
X13015182Y-18291069D02*
X13005658Y-18252973D01*
X13005658Y-18252973D02*
X13005658Y-18205354D01*
X13005658Y-18205354D02*
X13015182Y-18167259D01*
X13015182Y-18167259D02*
X13024706Y-18148211D01*
X13024706Y-18148211D02*
X13034229Y-18138688D01*
X13034229Y-18138688D02*
X13053277Y-18129164D01*
X13196134Y-18129164D02*
X13196134Y-18167259D01*
X13272325Y-18129164D02*
X13272325Y-18167259D01*
X13567563Y-18405354D02*
X13558039Y-18395830D01*
X13558039Y-18395830D02*
X13538991Y-18367259D01*
X13538991Y-18367259D02*
X13529468Y-18348211D01*
X13529468Y-18348211D02*
X13519944Y-18319640D01*
X13519944Y-18319640D02*
X13510420Y-18272021D01*
X13510420Y-18272021D02*
X13510420Y-18233926D01*
X13510420Y-18233926D02*
X13519944Y-18186307D01*
X13519944Y-18186307D02*
X13529468Y-18157735D01*
X13529468Y-18157735D02*
X13538991Y-18138688D01*
X13538991Y-18138688D02*
X13558039Y-18110116D01*
X13558039Y-18110116D02*
X13567563Y-18100592D01*
X13748515Y-18329164D02*
X13634229Y-18329164D01*
X13691372Y-18329164D02*
X13691372Y-18129164D01*
X13691372Y-18129164D02*
X13672325Y-18157735D01*
X13672325Y-18157735D02*
X13653277Y-18176783D01*
X13653277Y-18176783D02*
X13634229Y-18186307D01*
X13824706Y-18148211D02*
X13834229Y-18138688D01*
X13834229Y-18138688D02*
X13853277Y-18129164D01*
X13853277Y-18129164D02*
X13900896Y-18129164D01*
X13900896Y-18129164D02*
X13919944Y-18138688D01*
X13919944Y-18138688D02*
X13929468Y-18148211D01*
X13929468Y-18148211D02*
X13938991Y-18167259D01*
X13938991Y-18167259D02*
X13938991Y-18186307D01*
X13938991Y-18186307D02*
X13929468Y-18214878D01*
X13929468Y-18214878D02*
X13815182Y-18329164D01*
X13815182Y-18329164D02*
X13938991Y-18329164D01*
X14177087Y-18329164D02*
X14177087Y-18129164D01*
X14262801Y-18329164D02*
X14262801Y-18224402D01*
X14262801Y-18224402D02*
X14253277Y-18205354D01*
X14253277Y-18205354D02*
X14234230Y-18195830D01*
X14234230Y-18195830D02*
X14205658Y-18195830D01*
X14205658Y-18195830D02*
X14186610Y-18205354D01*
X14186610Y-18205354D02*
X14177087Y-18214878D01*
X14386610Y-18329164D02*
X14367563Y-18319640D01*
X14367563Y-18319640D02*
X14358039Y-18310116D01*
X14358039Y-18310116D02*
X14348515Y-18291069D01*
X14348515Y-18291069D02*
X14348515Y-18233926D01*
X14348515Y-18233926D02*
X14358039Y-18214878D01*
X14358039Y-18214878D02*
X14367563Y-18205354D01*
X14367563Y-18205354D02*
X14386610Y-18195830D01*
X14386610Y-18195830D02*
X14415182Y-18195830D01*
X14415182Y-18195830D02*
X14434230Y-18205354D01*
X14434230Y-18205354D02*
X14443753Y-18214878D01*
X14443753Y-18214878D02*
X14453277Y-18233926D01*
X14453277Y-18233926D02*
X14453277Y-18291069D01*
X14453277Y-18291069D02*
X14443753Y-18310116D01*
X14443753Y-18310116D02*
X14434230Y-18319640D01*
X14434230Y-18319640D02*
X14415182Y-18329164D01*
X14415182Y-18329164D02*
X14386610Y-18329164D01*
X14567563Y-18329164D02*
X14548515Y-18319640D01*
X14548515Y-18319640D02*
X14538991Y-18300592D01*
X14538991Y-18300592D02*
X14538991Y-18129164D01*
X14719944Y-18319640D02*
X14700896Y-18329164D01*
X14700896Y-18329164D02*
X14662801Y-18329164D01*
X14662801Y-18329164D02*
X14643753Y-18319640D01*
X14643753Y-18319640D02*
X14634230Y-18300592D01*
X14634230Y-18300592D02*
X14634230Y-18224402D01*
X14634230Y-18224402D02*
X14643753Y-18205354D01*
X14643753Y-18205354D02*
X14662801Y-18195830D01*
X14662801Y-18195830D02*
X14700896Y-18195830D01*
X14700896Y-18195830D02*
X14719944Y-18205354D01*
X14719944Y-18205354D02*
X14729468Y-18224402D01*
X14729468Y-18224402D02*
X14729468Y-18243450D01*
X14729468Y-18243450D02*
X14634230Y-18262497D01*
X14805658Y-18319640D02*
X14824706Y-18329164D01*
X14824706Y-18329164D02*
X14862801Y-18329164D01*
X14862801Y-18329164D02*
X14881849Y-18319640D01*
X14881849Y-18319640D02*
X14891372Y-18300592D01*
X14891372Y-18300592D02*
X14891372Y-18291069D01*
X14891372Y-18291069D02*
X14881849Y-18272021D01*
X14881849Y-18272021D02*
X14862801Y-18262497D01*
X14862801Y-18262497D02*
X14834230Y-18262497D01*
X14834230Y-18262497D02*
X14815182Y-18252973D01*
X14815182Y-18252973D02*
X14805658Y-18233926D01*
X14805658Y-18233926D02*
X14805658Y-18224402D01*
X14805658Y-18224402D02*
X14815182Y-18205354D01*
X14815182Y-18205354D02*
X14834230Y-18195830D01*
X14834230Y-18195830D02*
X14862801Y-18195830D01*
X14862801Y-18195830D02*
X14881849Y-18205354D01*
X14958039Y-18405354D02*
X14967563Y-18395830D01*
X14967563Y-18395830D02*
X14986611Y-18367259D01*
X14986611Y-18367259D02*
X14996134Y-18348211D01*
X14996134Y-18348211D02*
X15005658Y-18319640D01*
X15005658Y-18319640D02*
X15015182Y-18272021D01*
X15015182Y-18272021D02*
X15015182Y-18233926D01*
X15015182Y-18233926D02*
X15005658Y-18186307D01*
X15005658Y-18186307D02*
X14996134Y-18157735D01*
X14996134Y-18157735D02*
X14986611Y-18138688D01*
X14986611Y-18138688D02*
X14967563Y-18110116D01*
X14967563Y-18110116D02*
X14958039Y-18100592D01*
X15319944Y-18405354D02*
X15310420Y-18395830D01*
X15310420Y-18395830D02*
X15291372Y-18367259D01*
X15291372Y-18367259D02*
X15281849Y-18348211D01*
X15281849Y-18348211D02*
X15272325Y-18319640D01*
X15272325Y-18319640D02*
X15262801Y-18272021D01*
X15262801Y-18272021D02*
X15262801Y-18233926D01*
X15262801Y-18233926D02*
X15272325Y-18186307D01*
X15272325Y-18186307D02*
X15281849Y-18157735D01*
X15281849Y-18157735D02*
X15291372Y-18138688D01*
X15291372Y-18138688D02*
X15310420Y-18110116D01*
X15310420Y-18110116D02*
X15319944Y-18100592D01*
X15396134Y-18195830D02*
X15396134Y-18329164D01*
X15396134Y-18214878D02*
X15405658Y-18205354D01*
X15405658Y-18205354D02*
X15424706Y-18195830D01*
X15424706Y-18195830D02*
X15453277Y-18195830D01*
X15453277Y-18195830D02*
X15472325Y-18205354D01*
X15472325Y-18205354D02*
X15481849Y-18224402D01*
X15481849Y-18224402D02*
X15481849Y-18329164D01*
X15605658Y-18329164D02*
X15586611Y-18319640D01*
X15586611Y-18319640D02*
X15577087Y-18310116D01*
X15577087Y-18310116D02*
X15567563Y-18291069D01*
X15567563Y-18291069D02*
X15567563Y-18233926D01*
X15567563Y-18233926D02*
X15577087Y-18214878D01*
X15577087Y-18214878D02*
X15586611Y-18205354D01*
X15586611Y-18205354D02*
X15605658Y-18195830D01*
X15605658Y-18195830D02*
X15634230Y-18195830D01*
X15634230Y-18195830D02*
X15653277Y-18205354D01*
X15653277Y-18205354D02*
X15662801Y-18214878D01*
X15662801Y-18214878D02*
X15672325Y-18233926D01*
X15672325Y-18233926D02*
X15672325Y-18291069D01*
X15672325Y-18291069D02*
X15662801Y-18310116D01*
X15662801Y-18310116D02*
X15653277Y-18319640D01*
X15653277Y-18319640D02*
X15634230Y-18329164D01*
X15634230Y-18329164D02*
X15605658Y-18329164D01*
X15729468Y-18195830D02*
X15805658Y-18195830D01*
X15758039Y-18129164D02*
X15758039Y-18300592D01*
X15758039Y-18300592D02*
X15767563Y-18319640D01*
X15767563Y-18319640D02*
X15786611Y-18329164D01*
X15786611Y-18329164D02*
X15805658Y-18329164D01*
X16024706Y-18195830D02*
X16024706Y-18395830D01*
X16024706Y-18205354D02*
X16043753Y-18195830D01*
X16043753Y-18195830D02*
X16081849Y-18195830D01*
X16081849Y-18195830D02*
X16100896Y-18205354D01*
X16100896Y-18205354D02*
X16110420Y-18214878D01*
X16110420Y-18214878D02*
X16119944Y-18233926D01*
X16119944Y-18233926D02*
X16119944Y-18291069D01*
X16119944Y-18291069D02*
X16110420Y-18310116D01*
X16110420Y-18310116D02*
X16100896Y-18319640D01*
X16100896Y-18319640D02*
X16081849Y-18329164D01*
X16081849Y-18329164D02*
X16043753Y-18329164D01*
X16043753Y-18329164D02*
X16024706Y-18319640D01*
X16234230Y-18329164D02*
X16215182Y-18319640D01*
X16215182Y-18319640D02*
X16205658Y-18300592D01*
X16205658Y-18300592D02*
X16205658Y-18129164D01*
X16396134Y-18329164D02*
X16396134Y-18224402D01*
X16396134Y-18224402D02*
X16386611Y-18205354D01*
X16386611Y-18205354D02*
X16367563Y-18195830D01*
X16367563Y-18195830D02*
X16329468Y-18195830D01*
X16329468Y-18195830D02*
X16310420Y-18205354D01*
X16396134Y-18319640D02*
X16377087Y-18329164D01*
X16377087Y-18329164D02*
X16329468Y-18329164D01*
X16329468Y-18329164D02*
X16310420Y-18319640D01*
X16310420Y-18319640D02*
X16300896Y-18300592D01*
X16300896Y-18300592D02*
X16300896Y-18281545D01*
X16300896Y-18281545D02*
X16310420Y-18262497D01*
X16310420Y-18262497D02*
X16329468Y-18252973D01*
X16329468Y-18252973D02*
X16377087Y-18252973D01*
X16377087Y-18252973D02*
X16396134Y-18243450D01*
X16462801Y-18195830D02*
X16538992Y-18195830D01*
X16491373Y-18129164D02*
X16491373Y-18300592D01*
X16491373Y-18300592D02*
X16500896Y-18319640D01*
X16500896Y-18319640D02*
X16519944Y-18329164D01*
X16519944Y-18329164D02*
X16538992Y-18329164D01*
X16681849Y-18319640D02*
X16662801Y-18329164D01*
X16662801Y-18329164D02*
X16624706Y-18329164D01*
X16624706Y-18329164D02*
X16605658Y-18319640D01*
X16605658Y-18319640D02*
X16596134Y-18300592D01*
X16596134Y-18300592D02*
X16596134Y-18224402D01*
X16596134Y-18224402D02*
X16605658Y-18205354D01*
X16605658Y-18205354D02*
X16624706Y-18195830D01*
X16624706Y-18195830D02*
X16662801Y-18195830D01*
X16662801Y-18195830D02*
X16681849Y-18205354D01*
X16681849Y-18205354D02*
X16691373Y-18224402D01*
X16691373Y-18224402D02*
X16691373Y-18243450D01*
X16691373Y-18243450D02*
X16596134Y-18262497D01*
X16862801Y-18329164D02*
X16862801Y-18129164D01*
X16862801Y-18319640D02*
X16843754Y-18329164D01*
X16843754Y-18329164D02*
X16805658Y-18329164D01*
X16805658Y-18329164D02*
X16786611Y-18319640D01*
X16786611Y-18319640D02*
X16777087Y-18310116D01*
X16777087Y-18310116D02*
X16767563Y-18291069D01*
X16767563Y-18291069D02*
X16767563Y-18233926D01*
X16767563Y-18233926D02*
X16777087Y-18214878D01*
X16777087Y-18214878D02*
X16786611Y-18205354D01*
X16786611Y-18205354D02*
X16805658Y-18195830D01*
X16805658Y-18195830D02*
X16843754Y-18195830D01*
X16843754Y-18195830D02*
X16862801Y-18205354D01*
X16938992Y-18405354D02*
X16948516Y-18395830D01*
X16948516Y-18395830D02*
X16967563Y-18367259D01*
X16967563Y-18367259D02*
X16977087Y-18348211D01*
X16977087Y-18348211D02*
X16986611Y-18319640D01*
X16986611Y-18319640D02*
X16996135Y-18272021D01*
X16996135Y-18272021D02*
X16996135Y-18233926D01*
X16996135Y-18233926D02*
X16986611Y-18186307D01*
X16986611Y-18186307D02*
X16977087Y-18157735D01*
X16977087Y-18157735D02*
X16967563Y-18138688D01*
X16967563Y-18138688D02*
X16948516Y-18110116D01*
X16948516Y-18110116D02*
X16938992Y-18100592D01*
M02*
