G04 #@! TF.GenerationSoftware,KiCad,Pcbnew,7.0.8*
G04 #@! TF.CreationDate,2024-04-01T22:38:09+01:00*
G04 #@! TF.ProjectId,left,6c656674-2e6b-4696-9361-645f70636258,v1.0.0*
G04 #@! TF.SameCoordinates,Original*
G04 #@! TF.FileFunction,Soldermask,Top*
G04 #@! TF.FilePolarity,Negative*
%FSLAX46Y46*%
G04 Gerber Fmt 4.6, Leading zero omitted, Abs format (unit mm)*
G04 Created by KiCad (PCBNEW 7.0.8) date 2024-04-01 22:38:09*
%MOMM*%
%LPD*%
G01*
G04 APERTURE LIST*
G04 Aperture macros list*
%AMRoundRect*
0 Rectangle with rounded corners*
0 $1 Rounding radius*
0 $2 $3 $4 $5 $6 $7 $8 $9 X,Y pos of 4 corners*
0 Add a 4 corners polygon primitive as box body*
4,1,4,$2,$3,$4,$5,$6,$7,$8,$9,$2,$3,0*
0 Add four circle primitives for the rounded corners*
1,1,$1+$1,$2,$3*
1,1,$1+$1,$4,$5*
1,1,$1+$1,$6,$7*
1,1,$1+$1,$8,$9*
0 Add four rect primitives between the rounded corners*
20,1,$1+$1,$2,$3,$4,$5,0*
20,1,$1+$1,$4,$5,$6,$7,0*
20,1,$1+$1,$6,$7,$8,$9,0*
20,1,$1+$1,$8,$9,$2,$3,0*%
G04 Aperture macros list end*
%ADD10C,3.429000*%
%ADD11C,1.701800*%
%ADD12C,2.032000*%
%ADD13RoundRect,0.102000X0.150000X0.400000X-0.150000X0.400000X-0.150000X-0.400000X0.150000X-0.400000X0*%
%ADD14RoundRect,0.102000X0.200000X0.400000X-0.200000X0.400000X-0.200000X-0.400000X0.200000X-0.400000X0*%
G04 APERTURE END LIST*
D10*
X109000000Y-136125000D03*
D11*
X114500000Y-136125000D03*
X103500000Y-136125000D03*
D12*
X114000000Y-132325000D03*
X109000000Y-130225000D03*
D10*
X109000000Y-119125000D03*
D11*
X114500000Y-119125000D03*
X103500000Y-119125000D03*
D12*
X114000000Y-115325000D03*
X109000000Y-113225000D03*
D10*
X127000000Y-127625000D03*
D11*
X132500000Y-127625000D03*
X121500000Y-127625000D03*
D12*
X132000000Y-123825000D03*
X127000000Y-121725000D03*
D10*
X127000000Y-110625000D03*
D11*
X132500000Y-110625000D03*
X121500000Y-110625000D03*
D12*
X132000000Y-106825000D03*
X127000000Y-104725000D03*
D10*
X145000000Y-125500000D03*
D11*
X150500000Y-125500000D03*
X139500000Y-125500000D03*
D12*
X150000000Y-121700000D03*
X145000000Y-119600000D03*
D10*
X145000000Y-108500000D03*
D11*
X150500000Y-108500000D03*
X139500000Y-108500000D03*
D12*
X150000000Y-104700000D03*
X145000000Y-102600000D03*
D10*
X163000000Y-129750000D03*
D11*
X168500000Y-129750000D03*
X157500000Y-129750000D03*
D12*
X168000000Y-125950000D03*
X163000000Y-123850000D03*
D10*
X163000000Y-112750000D03*
D11*
X168500000Y-112750000D03*
X157500000Y-112750000D03*
D12*
X168000000Y-108950000D03*
X163000000Y-106850000D03*
D10*
X181000000Y-134000000D03*
D11*
X186500000Y-134000000D03*
X175500000Y-134000000D03*
D12*
X186000000Y-130200000D03*
X181000000Y-128100000D03*
D10*
X181000000Y-117000000D03*
D11*
X186500000Y-117000000D03*
X175500000Y-117000000D03*
D12*
X186000000Y-113200000D03*
X181000000Y-111100000D03*
D10*
X163500000Y-159500000D03*
D11*
X163500000Y-165000000D03*
X163500000Y-154000000D03*
D12*
X167300000Y-164500000D03*
X169400000Y-159500000D03*
D10*
X180500000Y-159500000D03*
D11*
X180500000Y-165000000D03*
X180500000Y-154000000D03*
D12*
X184300000Y-164500000D03*
X186400000Y-159500000D03*
D13*
X124750000Y-139125000D03*
X125250000Y-139125000D03*
X125750000Y-139125000D03*
X126250000Y-139125000D03*
X126750000Y-139125000D03*
X127250000Y-139125000D03*
X127750000Y-139125000D03*
X128250000Y-139125000D03*
X128750000Y-139125000D03*
X129250000Y-139125000D03*
D14*
X123800000Y-141625000D03*
X130200000Y-141625000D03*
M02*
