M48
; DRILL file {KiCad 7.0.8} date Mon 01 Apr 2024 22:38:51 BST
; FORMAT={-:-/ absolute / metric / decimal}
; #@! TF.CreationDate,2024-04-01T22:38:51+01:00
; #@! TF.GenerationSoftware,Kicad,Pcbnew,7.0.8
; #@! TF.FileFunction,NonPlated,1,2,NPTH
FMAT,2
METRIC
; #@! TA.AperFunction,NonPlated,NPTH,ComponentDrill
T1C1.702
; #@! TA.AperFunction,NonPlated,NPTH,ComponentDrill
T2C3.429
%
G90
G05
T1
X103.5Y-119.125
X103.5Y-136.125
X114.5Y-119.125
X114.5Y-136.125
X121.5Y-110.625
X121.5Y-127.625
X132.5Y-110.625
X132.5Y-127.625
X139.5Y-108.5
X139.5Y-125.5
X150.5Y-108.5
X150.5Y-125.5
X157.5Y-112.75
X157.5Y-129.75
X163.5Y-154.0
X163.5Y-165.0
X168.5Y-112.75
X168.5Y-129.75
X175.5Y-117.0
X175.5Y-134.0
X180.5Y-154.0
X180.5Y-165.0
X186.5Y-117.0
X186.5Y-134.0
T2
X109.0Y-119.125
X109.0Y-136.125
X127.0Y-110.625
X127.0Y-127.625
X145.0Y-108.5
X145.0Y-125.5
X163.0Y-112.75
X163.0Y-129.75
X163.5Y-159.5
X180.5Y-159.5
X181.0Y-117.0
X181.0Y-134.0
T0
M30
