G04 #@! TF.GenerationSoftware,KiCad,Pcbnew,7.0.8*
G04 #@! TF.CreationDate,2024-04-01T22:38:09+01:00*
G04 #@! TF.ProjectId,left,6c656674-2e6b-4696-9361-645f70636258,v1.0.0*
G04 #@! TF.SameCoordinates,Original*
G04 #@! TF.FileFunction,Profile,NP*
%FSLAX46Y46*%
G04 Gerber Fmt 4.6, Leading zero omitted, Abs format (unit mm)*
G04 Created by KiCad (PCBNEW 7.0.8) date 2024-04-01 22:38:09*
%MOMM*%
%LPD*%
G01*
G04 APERTURE LIST*
G04 #@! TA.AperFunction,Profile*
%ADD10C,0.150000*%
G04 #@! TD*
G04 APERTURE END LIST*
D10*
X101000000Y-144625000D02*
X135000000Y-144625000D01*
X100000000Y-143625000D02*
X100000000Y-111625000D01*
X117000000Y-110625000D02*
X101000000Y-110625000D01*
X136000000Y-143625000D02*
X136000000Y-135000000D01*
X135000000Y-102125000D02*
X119000000Y-102125000D01*
X118000000Y-103125000D02*
X118000000Y-109625000D01*
X137000000Y-134000000D02*
X153000000Y-134000000D01*
X154000000Y-103250000D02*
X154000000Y-101000000D01*
X153000000Y-100000000D02*
X137000000Y-100000000D01*
X136000000Y-101000000D02*
X136000000Y-101125000D01*
X154000000Y-172000000D02*
X154000000Y-135000000D01*
X172000000Y-107500000D02*
X172000000Y-105250000D01*
X171000000Y-104250000D02*
X155000000Y-104250000D01*
X190000000Y-172000000D02*
X190000000Y-109500000D01*
X189000000Y-108500000D02*
X173000000Y-108500000D01*
X155000000Y-173000000D02*
X189000000Y-173000000D01*
X135000000Y-144625000D02*
G75*
G03*
X136000000Y-143625000I0J1000000D01*
G01*
X137000000Y-134000000D02*
G75*
G03*
X136000000Y-135000000I0J-1000000D01*
G01*
X154000000Y-135000000D02*
G75*
G03*
X153000000Y-134000000I-1000000J0D01*
G01*
X154000000Y-172000000D02*
G75*
G03*
X155000000Y-173000000I1000000J0D01*
G01*
X189000000Y-173000000D02*
G75*
G03*
X190000000Y-172000000I0J1000000D01*
G01*
X190000000Y-109500000D02*
G75*
G03*
X189000000Y-108500000I-1000000J0D01*
G01*
X172000000Y-107500000D02*
G75*
G03*
X173000000Y-108500000I1000000J0D01*
G01*
X172000000Y-105250000D02*
G75*
G03*
X171000000Y-104250000I-1000000J0D01*
G01*
X154000000Y-103250000D02*
G75*
G03*
X155000000Y-104250000I1000000J0D01*
G01*
X154000000Y-101000000D02*
G75*
G03*
X153000000Y-100000000I-1000000J0D01*
G01*
X137000000Y-100000000D02*
G75*
G03*
X136000000Y-101000000I0J-1000000D01*
G01*
X135000000Y-102125000D02*
G75*
G03*
X136000000Y-101125000I0J1000000D01*
G01*
X119000000Y-102125000D02*
G75*
G03*
X118000000Y-103125000I0J-1000000D01*
G01*
X117000000Y-110625000D02*
G75*
G03*
X118000000Y-109625000I0J1000000D01*
G01*
X101000000Y-110625000D02*
G75*
G03*
X100000000Y-111625000I0J-1000000D01*
G01*
X100000000Y-143625000D02*
G75*
G03*
X101000000Y-144625000I1000000J0D01*
G01*
M02*
