<?xml version="1.0" standalone="no"?>
<!DOCTYPE svg PUBLIC "-//W3C//DTD SVG 1.1//EN" "http://www.w3.org/Graphics/SVG/1.1/DTD/svg11.dtd">
<svg width="98mm" height="82mm" viewBox="-49 -39 98 82" xmlns="http://www.w3.org/2000/svg" version="1.1">
<title>OpenSCAD Model</title>
<path d="
M -49,4.125 L -48.9808,4.32008 L -48.9239,4.50769 L -48.8315,4.68057 L -48.7071,4.83211 L -48.5556,4.95647
 L -48.3827,5.04887 L -48.1951,5.10579 L -47.8048,5.14423 L -47.6173,5.20111 L -47.4445,5.2935 L -47.2929,5.41789
 L -47.1685,5.56947 L -47.0761,5.74232 L -47.0192,5.92984 L -47,6.12506 L -47,11.625 L -46.9808,11.8201
 L -46.9239,12.0077 L -46.8315,12.1806 L -46.7071,12.3321 L -46.5556,12.4565 L -46.3827,12.5489 L -46.1951,12.6058
 L -46,12.625 L -26,12.625 L -25.8049,12.6058 L -25.6173,12.5489 L -25.4444,12.4565 L -25.2929,12.3321
 L -25.1685,12.1806 L -25.0761,12.0077 L -25.0192,11.8201 L -25,11.625 L -25,5.12506 L -24.9808,4.92984
 L -24.9239,4.74232 L -24.8315,4.56947 L -24.7071,4.41789 L -24.5555,4.2935 L -24.3827,4.20111 L -24.1952,4.14423
 L -23.9999,4.125 L -8,4.125 L -7.80492,4.10579 L -7.61731,4.04887 L -7.44443,3.95647 L -7.29289,3.83211
 L -7.16853,3.68057 L -7.07613,3.50769 L -7.01921,3.32008 L -7,3.125 L -7,3.00006 L -6.98077,2.80484
 L -6.92389,2.61732 L -6.8315,2.44447 L -6.70711,2.29289 L -6.55553,2.1685 L -6.38268,2.07611 L -6.19516,2.01923
 L -5.99994,2 L 5.99994,2 L 6.19516,2.01923 L 6.38268,2.07611 L 6.55553,2.1685 L 6.70711,2.29289
 L 6.8315,2.44447 L 6.92389,2.61732 L 6.98077,2.80484 L 7,3.00006 L 7,10.7499 L 6.98077,10.9452
 L 6.92389,11.1327 L 6.8315,11.3055 L 6.70711,11.4571 L 6.55553,11.5815 L 6.38268,11.6739 L 6.19516,11.7308
 L 5.80492,11.7692 L 5.61731,11.8261 L 5.44443,11.9185 L 5.29289,12.0429 L 5.16853,12.1944 L 5.07613,12.3673
 L 5.01921,12.5549 L 5,12.75 L 5,33.75 L 5.01921,33.9451 L 5.07613,34.1327 L 5.16853,34.3056
 L 5.29289,34.4571 L 5.44443,34.5815 L 5.61731,34.6739 L 5.80492,34.7308 L 6.19516,34.7692 L 6.38268,34.8261
 L 6.55553,34.9185 L 6.70711,35.0429 L 6.8315,35.1945 L 6.92389,35.3673 L 6.98077,35.5548 L 7,35.7501
 L 7,37.7446 L 7.01921,37.9397 L 7.07613,38.1273 L 7.16853,38.3002 L 7.29289,38.4517 L 9.54825,40.7071
 L 9.69978,40.8315 L 9.87267,40.9239 L 10.0603,40.9808 L 10.2554,41 L 14.4999,41 L 14.6952,41.0192
 L 14.8827,41.0761 L 15.0555,41.1685 L 15.2071,41.2929 L 15.3315,41.4445 L 15.4239,41.6173 L 15.4808,41.8048
 L 15.5192,42.1951 L 15.5761,42.3827 L 15.6685,42.5556 L 15.7929,42.7071 L 15.9444,42.8315 L 16.1173,42.9239
 L 16.3049,42.9808 L 16.5,43 L 37.5,43 L 37.6951,42.9808 L 37.8827,42.9239 L 38.0556,42.8315
 L 38.2071,42.7071 L 38.3315,42.5556 L 38.4239,42.3827 L 38.4808,42.1951 L 38.5192,41.8048 L 38.5761,41.6173
 L 38.6685,41.4445 L 38.7929,41.2929 L 38.9445,41.1685 L 39.1173,41.0761 L 39.3048,41.0192 L 39.5001,41
 L 43.4946,41 L 43.6897,40.9808 L 43.8773,40.9239 L 44.0502,40.8315 L 44.2017,40.7071 L 46.7071,38.2017
 L 46.8315,38.0502 L 46.9239,37.8773 L 46.9808,37.6897 L 47,37.4946 L 47,35.7501 L 47.0192,35.5548
 L 47.0761,35.3673 L 47.1685,35.1945 L 47.2929,35.0429 L 47.4445,34.9185 L 47.6173,34.8261 L 47.8048,34.7692
 L 48.1951,34.7308 L 48.3827,34.6739 L 48.5556,34.5815 L 48.7071,34.4571 L 48.8315,34.3056 L 48.9239,34.1327
 L 48.9808,33.9451 L 49,33.75 L 49,12.75 L 48.9808,12.5549 L 48.9239,12.3673 L 48.8315,12.1944
 L 48.7071,12.0429 L 48.5556,11.9185 L 48.3827,11.8261 L 48.1951,11.7692 L 47.8048,11.7308 L 47.6173,11.6739
 L 47.4445,11.5815 L 47.2929,11.4571 L 47.1685,11.3055 L 47.0761,11.1327 L 47.0192,10.9452 L 47,10.7499
 L 47,2.00006 L 47.0192,1.80484 L 47.0761,1.61732 L 47.1685,1.44447 L 47.2929,1.29289 L 47.4445,1.1685
 L 47.6173,1.07611 L 47.8048,1.01923 L 48.1951,0.980789 L 48.3827,0.923874 L 48.5556,0.831467 L 48.7071,0.707108
 L 48.8315,0.555573 L 48.9239,0.38269 L 48.9808,0.195084 L 49,-0 L 49,-21 L 48.9808,-21.1951
 L 48.9239,-21.3827 L 48.8315,-21.5556 L 48.7071,-21.7071 L 48.5556,-21.8315 L 48.3827,-21.9239 L 48.1951,-21.9808
 L 47.8048,-22.0192 L 47.6173,-22.0761 L 47.4445,-22.1685 L 47.2929,-22.2929 L 47.1685,-22.4445 L 47.0761,-22.6173
 L 47.0192,-22.8048 L 47,-23.0001 L 47,-24.4946 L 46.9808,-24.6897 L 46.9239,-24.8773 L 46.8315,-25.0502
 L 46.7071,-25.2017 L 44.7017,-27.2071 L 44.5502,-27.3315 L 44.3773,-27.4239 L 44.1897,-27.4808 L 43.9946,-27.5
 L 30.0001,-27.5 L 29.8048,-27.5192 L 29.6173,-27.5761 L 29.4445,-27.6685 L 29.2929,-27.7929 L 29.1685,-27.9445
 L 29.0761,-28.1173 L 29.0192,-28.3048 L 29,-28.5001 L 29,-30.75 L 28.9808,-30.9451 L 28.9239,-31.1327
 L 28.8315,-31.3056 L 28.7071,-31.4571 L 28.5556,-31.5815 L 28.3827,-31.6739 L 28.1951,-31.7308 L 28,-31.75
 L 12.0001,-31.75 L 11.8048,-31.7692 L 11.6173,-31.8261 L 11.4445,-31.9185 L 11.2929,-32.0429 L 11.1685,-32.1945
 L 11.0761,-32.3673 L 11.0192,-32.5548 L 11,-32.7501 L 11,-35 L 10.9808,-35.1951 L 10.9239,-35.3827
 L 10.8315,-35.5556 L 10.7071,-35.7071 L 10.5556,-35.8315 L 10.3827,-35.9239 L 10.1951,-35.9808 L 10,-36
 L 5.75006,-36 L 5.55484,-36.0192 L 5.36732,-36.0761 L 5.19447,-36.1685 L 5.04289,-36.2929 L 4.9185,-36.4445
 L 4.82611,-36.6173 L 4.76923,-36.8048 L 4.75,-37.0001 L 4.75,-37.25 L 4.73079,-37.4451 L 4.67387,-37.6327
 L 4.58147,-37.8056 L 4.45711,-37.9571 L 4.30557,-38.0815 L 4.13269,-38.1739 L 3.94508,-38.2308 L 3.75,-38.25
 L -3.75,-38.25 L -3.94508,-38.2308 L -4.13269,-38.1739 L -4.30557,-38.0815 L -4.45711,-37.9571 L -4.58147,-37.8056
 L -4.67387,-37.6327 L -4.73079,-37.4451 L -4.75,-37.25 L -4.75,-37.0001 L -4.76923,-36.8048 L -4.82611,-36.6173
 L -4.9185,-36.4445 L -5.04289,-36.2929 L -5.19447,-36.1685 L -5.36732,-36.0761 L -5.55484,-36.0192 L -5.75006,-36
 L -10,-36 L -10.1951,-35.9808 L -10.3827,-35.9239 L -10.5556,-35.8315 L -10.7071,-35.7071 L -10.8315,-35.5556
 L -10.9239,-35.3827 L -10.9808,-35.1951 L -11,-35 L -11,-34.8751 L -11.0192,-34.6798 L -11.0761,-34.4923
 L -11.1685,-34.3195 L -11.2929,-34.1679 L -11.4445,-34.0435 L -11.6173,-33.9511 L -11.8048,-33.8942 L -12.0001,-33.875
 L -28,-33.875 L -28.1951,-33.8558 L -28.3827,-33.7989 L -28.5556,-33.7065 L -28.7071,-33.5821 L -28.8315,-33.4306
 L -28.9239,-33.2577 L -28.9808,-33.0701 L -29,-32.875 L -29,-26.3751 L -29.0192,-26.1798 L -29.0761,-25.9923
 L -29.1685,-25.8195 L -29.2929,-25.6679 L -29.4445,-25.5435 L -29.6173,-25.4511 L -29.8048,-25.3942 L -30.0001,-25.375
 L -46,-25.375 L -46.1951,-25.3558 L -46.3827,-25.2989 L -46.5556,-25.2065 L -46.7071,-25.0821 L -46.8315,-24.9306
 L -46.9239,-24.7577 L -46.9808,-24.5701 L -47,-24.375 L -47,-18.8751 L -47.0192,-18.6798 L -47.0761,-18.4923
 L -47.1685,-18.3195 L -47.2929,-18.1679 L -47.4445,-18.0435 L -47.6173,-17.9511 L -47.8048,-17.8942 L -48.1951,-17.8558
 L -48.3827,-17.7989 L -48.5556,-17.7065 L -48.7071,-17.5821 L -48.8315,-17.4306 L -48.9239,-17.2577 L -48.9808,-17.0701
 L -49,-16.875 z
M -43,9.125 L -43,-4.875 L -29,-4.875 L -29,9.125 z
M -43,-7.875 L -43,-21.875 L -29,-21.875 L -29,-7.875 z
M -25,0.625 L -25,-13.375 L -11,-13.375 L -11,0.625 z
M -25,-16.375 L -25,-30.375 L -11,-30.375 L -11,-16.375 z
M -7,-1.5 L -7,-15.5 L 7,-15.5 L 7,-1.5 z
M -7,-18.5 L -7,-32.5 L 7,-32.5 L 7,-18.5 z
M 11,2.75 L 11,-11.25 L 25,-11.25 L 25,2.75 z
M 11,-14.25 L 11,-28.25 L 25,-28.25 L 25,-14.25 z
M 11.5,32.5 L 11.5,18.5 L 25.5,18.5 L 25.5,32.5 z
M 28.5,32.5 L 28.5,18.5 L 42.5,18.5 L 42.5,32.5 z
M 29,7 L 29,-7 L 43,-7 L 43,7 z
M 29,-10 L 29,-24 L 43,-24 L 43,-10 z
" stroke="black" fill="none" stroke-width="0.09"/>
</svg>
