<?xml version="1.0" standalone="no"?>
<!DOCTYPE svg PUBLIC "-//W3C//DTD SVG 1.1//EN" "http://www.w3.org/Graphics/SVG/1.1/DTD/svg11.dtd">
<svg width="116mm" height="82mm" viewBox="-58 -39 116 82" xmlns="http://www.w3.org/2000/svg" version="1.1">
<title>OpenSCAD Model</title>
<path d="
M -58,33.75 L -57.9808,33.9451 L -57.9239,34.1327 L -57.8315,34.3056 L -57.7071,34.4571 L -57.5556,34.5815
 L -57.3827,34.6739 L -57.1951,34.7308 L -56.8048,34.7692 L -56.6173,34.8261 L -56.4445,34.9185 L -56.2929,35.0429
 L -56.1685,35.1945 L -56.0761,35.3673 L -56.0192,35.5548 L -56,35.7501 L -56,37.4946 L -55.9808,37.6897
 L -55.9239,37.8773 L -55.8315,38.0502 L -55.7071,38.2017 L -53.2017,40.7071 L -53.0502,40.8315 L -52.8773,40.9239
 L -52.6897,40.9808 L -52.4946,41 L -48.5001,41 L -48.3048,41.0192 L -48.1173,41.0761 L -47.9445,41.1685
 L -47.7929,41.2929 L -47.6685,41.4445 L -47.5761,41.6173 L -47.5192,41.8048 L -47.4808,42.1951 L -47.4239,42.3827
 L -47.3315,42.5556 L -47.2071,42.7071 L -47.0556,42.8315 L -46.8827,42.9239 L -46.6951,42.9808 L -46.5,43
 L -25.5,43 L -25.3049,42.9808 L -25.1173,42.9239 L -24.9444,42.8315 L -24.7929,42.7071 L -24.6685,42.5556
 L -24.5761,42.3827 L -24.5192,42.1951 L -24.4808,41.8048 L -24.4239,41.6173 L -24.3315,41.4445 L -24.2071,41.2929
 L -24.0555,41.1685 L -23.8827,41.0761 L -23.6952,41.0192 L -23.4999,41 L -19.2554,41 L -19.0603,40.9808
 L -18.8727,40.9239 L -18.6998,40.8315 L -18.5482,40.7071 L -16.2929,38.4517 L -16.1685,38.3002 L -16.0761,38.1273
 L -16.0192,37.9397 L -16,37.7446 L -16,35.7501 L -15.9808,35.5548 L -15.9239,35.3673 L -15.8315,35.1945
 L -15.7071,35.0429 L -15.5555,34.9185 L -15.3827,34.8261 L -15.1952,34.7692 L -14.8049,34.7308 L -14.6173,34.6739
 L -14.4444,34.5815 L -14.2929,34.4571 L -14.1685,34.3056 L -14.0761,34.1327 L -14.0192,33.9451 L -14,33.75
 L -14,12.75 L -14.0192,12.5549 L -14.0761,12.3673 L -14.1685,12.1944 L -14.2929,12.0429 L -14.4444,11.9185
 L -14.6173,11.8261 L -14.8049,11.7692 L -15.1952,11.7308 L -15.3827,11.6739 L -15.5555,11.5815 L -15.7071,11.4571
 L -15.8315,11.3055 L -15.9239,11.1327 L -15.9808,10.9452 L -16,10.7499 L -16,3.00006 L -15.9808,2.80484
 L -15.9239,2.61732 L -15.8315,2.44447 L -15.7071,2.29289 L -15.5555,2.1685 L -15.3827,2.07611 L -15.1952,2.01923
 L -14.9999,2 L -3.00006,2 L -2.80484,2.01923 L -2.61732,2.07611 L -2.44447,2.1685 L -2.29289,2.29289
 L -2.1685,2.44447 L -2.07611,2.61732 L -2.01923,2.80484 L -2,3.00006 L -2,3.125 L -1.98079,3.32008
 L -1.92387,3.50769 L -1.83147,3.68057 L -1.70711,3.83211 L -1.55557,3.95647 L -1.38269,4.04887 L -1.19508,4.10579
 L -1,4.125 L 14.9999,4.125 L 15.1952,4.14423 L 15.3827,4.20111 L 15.5555,4.2935 L 15.7071,4.41789
 L 15.8315,4.56947 L 15.9239,4.74232 L 15.9808,4.92984 L 16,5.12506 L 16,11.625 L 16.0192,11.8201
 L 16.0761,12.0077 L 16.1685,12.1806 L 16.2929,12.3321 L 16.4444,12.4565 L 16.6173,12.5489 L 16.8049,12.6058
 L 17,12.625 L 32.9999,12.625 L 33.1952,12.6442 L 33.3827,12.7011 L 33.5555,12.7935 L 33.7071,12.9179
 L 33.8315,13.0695 L 33.9239,13.2423 L 33.9808,13.4298 L 34,13.6251 L 34,13.75 L 34.0192,13.9451
 L 34.0761,14.1327 L 34.1685,14.3056 L 34.2929,14.4571 L 34.4444,14.5815 L 34.6173,14.6739 L 34.8049,14.7308
 L 35,14.75 L 55,14.75 L 55.1951,14.7308 L 55.3827,14.6739 L 55.5556,14.5815 L 55.7071,14.4571
 L 55.8315,14.3056 L 55.9239,14.1327 L 55.9808,13.9451 L 56,13.75 L 56,8.25006 L 56.0192,8.05484
 L 56.0761,7.86732 L 56.1685,7.69447 L 56.2929,7.54289 L 56.4445,7.4185 L 56.6173,7.32611 L 56.8048,7.26923
 L 57.1951,7.23079 L 57.3827,7.17387 L 57.5556,7.08147 L 57.7071,6.95711 L 57.8315,6.80557 L 57.9239,6.63269
 L 57.9808,6.44508 L 58,6.25 L 58,-14.75 L 57.9808,-14.9451 L 57.9239,-15.1327 L 57.8315,-15.3056
 L 57.7071,-15.4571 L 57.5556,-15.5815 L 57.3827,-15.6739 L 57.1951,-15.7308 L 56.8048,-15.7692 L 56.6173,-15.8261
 L 56.4445,-15.9185 L 56.2929,-16.0429 L 56.1685,-16.1945 L 56.0761,-16.3673 L 56.0192,-16.5548 L 56,-16.7501
 L 56,-22.25 L 55.9808,-22.4451 L 55.9239,-22.6327 L 55.8315,-22.8056 L 55.7071,-22.9571 L 55.5556,-23.0815
 L 55.3827,-23.1739 L 55.1951,-23.2308 L 55,-23.25 L 39.0001,-23.25 L 38.8048,-23.2692 L 38.6173,-23.3261
 L 38.4445,-23.4185 L 38.2929,-23.5429 L 38.1685,-23.6945 L 38.0761,-23.8673 L 38.0192,-24.0548 L 38,-24.2501
 L 38,-24.375 L 37.9808,-24.5701 L 37.9239,-24.7577 L 37.8315,-24.9306 L 37.7071,-25.0821 L 37.5556,-25.2065
 L 37.3827,-25.2989 L 37.1951,-25.3558 L 37,-25.375 L 21.0001,-25.375 L 20.8048,-25.3942 L 20.6173,-25.4511
 L 20.4445,-25.5435 L 20.2929,-25.6679 L 20.1685,-25.8195 L 20.0761,-25.9923 L 20.0192,-26.1798 L 20,-26.3751
 L 20,-32.875 L 19.9808,-33.0701 L 19.9239,-33.2577 L 19.8315,-33.4306 L 19.7071,-33.5821 L 19.5556,-33.7065
 L 19.3827,-33.7989 L 19.1951,-33.8558 L 19,-33.875 L 3.00006,-33.875 L 2.80484,-33.8942 L 2.61732,-33.9511
 L 2.44447,-34.0435 L 2.29289,-34.1679 L 2.1685,-34.3195 L 2.07611,-34.4923 L 2.01923,-34.6798 L 2,-34.8751
 L 2,-35 L 1.98079,-35.1951 L 1.92387,-35.3827 L 1.83147,-35.5556 L 1.70711,-35.7071 L 1.55557,-35.8315
 L 1.38269,-35.9239 L 1.19508,-35.9808 L 1,-36 L -3.24994,-36 L -3.44516,-36.0192 L -3.63268,-36.0761
 L -3.80553,-36.1685 L -3.95711,-36.2929 L -4.0815,-36.4445 L -4.17389,-36.6173 L -4.23077,-36.8048 L -4.25,-37.0001
 L -4.25,-37.25 L -4.26921,-37.4451 L -4.32613,-37.6327 L -4.41853,-37.8056 L -4.54289,-37.9571 L -4.69443,-38.0815
 L -4.86731,-38.1739 L -5.05492,-38.2308 L -5.25,-38.25 L -12.75,-38.25 L -12.9451,-38.2308 L -13.1327,-38.1739
 L -13.3056,-38.0815 L -13.4571,-37.9571 L -13.5815,-37.8056 L -13.6739,-37.6327 L -13.7308,-37.4451 L -13.75,-37.25
 L -13.75,-37.0001 L -13.7692,-36.8048 L -13.8261,-36.6173 L -13.9185,-36.4445 L -14.0429,-36.2929 L -14.1945,-36.1685
 L -14.3673,-36.0761 L -14.5548,-36.0192 L -14.7501,-36 L -19,-36 L -19.1951,-35.9808 L -19.3827,-35.9239
 L -19.5556,-35.8315 L -19.7071,-35.7071 L -19.8315,-35.5556 L -19.9239,-35.3827 L -19.9808,-35.1951 L -20,-35
 L -20,-32.7501 L -20.0192,-32.5548 L -20.0761,-32.3673 L -20.1685,-32.1945 L -20.2929,-32.0429 L -20.4445,-31.9185
 L -20.6173,-31.8261 L -20.8048,-31.7692 L -21.0001,-31.75 L -37,-31.75 L -37.1951,-31.7308 L -37.3827,-31.6739
 L -37.5556,-31.5815 L -37.7071,-31.4571 L -37.8315,-31.3056 L -37.9239,-31.1327 L -37.9808,-30.9451 L -38,-30.75
 L -38,-28.5001 L -38.0192,-28.3048 L -38.0761,-28.1173 L -38.1685,-27.9445 L -38.2929,-27.7929 L -38.4445,-27.6685
 L -38.6173,-27.5761 L -38.8048,-27.5192 L -39.0001,-27.5 L -52.9946,-27.5 L -53.1897,-27.4808 L -53.3773,-27.4239
 L -53.5502,-27.3315 L -53.7017,-27.2071 L -55.7071,-25.2017 L -55.8315,-25.0502 L -55.9239,-24.8773 L -55.9808,-24.6897
 L -56,-24.4946 L -56,-23.0001 L -56.0192,-22.8048 L -56.0761,-22.6173 L -56.1685,-22.4445 L -56.2929,-22.2929
 L -56.4445,-22.1685 L -56.6173,-22.0761 L -56.8048,-22.0192 L -57.1951,-21.9808 L -57.3827,-21.9239 L -57.5556,-21.8315
 L -57.7071,-21.7071 L -57.8315,-21.5556 L -57.9239,-21.3827 L -57.9808,-21.1951 L -58,-21 L -58,-0
 L -57.9808,0.195084 L -57.9239,0.38269 L -57.8315,0.555573 L -57.7071,0.707108 L -57.5556,0.831467 L -57.3827,0.923874
 L -57.1951,0.980789 L -56.8048,1.01923 L -56.6173,1.07611 L -56.4445,1.1685 L -56.2929,1.29289 L -56.1685,1.44447
 L -56.0761,1.61732 L -56.0192,1.80484 L -56,2.00006 L -56,10.7499 L -56.0192,10.9452 L -56.0761,11.1327
 L -56.1685,11.3055 L -56.2929,11.4571 L -56.4445,11.5815 L -56.6173,11.6739 L -56.8048,11.7308 L -57.1951,11.7692
 L -57.3827,11.8261 L -57.5556,11.9185 L -57.7071,12.0429 L -57.8315,12.1944 L -57.9239,12.3673 L -57.9808,12.5549
 L -58,12.75 z
M -52,7 L -52,-7 L -38,-7 L -38,7 z
M -52,-10 L -52,-24 L -38,-24 L -38,-10 z
M -51.5,32.5 L -51.5,18.5 L -37.5,18.5 L -37.5,32.5 z
M -34.5,32.5 L -34.5,18.5 L -20.5,18.5 L -20.5,32.5 z
M -34,2.75 L -34,-11.25 L -20,-11.25 L -20,2.75 z
M -34,-14.25 L -34,-28.25 L -20,-28.25 L -20,-14.25 z
M -16,-1.5 L -16,-15.5 L -2,-15.5 L -2,-1.5 z
M -16,-18.5 L -16,-32.5 L -2,-32.5 L -2,-18.5 z
M 2,0.625 L 2,-13.375 L 16,-13.375 L 16,0.625 z
M 2,-16.375 L 2,-30.375 L 16,-30.375 L 16,-16.375 z
M 20,9.125 L 20,-4.875 L 34,-4.875 L 34,9.125 z
M 20,-7.875 L 20,-21.875 L 34,-21.875 L 34,-7.875 z
M 38,11.25 L 38,-2.75 L 52,-2.75 L 52,11.25 z
M 38,-5.75 L 38,-19.75 L 52,-19.75 L 52,-5.75 z
" stroke="black" fill="none" stroke-width="0.09"/>
</svg>
